<svg width="20" height="24" viewBox="0 0 20 24" fill="none" xmlns="http://www.w3.org/2000/svg">
<path d="M19.1119 18.424C18.764 19.2275 18.3523 19.9672 17.8753 20.6472C17.2251 21.5743 16.6927 22.216 16.2824 22.5724C15.6463 23.1573 14.9649 23.4568 14.2352 23.4739C13.7113 23.4739 13.0795 23.3248 12.3441 23.0224C11.6063 22.7214 10.9282 22.5724 10.3082 22.5724C9.65801 22.5724 8.96065 22.7214 8.21473 23.0224C7.46768 23.3248 6.86586 23.4824 6.40574 23.498C5.70596 23.5278 5.00846 23.2197 4.31223 22.5724C3.86786 22.1848 3.31205 21.5204 2.6462 20.5791C1.9318 19.5739 1.34447 18.4084 0.884342 17.0795C0.391561 15.6442 0.144531 14.2543 0.144531 12.9087C0.144531 11.3673 0.477595 10.0379 1.14472 8.92385C1.66902 8.029 2.36652 7.32312 3.2395 6.80493C4.11248 6.28674 5.05573 6.02267 6.07154 6.00578C6.62735 6.00578 7.35623 6.1777 8.26201 6.51559C9.16523 6.85462 9.74518 7.02655 9.99945 7.02655C10.1895 7.02655 10.8338 6.82552 11.926 6.42473C12.9588 6.05305 13.8305 5.89916 14.5446 5.95978C16.4797 6.11595 17.9335 6.87876 18.9003 8.25303C17.1697 9.30163 16.3136 10.7703 16.3306 12.6544C16.3463 14.122 16.8787 15.3432 17.925 16.3129C18.3992 16.7629 18.9287 17.1107 19.5179 17.3578C19.3901 17.7283 19.2552 18.0832 19.1119 18.424V18.424ZM14.6738 0.960131C14.6738 2.11039 14.2536 3.18439 13.416 4.17847C12.4051 5.36023 11.1825 6.04311 9.85662 5.93536C9.83973 5.79736 9.82993 5.65213 9.82993 5.49951C9.82993 4.39526 10.3106 3.21349 11.1643 2.24724C11.5905 1.75801 12.1326 1.35122 12.7899 1.02671C13.4458 0.707053 14.0662 0.530273 14.6497 0.5C14.6667 0.653772 14.6738 0.807554 14.6738 0.960116V0.960131Z" fill="#0C0C0C"/>
</svg>
