<svg width="25" height="24" viewBox="0 0 25 24" fill="none" xmlns="http://www.w3.org/2000/svg">
<path fill-rule="evenodd" clip-rule="evenodd" d="M4.0625 3C3.75184 3 3.5 3.25184 3.5 3.5625V4.6875C3.5 4.99816 3.75184 5.25 4.0625 5.25H20.9375C21.2482 5.25 21.5 4.99816 21.5 4.6875V3.5625C21.5 3.25184 21.2482 3 20.9375 3H4.0625ZM2 3.5625C2 2.42341 2.92341 1.5 4.0625 1.5H20.9375C22.0766 1.5 23 2.42341 23 3.5625V4.6875C23 5.63158 22.3657 6.42751 21.5 6.67236V19.875L21.5 19.8772C21.4979 20.5722 21.2209 21.2381 20.7295 21.7295C20.2381 22.2209 19.5722 22.4979 18.8772 22.5L18.875 22.5H6.125L6.12276 22.5C5.4278 22.4979 4.7619 22.2209 4.27048 21.7295C3.77907 21.2381 3.50208 20.5722 3.5 19.8772L3.5 19.875V6.67236C2.63431 6.42751 2 5.63158 2 4.6875V3.5625ZM5 6.75V19.8738C5.00115 20.1721 5.12017 20.4579 5.33114 20.6689C5.54215 20.8799 5.82801 20.9989 6.12639 21H18.8736C19.172 20.9989 19.4579 20.8799 19.6689 20.6689C19.8799 20.4579 19.9989 20.172 20 19.8736V6.75H5ZM12.5 9C12.9142 9 13.25 9.33579 13.25 9.75V16.1893L14.9697 14.4697C15.2626 14.1768 15.7374 14.1768 16.0303 14.4697C16.3232 14.7626 16.3232 15.2374 16.0303 15.5303L13.0303 18.5303C12.7374 18.8232 12.2626 18.8232 11.9697 18.5303L8.96967 15.5303C8.67678 15.2374 8.67678 14.7626 8.96967 14.4697C9.26256 14.1768 9.73744 14.1768 10.0303 14.4697L11.75 16.1893V9.75C11.75 9.33579 12.0858 9 12.5 9Z" fill="#262626"/>
</svg>
