<svg width="24" height="24" viewBox="0 0 24 24" fill="none" xmlns="http://www.w3.org/2000/svg">
<g clip-path="url(#clip0_4664_60718)">
<path fill-rule="evenodd" clip-rule="evenodd" d="M4.28097 10.7203C4.2113 10.6505 4.12854 10.5951 4.03742 10.5573C3.9463 10.5195 3.84862 10.5 3.74997 10.5C3.65132 10.5 3.55364 10.5195 3.46252 10.5573C3.3714 10.5951 3.28864 10.6505 3.21897 10.7203L0.218971 13.7203C0.0781409 13.8612 -0.000976562 14.0522 -0.000976562 14.2513C-0.000976562 14.4505 0.0781409 14.6415 0.218971 14.7823C0.359801 14.9232 0.550807 15.0023 0.749971 15.0023C0.949135 15.0023 1.14014 14.9232 1.28097 14.7823L3.74997 12.3118L6.21897 14.7823C6.3598 14.9232 6.55081 15.0023 6.74997 15.0023C6.94913 15.0023 7.14014 14.9232 7.28097 14.7823C7.4218 14.6415 7.50092 14.4505 7.50092 14.2513C7.50092 14.0522 7.4218 13.8612 7.28097 13.7203L4.28097 10.7203ZM23.781 9.22034C23.7113 9.1505 23.6285 9.09508 23.5374 9.05727C23.4463 9.01946 23.3486 9 23.25 9C23.1513 9 23.0536 9.01946 22.9625 9.05727C22.8714 9.09508 22.7886 9.1505 22.719 9.22034L20.25 11.6908L17.781 9.22034C17.6401 9.07951 17.4491 9.00039 17.25 9.00039C17.0508 9.00039 16.8598 9.07951 16.719 9.22034C16.5781 9.36117 16.499 9.55218 16.499 9.75134C16.499 9.9505 16.5781 10.1415 16.719 10.2823L19.719 13.2823C19.7886 13.3522 19.8714 13.4076 19.9625 13.4454C20.0536 13.4832 20.1513 13.5027 20.25 13.5027C20.3486 13.5027 20.4463 13.4832 20.5374 13.4454C20.6285 13.4076 20.7113 13.3522 20.781 13.2823L23.781 10.2823C23.8508 10.2127 23.9062 10.1299 23.944 10.0388C23.9818 9.94767 24.0013 9.84999 24.0013 9.75134C24.0013 9.65269 23.9818 9.55501 23.944 9.46389C23.9062 9.37277 23.8508 9.29001 23.781 9.22034Z" fill="white"/>
<path fill-rule="evenodd" clip-rule="evenodd" d="M12 4.50077C10.7507 4.49981 9.52107 4.81124 8.42287 5.40671C7.32466 6.00218 6.39278 6.8628 5.712 7.91027C5.60007 8.06897 5.43094 8.17807 5.2402 8.2146C5.04947 8.25114 4.852 8.21226 4.68934 8.10616C4.52668 8.00005 4.41153 7.83499 4.3681 7.64571C4.32467 7.45642 4.35636 7.25767 4.4565 7.09127C5.51474 5.46503 7.07018 4.2243 8.89098 3.55405C10.7118 2.8838 12.7004 2.81992 14.5605 3.37192C16.4206 3.92391 18.0524 5.06224 19.2129 6.61721C20.3733 8.17218 21.0002 10.0605 21 12.0008C21 12.1999 20.9209 12.3908 20.7801 12.5316C20.6393 12.6724 20.4484 12.7515 20.2493 12.7515C20.0501 12.7515 19.8592 12.6724 19.7184 12.5316C19.5776 12.3908 19.4985 12.1999 19.4985 12.0008C19.4985 10.0116 18.7083 8.10399 17.3018 6.69747C15.8953 5.29095 13.9876 4.50077 11.9985 4.50077H12ZM3.75 11.2508C3.94891 11.2508 4.13968 11.3298 4.28033 11.4704C4.42098 11.6111 4.5 11.8019 4.5 12.0008C4.49944 13.6181 5.0217 15.1922 5.98888 16.4885C6.95606 17.7847 8.31634 18.7336 9.86686 19.1936C11.4174 19.6536 13.075 19.6001 14.5927 19.041C16.1103 18.4819 17.4065 17.4472 18.288 16.0913C18.34 16.0049 18.4088 15.9299 18.4904 15.8708C18.572 15.8116 18.6647 15.7695 18.7629 15.747C18.8611 15.7245 18.9629 15.7219 19.0621 15.7396C19.1613 15.7573 19.256 15.7948 19.3404 15.8498C19.4248 15.9049 19.4972 15.9764 19.5534 16.0601C19.6095 16.1438 19.6483 16.2379 19.6672 16.3369C19.6862 16.4359 19.685 16.5377 19.6637 16.6362C19.6425 16.7347 19.6016 16.8279 19.5435 16.9103C18.4853 18.5365 16.9298 19.7772 15.109 20.4475C13.2882 21.1177 11.2996 21.1816 9.4395 20.6296C7.57944 20.0776 5.94756 18.9393 4.78712 17.3843C3.62669 15.8294 2.99983 13.941 3 12.0008C3 11.9022 3.01945 11.8045 3.05723 11.7134C3.09502 11.6223 3.1504 11.5396 3.2202 11.4699C3.29 11.4002 3.37286 11.345 3.46403 11.3074C3.55519 11.2698 3.65288 11.2506 3.7515 11.2508H3.75Z" fill="white"/>
</g>
<defs>
<clipPath id="clip0_4664_60718">
<rect width="24" height="24" fill="white"/>
</clipPath>
</defs>
</svg>
