<svg width="88" height="83" viewBox="0 0 88 83" fill="none" xmlns="http://www.w3.org/2000/svg">
<path d="M46.75 40C48.8211 40 50.5 38.3211 50.5 36.25C50.5 34.1789 48.8211 32.5 46.75 32.5C44.6789 32.5 43 34.1789 43 36.25C43 38.3211 44.6789 40 46.75 40Z" fill="#D41142"/>
<path d="M59.25 40C61.3211 40 63 38.3211 63 36.25C63 34.1789 61.3211 32.5 59.25 32.5C57.1789 32.5 55.5 34.1789 55.5 36.25C55.5 38.3211 57.1789 40 59.25 40Z" fill="#D41142"/>
<path d="M46.75 52.5C48.8211 52.5 50.5 50.8211 50.5 48.75C50.5 46.6789 48.8211 45 46.75 45C44.6789 45 43 46.6789 43 48.75C43 50.8211 44.6789 52.5 46.75 52.5Z" fill="#D41142"/>
<path d="M59.25 52.5C61.3211 52.5 63 50.8211 63 48.75C63 46.6789 61.3211 45 59.25 45C57.1789 45 55.5 46.6789 55.5 48.75C55.5 50.8211 57.1789 52.5 59.25 52.5Z" fill="#D41142"/>
<path d="M21.75 52.5C23.8211 52.5 25.5 50.8211 25.5 48.75C25.5 46.6789 23.8211 45 21.75 45C19.6789 45 18 46.6789 18 48.75C18 50.8211 19.6789 52.5 21.75 52.5Z" fill="#D41142"/>
<path d="M34.25 52.5C36.3211 52.5 38 50.8211 38 48.75C38 46.6789 36.3211 45 34.25 45C32.1789 45 30.5 46.6789 30.5 48.75C30.5 50.8211 32.1789 52.5 34.25 52.5Z" fill="#D41142"/>
<path d="M21.75 65C23.8211 65 25.5 63.3211 25.5 61.25C25.5 59.1789 23.8211 57.5 21.75 57.5C19.6789 57.5 18 59.1789 18 61.25C18 63.3211 19.6789 65 21.75 65Z" fill="#D41142"/>
<path d="M34.25 65C36.3211 65 38 63.3211 38 61.25C38 59.1789 36.3211 57.5 34.25 57.5C32.1789 57.5 30.5 59.1789 30.5 61.25C30.5 63.3211 32.1789 65 34.25 65Z" fill="#D41142"/>
<path d="M46.75 65C48.8211 65 50.5 63.3211 50.5 61.25C50.5 59.1789 48.8211 57.5 46.75 57.5C44.6789 57.5 43 59.1789 43 61.25C43 63.3211 44.6789 65 46.75 65Z" fill="#D41142"/>
<path fill-rule="evenodd" clip-rule="evenodd" d="M23 7.5C23 6.11929 21.8807 5 20.5 5C19.1193 5 18 6.11929 18 7.5V10H15.5C9.97715 10 5.5 14.4772 5.5 20V65C5.5 70.5229 9.97715 75 15.5 75H65.5C71.0229 75 75.5 70.5229 75.5 65V20C75.5 14.4772 71.0229 10 65.5 10H63V7.5C63 6.11929 61.8807 5 60.5 5C59.1193 5 58 6.11929 58 7.5V10H23V7.5ZM65.5 15C68.2614 15 70.5 17.2386 70.5 20V22.5H10.5V20C10.5 17.2386 12.7386 15 15.5 15H65.5ZM10.5 27.5V65C10.5 67.7614 12.7386 70 15.5 70H65.5C68.2614 70 70.5 67.7614 70.5 65V27.5H10.5Z" fill="#D41142"/>
<path d="M56 67C56 58.1634 63.1634 51 72 51V51C80.8366 51 88 58.1634 88 67V67C88 75.8366 80.8366 83 72 83V83C63.1634 83 56 75.8366 56 67V67Z" fill="white"/>
<path d="M72 54C64.8319 54 59 59.8319 59 67C59 74.1681 64.8319 80 72 80C79.1681 80 85 74.1681 85 67C85 59.8319 79.1681 54 72 54ZM78.7656 62.6431L70.3656 72.6431C70.2735 72.7529 70.1588 72.8415 70.0294 72.9031C69.9 72.9647 69.7589 72.9977 69.6156 73H69.5988C69.4586 72.9999 69.32 72.9704 69.192 72.9134C69.064 72.8563 68.9494 72.773 68.8556 72.6688L65.2556 68.6688C65.1642 68.5718 65.0931 68.4575 65.0464 68.3327C64.9998 68.2078 64.9786 68.0749 64.9841 67.9417C64.9895 67.8086 65.0216 67.6778 65.0783 67.5572C65.135 67.4366 65.2152 67.3286 65.3143 67.2394C65.4134 67.1503 65.5293 67.0818 65.6551 67.0381C65.781 66.9944 65.9144 66.9763 66.0474 66.9848C66.1804 66.9934 66.3104 67.0284 66.4296 67.0879C66.5489 67.1474 66.655 67.2301 66.7419 67.3312L69.5725 70.4762L77.2344 61.3569C77.4062 61.1582 77.6494 61.0351 77.9113 61.0142C78.1732 60.9934 78.4327 61.0764 78.6339 61.2454C78.8351 61.4143 78.9617 61.6557 78.9863 61.9172C79.0109 62.1788 78.9317 62.4395 78.7656 62.6431Z" fill="#D41142"/>
</svg>
