<svg fill="none" height="24" viewBox="0 0 24 24" width="24" xmlns="http://www.w3.org/2000/svg">
    <path clip-rule="evenodd"
        d="M10.5 9.51465C8.84315 9.51465 7.5 10.8578 7.5 12.5146C7.5 14.1715 8.84315 15.5146 10.5 15.5146C12.1569 15.5146 13.5 14.1715 13.5 12.5146C13.5 10.8578 12.1569 9.51465 10.5 9.51465ZM6 12.5146C6 10.0294 8.01472 8.01465 10.5 8.01465C12.9853 8.01465 15 10.0294 15 12.5146C15 14.9999 12.9853 17.0146 10.5 17.0146C8.01472 17.0146 6 14.9999 6 12.5146Z"
        fill="#262626" fill-rule="evenodd" />
    <path
        d="M8.34375 3.51465C7.689 3.51465 7.13032 3.82728 6.74699 4.27415C6.72342 4.30163 6.70187 4.33078 6.68251 4.36137L5.46661 6.2825C5.29871 6.46567 5.16111 6.51465 5.0625 6.51465V6.13965C5.0625 5.72543 4.72671 5.38965 4.3125 5.38965H3.1875C2.77329 5.38965 2.4375 5.72543 2.4375 6.13965V6.51465H2.25C1.65326 6.51465 1.08097 6.7517 0.65901 7.17366C0.237053 7.59562 0 8.16791 0 8.76465V17.7646C0 18.3614 0.237053 18.9337 0.65901 19.3556C1.08097 19.7776 1.65326 20.0146 2.25 20.0146H14.25C14.6642 20.0146 15 19.6789 15 19.2646C15 18.8504 14.6642 18.5146 14.25 18.5146H2.25C2.05109 18.5146 1.86032 18.4356 1.71967 18.295C1.57902 18.1543 1.5 17.9636 1.5 17.7646V8.76465C1.5 8.56574 1.57902 8.37497 1.71967 8.23432C1.86032 8.09367 2.05109 8.01465 2.25 8.01465H5.0625C5.76578 8.01465 6.29468 7.62283 6.63806 7.2219C6.66149 7.19455 6.68292 7.16555 6.70218 7.13512L7.91651 5.21645C8.05137 5.07485 8.20139 5.01465 8.34375 5.01465H12.6562C12.7986 5.01465 12.9486 5.07485 13.0835 5.21645L14.2978 7.13512C14.3171 7.16555 14.3385 7.19455 14.3619 7.2219C14.7281 7.64938 15.3059 8.01465 15.9844 8.01465H18.75C18.9489 8.01465 19.1397 8.09367 19.2803 8.23432C19.421 8.37497 19.5 8.56574 19.5 8.76465V13.25C19.5 13.6642 19.8358 14 20.25 14C20.6642 14 21 13.6642 21 13.25V8.76465C21 8.16791 20.7629 7.59561 20.341 7.17366C19.919 6.7517 19.3467 6.51465 18.75 6.51465H15.9844C15.8604 6.51465 15.6852 6.44289 15.5322 6.28071L14.3175 4.36137C14.2981 4.33078 14.2766 4.30163 14.253 4.27415C13.8697 3.82728 13.311 3.51465 12.6562 3.51465H8.34375Z"
        fill="#262626" />
    <path clip-rule="evenodd"
        d="M20.25 15.5212C20.4489 15.5212 20.6397 15.6003 20.7803 15.7409C20.921 15.8816 21 16.0723 21 16.2712V19.2712C21 19.4702 20.921 19.6609 20.7803 19.8016C20.6397 19.9422 20.4489 20.0212 20.25 20.0212H17.25C17.0511 20.0212 16.8603 19.9422 16.7197 19.8016C16.579 19.6609 16.5 19.4702 16.5 19.2712C16.5 19.0723 16.579 18.8816 16.7197 18.7409C16.8603 18.6003 17.0511 18.5212 17.25 18.5212H19.5V16.2712C19.5 16.0723 19.579 15.8816 19.7197 15.7409C19.8603 15.6003 20.0511 15.5212 20.25 15.5212Z"
        fill="#262626" fill-rule="evenodd" />
    <path clip-rule="evenodd"
        d="M19.5 19.2712C19.5 19.0723 19.579 18.8816 19.7197 18.7409C19.8603 18.6003 20.0511 18.5212 20.25 18.5212H23.25C23.4489 18.5212 23.6397 18.6003 23.7803 18.7409C23.921 18.8816 24 19.0723 24 19.2712C24 19.4702 23.921 19.6609 23.7803 19.8016C23.6397 19.9422 23.4489 20.0212 23.25 20.0212H21V22.2712C21 22.4702 20.921 22.6609 20.7803 22.8016C20.6397 22.9422 20.4489 23.0212 20.25 23.0212C20.0511 23.0212 19.8603 22.9422 19.7197 22.8016C19.579 22.6609 19.5 22.4702 19.5 22.2712V19.2712Z"
        fill="#262626" fill-rule="evenodd" />
</svg>
