<svg fill="none" height="19" viewBox="0 0 24 19" width="24" xmlns="http://www.w3.org/2000/svg">
    <path clip-rule="evenodd"
        d="M0.749939 3.82715C0.749939 2.99872 1.42151 2.32715 2.24994 2.32715L21.7499 2.32715C22.5784 2.32715 23.2499 2.99872 23.2499 3.82715V14.3271C23.2499 15.1556 22.5784 15.8271 21.7499 15.8271H2.24994C1.42151 15.8271 0.749939 15.1556 0.749939 14.3271L0.749939 3.82715ZM2.24994 7.51421V10.6401C2.58266 10.6963 2.90879 10.7899 3.22201 10.9197C3.76798 11.1458 4.26406 11.4773 4.68192 11.8952C5.09978 12.313 5.43125 12.8091 5.6574 13.3551C5.78714 13.6683 5.88076 13.9944 5.937 14.3271H18.0629C18.2176 13.4119 18.6529 12.5602 19.318 11.8952C19.983 11.2302 20.8347 10.7948 21.7499 10.6401V7.51423C20.8347 7.35953 19.983 6.92415 19.318 6.25913C18.6529 5.59411 18.2176 4.74238 18.0629 3.82715L5.937 3.82715C5.88076 4.15987 5.78714 4.486 5.6574 4.79922C5.43125 5.34519 5.09978 5.84127 4.68192 6.25913C4.26406 6.67699 3.76798 7.00846 3.22201 7.23461C2.90879 7.36435 2.58266 7.45797 2.24994 7.51421ZM4.40468 3.82715C4.36973 3.96248 4.3253 4.0955 4.27158 4.2252C4.12081 4.58918 3.89984 4.91989 3.62126 5.19847C3.34268 5.47704 3.01197 5.69802 2.64799 5.84879C2.51829 5.90251 2.38527 5.94694 2.24994 5.98189V3.82715H4.40468ZM19.5952 3.82715C19.7281 4.34167 19.9965 4.81631 20.3786 5.19847C20.7608 5.58063 21.2354 5.84903 21.7499 5.98189V3.82715L19.5952 3.82715ZM21.7499 12.1724C21.2354 12.3053 20.7608 12.5737 20.3786 12.9558C19.9965 13.338 19.7281 13.8126 19.5952 14.3271H21.7499V12.1724ZM4.40468 14.3271C4.36973 14.1918 4.3253 14.0588 4.27158 13.9291C4.12081 13.5651 3.89984 13.2344 3.62126 12.9558C3.34268 12.6773 3.01197 12.4563 2.64799 12.3055C2.51829 12.2518 2.38527 12.2074 2.24994 12.1724L2.24994 14.3271H4.40468ZM11.9999 6.07715C10.3431 6.07715 8.99994 7.42029 8.99994 9.07715C8.99994 10.734 10.3431 12.0771 11.9999 12.0771C13.6568 12.0771 14.9999 10.734 14.9999 9.07715C14.9999 7.42029 13.6568 6.07715 11.9999 6.07715ZM7.49994 9.07715C7.49994 6.59187 9.51466 4.57715 11.9999 4.57715C14.4852 4.57715 16.4999 6.59187 16.4999 9.07715C16.4999 11.5624 14.4852 13.5771 11.9999 13.5771C9.51466 13.5771 7.49994 11.5624 7.49994 9.07715Z"
        fill="#262626" fill-rule="evenodd" />
</svg>
