<svg width="24" height="24" viewBox="0 0 24 24" fill="none" xmlns="http://www.w3.org/2000/svg">
<path fill-rule="evenodd" clip-rule="evenodd" d="M4.017 17.341C4.1727 17.4973 4.292 17.686 4.36641 17.8937C4.44082 18.1014 4.46851 18.3229 4.4475 18.5425C4.34208 19.5589 4.14221 20.5632 3.8505 21.5425C5.943 21.058 7.221 20.497 7.8015 20.203C8.13076 20.0362 8.50993 19.9967 8.8665 20.092C9.88865 20.3645 10.9421 20.5017 12 20.5C17.994 20.5 22.5 16.2895 22.5 11.5C22.5 6.712 17.994 2.5 12 2.5C6.006 2.5 1.5 6.712 1.5 11.5C1.5 13.702 2.4255 15.745 4.017 17.341ZM3.2775 23.1985C2.9221 23.269 2.56555 23.3335 2.208 23.392C1.908 23.44 1.68 23.128 1.7985 22.849C1.93169 22.5349 2.05376 22.2162 2.1645 21.8935L2.169 21.8785C2.541 20.7985 2.844 19.5565 2.955 18.4C1.1145 16.555 0 14.14 0 11.5C0 5.701 5.373 1 12 1C18.627 1 24 5.701 24 11.5C24 17.299 18.627 22 12 22C10.8115 22.0016 9.62788 21.8473 8.4795 21.541C7.6995 21.9355 6.021 22.654 3.2775 23.1985Z" fill="#F8F9FA"/>
</svg>
