<svg width="24" height="24" viewBox="0 0 24 24" fill="none" xmlns="http://www.w3.org/2000/svg">
<path fill-rule="evenodd" clip-rule="evenodd" d="M11.9911 3C6.99317 3 2.98399 6.95015 2.99905 11.7792L2.99905 11.7804V11.7816C2.999 13.4614 3.48999 15.1045 4.41141 16.5087C4.46404 16.5806 4.51327 16.655 4.55895 16.7315L4.56257 16.7375L4.56608 16.7437C4.64003 16.873 4.72772 17.0473 4.78815 17.2397C4.84345 17.4157 4.90715 17.7028 4.82391 18.0091L4.82348 18.0107L4.04883 20.8128L6.72765 19.846C6.99398 19.7365 7.27937 19.6805 7.56749 19.6814C7.56798 19.6814 7.56846 19.6814 7.56894 19.6814L7.56609 20.4314L7.56692 19.6814C7.56711 19.6814 7.5673 19.6814 7.56749 19.6814C7.83724 19.6818 8.10464 19.7316 8.35643 19.8284L8.35697 19.8286L8.35752 19.8288C8.50955 19.8875 9.11516 20.1125 9.71401 20.2801C10.3027 20.4449 11.3898 20.6447 12.1589 20.6447C17.1319 20.6447 20.9989 16.6518 20.9991 11.7889L21.7491 11.7886H20.9991C20.9988 11.1853 20.935 10.5838 20.8085 9.99391L20.8084 9.99313L20.8082 9.99234C19.9648 6.01596 16.3464 3 11.9911 3ZM1.49905 11.7827C1.48195 6.08891 6.19878 1.5 11.9911 1.5C17.046 1.5 21.2827 5.00287 22.2753 9.68C22.4238 10.373 22.4988 11.0796 22.4991 11.7883V11.7886C22.4991 17.4639 17.9765 22.1447 12.1589 22.1447C11.2123 22.1447 9.98384 21.9133 9.30972 21.7246C8.64659 21.539 7.99209 21.2956 7.81781 21.2283C7.7372 21.1974 7.65159 21.1815 7.56525 21.1814L7.56424 21.1814L7.56323 21.1814C7.46999 21.181 7.37764 21.1996 7.29178 21.236L7.27307 21.2439L4.09215 22.3919C3.96009 22.446 3.82093 22.4811 3.67888 22.4959L3.63888 22.5001L3.59867 22.5C3.43991 22.4995 3.28283 22.4675 3.13652 22.4059C2.99021 22.3443 2.85759 22.2543 2.74632 22.141C2.63506 22.0278 2.54737 21.8936 2.48834 21.7462C2.42931 21.5989 2.4001 21.4412 2.40242 21.2825L2.40274 21.26L2.40443 21.2375C2.41211 21.1349 2.43037 21.0333 2.45893 20.9345L3.35656 17.6875C3.3402 17.6361 3.30896 17.5678 3.26746 17.4945C3.24489 17.4571 3.22052 17.4208 3.19444 17.3858L3.18162 17.3686L3.1698 17.3507C2.08012 15.6981 1.49922 13.7622 1.49905 11.7827Z" fill="#262626"/>
</svg>
