<svg width="24" height="24" viewBox="0 0 24 24" fill="none" xmlns="http://www.w3.org/2000/svg">
<path fill-rule="evenodd" clip-rule="evenodd" d="M5.29764 15.6168C5.2278 15.5471 5.17238 15.4643 5.13457 15.3732C5.09676 15.2821 5.0773 15.1844 5.0773 15.0858C5.0773 14.9871 5.09676 14.8894 5.13457 14.7983C5.17238 14.7072 5.2278 14.6244 5.29764 14.5548L11.4692 8.38318C11.5389 8.31334 11.6216 8.25792 11.7128 8.22011C11.8039 8.1823 11.9016 8.16284 12.0002 8.16284C12.0989 8.16284 12.1965 8.1823 12.2877 8.22011C12.3788 8.25792 12.4615 8.31334 12.5312 8.38318L18.7028 14.5548C18.8436 14.6956 18.9227 14.8866 18.9227 15.0858C18.9227 15.2849 18.8436 15.4759 18.7028 15.6168C18.562 15.7576 18.3709 15.8367 18.1718 15.8367C17.9726 15.8367 17.7816 15.7576 17.6408 15.6168L12.0002 9.97468L6.35964 15.6168C6.28997 15.6866 6.20721 15.742 6.11609 15.7798C6.02497 15.8176 5.92729 15.8371 5.82864 15.8371C5.72999 15.8371 5.63231 15.8176 5.54119 15.7798C5.45007 15.742 5.36731 15.6866 5.29764 15.6168Z" fill="black"/>
</svg>
