<svg width="24" height="24" viewBox="0 0 24 24" fill="none" xmlns="http://www.w3.org/2000/svg">
<path fill-rule="evenodd" clip-rule="evenodd" d="M15.6168 5.29761C15.5471 5.22777 15.4644 5.17235 15.3732 5.13454C15.2821 5.09673 15.1844 5.07727 15.0858 5.07727C14.9871 5.07727 14.8895 5.09673 14.7983 5.13454C14.7072 5.17235 14.6245 5.22777 14.5548 5.29761L8.38321 11.4692C8.31337 11.5389 8.25795 11.6216 8.22014 11.7127C8.18233 11.8039 8.16287 11.9015 8.16287 12.0002C8.16287 12.0988 8.18233 12.1965 8.22014 12.2876C8.25795 12.3788 8.31337 12.4615 8.38321 12.5312L14.5548 18.7028C14.6956 18.8436 14.8866 18.9227 15.0858 18.9227C15.285 18.9227 15.476 18.8436 15.6168 18.7028C15.7576 18.5619 15.8367 18.3709 15.8367 18.1718C15.8367 17.9726 15.7576 17.7816 15.6168 17.6408L9.97471 12.0002L15.6168 6.35961C15.6866 6.28994 15.742 6.20718 15.7799 6.11606C15.8177 6.02494 15.8371 5.92726 15.8371 5.82861C15.8371 5.72996 15.8177 5.63228 15.7799 5.54116C15.742 5.45004 15.6866 5.36728 15.6168 5.29761Z" fill="black"/>
</svg>
