<svg width="24" height="24" viewBox="0 0 24 24" fill="none" xmlns="http://www.w3.org/2000/svg">
<path fill-rule="evenodd" clip-rule="evenodd" d="M18.7797 8.54608C18.8495 8.61575 18.9049 8.69852 18.9427 8.78963C18.9805 8.88075 19 8.97843 19 9.07709C19 9.17574 18.9805 9.27342 18.9427 9.36454C18.9049 9.45565 18.8495 9.53842 18.7797 9.60809L12.6081 15.7797C12.5384 15.8495 12.4557 15.9049 12.3645 15.9427C12.2734 15.9805 12.1757 16 12.0771 16C11.9784 16 11.8808 15.9805 11.7896 15.9427C11.6985 15.9049 11.6158 15.8495 11.5461 15.7797L5.37452 9.60808C5.23369 9.46725 5.15457 9.27625 5.15457 9.07708C5.15457 8.87792 5.23369 8.68691 5.37452 8.54608C5.51535 8.40525 5.70635 8.32614 5.90551 8.32614C6.10468 8.32614 6.29568 8.40525 6.43651 8.54608L12.0771 14.1882L17.7177 8.54608C17.7873 8.47624 17.8701 8.42083 17.9612 8.38302C18.0523 8.34521 18.15 8.32574 18.2487 8.32574C18.3473 8.32574 18.445 8.34521 18.5361 8.38302C18.6272 8.42083 18.71 8.47624 18.7797 8.54608Z" fill="black"/>
</svg>
