<svg width="24" height="24" viewBox="0 0 24 24" fill="none" xmlns="http://www.w3.org/2000/svg">
<path fill-rule="evenodd" clip-rule="evenodd" d="M8.38321 5.29761C8.45288 5.22777 8.53564 5.17235 8.62676 5.13454C8.71788 5.09673 8.81556 5.07727 8.91421 5.07727C9.01286 5.07727 9.11055 5.09673 9.20166 5.13454C9.29278 5.17235 9.37554 5.22777 9.44521 5.29761L15.6168 11.4692C15.6866 11.5389 15.742 11.6216 15.7799 11.7127C15.8177 11.8039 15.8371 11.9015 15.8371 12.0002C15.8371 12.0988 15.8177 12.1965 15.7799 12.2876C15.742 12.3788 15.6866 12.4615 15.6168 12.5312L9.44521 18.7028C9.30438 18.8436 9.11338 18.9227 8.91421 18.9227C8.71505 18.9227 8.52404 18.8436 8.38321 18.7028C8.24238 18.5619 8.16326 18.3709 8.16326 18.1718C8.16326 17.9726 8.24238 17.7816 8.38321 17.6408L14.0253 12.0002L8.38321 6.35961C8.31337 6.28994 8.25795 6.20718 8.22014 6.11606C8.18233 6.02494 8.16287 5.92726 8.16287 5.82861C8.16287 5.72996 8.18233 5.63228 8.22014 5.54116C8.25795 5.45004 8.31337 5.36728 8.38321 5.29761Z" fill="black"/>
</svg>
