<svg width="24" height="24" viewBox="0 0 24 24" fill="none" xmlns="http://www.w3.org/2000/svg">
<path fill-rule="evenodd" clip-rule="evenodd" d="M9 2.72484C9 2.46259 9.21259 2.25 9.47484 2.25H14.5252C14.7874 2.25 15 2.46259 15 2.72484V3.27516C15 3.53741 14.7874 3.75 14.5252 3.75H9.47484C9.21259 3.75 9 3.53741 9 3.27516V2.72484ZM7.55746 3.75H6.75C6.35218 3.75 5.97064 3.90804 5.68934 4.18934C5.40804 4.47064 5.25 4.85218 5.25 5.25V20.25C5.25 20.6478 5.40804 21.0294 5.68934 21.3107C5.97064 21.592 6.35218 21.75 6.75 21.75H17.25C17.6478 21.75 18.0294 21.592 18.3107 21.3107C18.592 21.0294 18.75 20.6478 18.75 20.25V5.25C18.75 4.85218 18.592 4.47064 18.3107 4.18934C18.0294 3.90804 17.6478 3.75 17.25 3.75H16.4425C16.2299 4.61132 15.4521 5.25 14.5252 5.25H9.47484C8.54786 5.25 7.77006 4.61132 7.55746 3.75ZM16.4425 2.25C16.2299 1.38868 15.4521 0.75 14.5252 0.75H9.47484C8.54786 0.75 7.77006 1.38868 7.55746 2.25H6.75C5.95435 2.25 5.19129 2.56607 4.62868 3.12868C4.06607 3.69129 3.75 4.45435 3.75 5.25V20.25C3.75 21.0456 4.06607 21.8087 4.62868 22.3713C5.19129 22.9339 5.95435 23.25 6.75 23.25H17.25C18.0456 23.25 18.8087 22.9339 19.3713 22.3713C19.9339 21.8087 20.25 21.0456 20.25 20.25V5.25C20.25 4.45435 19.9339 3.69129 19.3713 3.12868C18.8087 2.56607 18.0456 2.25 17.25 2.25H16.4425Z" fill="#262626"/>
</svg>
