<svg width="161" height="160" viewBox="0 0 161 160" fill="none" xmlns="http://www.w3.org/2000/svg">
<path d="M65.5002 160C64.4064 160 63.3439 159.781 62.3439 159.313C60.4377 158.469 58.9689 156.938 58.2189 154.969L44.9689 120.532L10.5002 107.282C8.43769 106.5 6.81269 104.844 6.00019 102.781C4.46894 98.7502 6.46894 94.219 10.5002 92.6878L44.9377 79.4377L58.2189 45.0002C59.0002 42.9377 60.6564 41.3127 62.7189 40.5002C64.6564 39.7502 66.7814 39.8127 68.6877 40.6565C70.5939 41.5002 72.0627 43.0315 72.8127 45.0002L86.0627 79.4377L120.5 92.719C122.563 93.5003 124.188 95.1565 125 97.219C126.563 101.25 124.531 105.782 120.5 107.313L86.0627 120.563L72.7814 155C72.0002 157.063 70.3439 158.688 68.2814 159.5C67.4064 159.844 66.4377 160 65.5002 160ZM19.4064 100L49.4689 111.563C51.5314 112.344 53.1564 114 53.9689 116.063L65.5314 146.125L77.0939 116.063C77.8752 114 79.5314 112.375 81.5939 111.563L111.656 100L81.5939 88.4377C79.5314 87.6565 77.9064 86.0003 77.0939 83.9378L65.5314 53.8752L53.9689 83.9378C53.1877 86.0003 51.5314 87.6252 49.4689 88.4377L19.4064 100Z" fill="#D41142"/>
<path d="M28 55C25.9375 55 24.0625 53.7188 23.3437 51.7812L17.9062 37.5938L3.71875 32.1563C1.78125 31.4375 0.5 29.5625 0.5 27.5C0.5 25.4375 1.78125 23.5625 3.71875 22.8438L17.9062 17.4063L23.3437 3.21875C24.0625 1.28125 25.9375 0 28 0C30.0625 0 31.9375 1.28125 32.6562 3.21875L38.0938 17.4063L52.2812 22.8438C54.2187 23.5938 55.5 25.4375 55.5 27.5C55.5 29.5625 54.2187 31.4375 52.2812 32.1563L38.0938 37.5938L32.6562 51.7812C31.9375 53.7188 30.0625 55 28 55ZM19.4375 27.5L23.5625 29.0938C24.875 29.5938 25.9375 30.6563 26.4375 31.9688L28.0312 36.0938L29.625 31.9688C30.125 30.6563 31.1875 29.5938 32.5 29.0938L36.625 27.5L32.5 25.9063C31.1875 25.4063 30.125 24.3438 29.625 23.0312L28 18.9375L26.4062 23.0625C25.9062 24.375 24.8437 25.4375 23.5312 25.9375L19.4375 27.5Z" fill="#D41142"/>
<path d="M125.5 80C123.438 80 121.562 78.7188 120.844 76.7812L113.312 57.1875L93.7187 49.6562C91.7812 48.9062 90.5 47.0625 90.5 45C90.5 42.9375 91.7812 41.0625 93.7187 40.3438L113.312 32.8125L120.844 13.2188C121.594 11.2812 123.438 10 125.5 10C127.562 10 129.437 11.2812 130.156 13.2188L137.688 32.8125L157.281 40.3438C159.219 41.0938 160.5 42.9375 160.5 45C160.5 47.0625 159.219 48.9375 157.281 49.6562L137.688 57.1875L130.156 76.7812C129.437 78.7188 127.562 80 125.5 80ZM109.438 45L118.969 48.6562C120.281 49.1562 121.344 50.2188 121.844 51.5312L125.5 61.0625L129.156 51.5312C129.656 50.2188 130.719 49.1562 132.031 48.6562L141.562 45L132.031 41.3438C130.719 40.8438 129.656 39.7812 129.156 38.4688L125.5 28.9375L121.844 38.4688C121.344 39.7812 120.281 40.8438 118.969 41.3438L109.438 45Z" fill="#D41142"/>
</svg>
