<svg width="151" height="141" viewBox="0 0 151 141" fill="none" xmlns="http://www.w3.org/2000/svg">
<path fill-rule="evenodd" clip-rule="evenodd" d="M35.9824 0.992188C27.4019 0.992188 19.3661 5.72036 15.8339 13.4278L2.30217 42.9726C-2.24101 52.8864 2.10821 63.2761 10.5043 68.3898V130.992C10.5043 130.992 10.5043 133.231 10.5043 135.992C10.5043 138.754 12.7428 140.992 15.5043 140.992H135.504C138.266 140.992 140.504 138.754 140.504 135.992C140.504 133.231 140.504 130.992 140.504 130.992V68.3858C148.899 63.2705 153.25 52.8815 148.705 42.9703L135.175 13.4278C131.642 5.72036 123.607 0.992188 115.026 0.992188H35.9824ZM57.7543 61.6172C50.4122 61.6172 44.9856 55.6891 44.9856 50.2953C44.9856 47.5339 42.747 45.2953 39.9856 45.2953C37.2241 45.2953 34.9856 47.5339 34.9856 50.2953C34.9856 55.7029 29.564 61.6172 22.2199 61.6172H21.6772C13.0508 61.3106 8.54241 53.3581 11.3934 47.138L24.9252 17.593C26.6807 13.7635 30.9447 10.9922 35.9824 10.9922H115.026C120.064 10.9922 124.328 13.7646 126.084 17.594L139.616 47.1391C142.464 53.3496 137.961 61.3051 129.33 61.6172H128.804C121.346 61.6172 116.039 56.1589 116.039 50.2953C116.039 47.5339 113.8 45.2953 111.039 45.2953C108.277 45.2953 106.039 47.5339 106.039 50.2953C106.039 56.1578 100.73 61.6172 93.2699 61.6172C85.929 61.6172 80.5043 55.6902 80.5043 50.2953C80.5043 47.5339 78.2657 45.2953 75.5043 45.2953C72.7429 45.2953 70.5043 47.5339 70.5043 50.2953C70.5043 56.1644 65.207 61.6172 57.7543 61.6172ZM20.5043 71.567V130.992H52.4519H130.504V71.5666C130.195 71.5889 129.883 71.605 129.569 71.6148C129.543 71.6156 129.517 71.6162 129.49 71.6166C129.465 71.617 129.439 71.6172 129.414 71.6172H128.804C121.781 71.6172 115.279 68.5664 111.038 63.6462C106.796 68.5665 100.293 71.6172 93.2699 71.6172C86.2597 71.6172 79.8364 68.412 75.6133 63.5262C71.3801 68.5158 64.8372 71.6172 57.7543 71.6172C50.6852 71.6172 44.2113 68.3577 39.989 63.4018C35.7674 68.3602 29.2914 71.6172 22.2199 71.6172H21.5949C21.5439 71.6172 21.4929 71.6164 21.4419 71.6149C21.1274 71.6052 20.8149 71.5892 20.5043 71.567Z" fill="#D41142"/>
</svg>
