<svg width="25" height="24" viewBox="0 0 25 24" fill="none" xmlns="http://www.w3.org/2000/svg">
<path fill-rule="evenodd" clip-rule="evenodd" d="M10.6228 3C10.5738 2.99986 10.5253 3.0094 10.48 3.02809C10.4347 3.04677 10.3935 3.07423 10.3589 3.10887C10.3242 3.14352 10.2968 3.18468 10.2781 3.22997C10.2594 3.27527 10.2499 3.32381 10.25 3.37281L10.25 3.375V4.50001H14.75V3.375L14.75 3.37281C14.7501 3.32381 14.7406 3.27527 14.7219 3.22997C14.7032 3.18467 14.6758 3.14352 14.6411 3.10887C14.6065 3.07423 14.5653 3.04677 14.52 3.02809C14.4747 3.0094 14.4262 2.99986 14.3772 3L14.375 3H10.625L10.6228 3ZM6.54834 6L7.43604 20.2032C7.43621 20.206 7.43637 20.2088 7.43651 20.2115C7.46245 20.7163 7.79756 21 8.1875 21H16.8125C17.1986 21 17.5322 20.7226 17.5639 20.2043L18.4517 6H6.54834ZM19.2431 4.50001H16.25V3.37612C16.2506 3.12977 16.2025 2.88572 16.1086 2.65798C16.0145 2.4299 15.8763 2.22267 15.7018 2.04821C15.5273 1.87375 15.3201 1.73551 15.092 1.64143C14.8643 1.5475 14.6203 1.49945 14.374 1.5H10.626C10.3797 1.49945 10.1357 1.5475 9.90797 1.64143C9.67989 1.73551 9.47267 1.87376 9.29821 2.04821C9.12375 2.22267 8.98551 2.4299 8.89142 2.65798C8.7975 2.88567 8.74944 3.12966 8.75 3.37596V4.50001H5.75693C5.75279 4.49997 5.74865 4.49997 5.74451 4.50001H4.25C3.83579 4.50001 3.5 4.83579 3.5 5.25001C3.5 5.66422 3.83579 6 4.25 6H5.04541L5.93872 20.293C6.00388 21.5196 6.92898 22.5 8.1875 22.5H16.8125C18.0829 22.5 18.9868 21.5109 19.0611 20.2959C19.0611 20.2958 19.0611 20.2958 19.0611 20.2958L19.9546 6H20.75C21.1642 6 21.5 5.66422 21.5 5.25001C21.5 4.83579 21.1642 4.50001 20.75 4.50001H19.2555C19.2513 4.49997 19.2472 4.49997 19.2431 4.50001ZM9.09823 7.50048C9.51218 7.4857 9.85974 7.80929 9.87452 8.22324L10.2495 18.7232C10.2643 19.1372 9.94072 19.4847 9.52677 19.4995C9.11282 19.5143 8.76526 19.1907 8.75048 18.7768L8.37548 8.27677C8.36069 7.86282 8.68428 7.51527 9.09823 7.50048ZM15.9018 7.50048C16.3157 7.51527 16.6393 7.86282 16.6245 8.27677L16.2495 18.7768C16.2347 19.1907 15.8872 19.5143 15.4732 19.4995C15.0593 19.4847 14.7357 19.1372 14.7505 18.7232L15.1255 8.22324C15.1403 7.80929 15.4878 7.4857 15.9018 7.50048ZM12.5 7.5C12.9142 7.5 13.25 7.83579 13.25 8.25V18.75C13.25 19.1642 12.9142 19.5 12.5 19.5C12.0858 19.5 11.75 19.1642 11.75 18.75V8.25C11.75 7.83579 12.0858 7.5 12.5 7.5Z" fill="#D41142"/>
</svg>
