<svg width="267" height="200" viewBox="0 0 267 200" fill="none" xmlns="http://www.w3.org/2000/svg">
<path d="M117.627 59.9067C117.627 59.9067 97.0267 44.6667 76.4333 46.74C55.84 48.8133 35.0333 75.3667 35.0333 75.3667L41.7 80.42C41.7 80.42 76.2533 51.7533 94.9667 72.9467C113.68 94.14 117.627 59.9067 117.627 59.9067Z" fill="#355CA5"/>
<path d="M102.067 57.78H31.3334V103.48H102.067V57.78Z" fill="#9C9C9C"/>
<path opacity="0.45" d="M216.547 155.367C215.243 155.103 214.015 154.553 212.951 153.757C211.887 152.96 211.013 151.936 210.393 150.76V150.693L178.827 90.58L161.453 102.88L173.74 141.507C174.064 142.522 174.137 143.601 173.954 144.651C173.77 145.701 173.335 146.691 172.686 147.537C172.037 148.383 171.193 149.058 170.226 149.507C169.259 149.956 168.198 150.164 167.133 150.113C157.8 149.687 147.873 149.447 137.56 149.447C84.28 149.447 41.0867 155.653 41.0867 163.313C41.0867 170.973 84.28 177.187 137.56 177.187C190.84 177.187 234 170.98 234 163.333C234 160.36 227.54 157.62 216.547 155.367Z" fill="#E6E6E6"/>
<path d="M116.16 158.787C116.16 158.787 117.147 162.12 120.073 162.513C123 162.907 123.613 165.847 120.927 166.447C118.24 167.047 111.593 163.28 111.593 163.28L112.013 159.047L116.16 158.787Z" fill="#355CA5"/>
<path d="M59.1799 158.22C59.1799 158.22 55.7933 158.953 55.1799 161.84C54.5666 164.727 51.5933 165.113 51.1799 162.387C50.7666 159.66 55.0533 153.333 55.0533 153.333L59.2399 154.087L59.1799 158.22Z" fill="#355CA5"/>
<path d="M59.6334 108.447C59.6334 108.447 56.5134 123.007 67.7467 129.247C78.98 135.487 114.413 124.253 108.94 159.62H116.847C116.847 159.62 127.067 130.287 100.553 119.86L92.5067 110.733L59.6334 108.447Z" fill="#24285B"/>
<path d="M168.716 97.9371L166.027 95.3671L149.206 112.969L151.896 115.539L168.716 97.9371Z" fill="#7C7C7C"/>
<path d="M167.406 96.677L164.717 94.1069L147.896 111.709L150.585 114.279L167.406 96.677Z" fill="#9D9D9C"/>
<path d="M174.722 99.9158C179.046 95.3906 180.105 89.3838 177.086 86.4991C174.068 83.6145 168.115 84.9445 163.791 89.4697C159.466 93.9949 158.408 100.002 161.426 102.886C164.445 105.771 170.397 104.441 174.722 99.9158Z" fill="#7C7C7C"/>
<path d="M173.408 98.6661C177.733 94.1409 178.791 88.134 175.773 85.2494C172.754 82.3648 166.801 83.6947 162.477 88.2199C158.153 92.7452 157.094 98.752 160.113 101.637C163.131 104.521 169.084 103.191 173.408 98.6661Z" fill="#9D9D9C"/>
<path opacity="0.57" d="M171.553 96.8928C174.409 93.9035 175.109 89.9357 173.115 88.0304C171.121 86.1251 167.189 87.0039 164.333 89.9932C161.476 92.9825 160.777 96.9503 162.77 98.8556C164.764 100.761 168.696 99.8821 171.553 96.8928Z" fill="white"/>
<path d="M145.5 61.5533C145.5 61.5533 142.493 65.92 139.573 68.0667C139.29 68.273 138.969 68.4214 138.629 68.5036C138.288 68.5858 137.935 68.6 137.588 68.5455C137.242 68.4911 136.91 68.3689 136.612 68.1861C136.313 68.0032 136.053 67.7633 135.847 67.48C134.787 65.9933 133.787 63.6733 135.113 61.14L136.833 56.56C137.279 55.6846 137.985 54.9687 138.854 54.5103C139.723 54.052 140.712 53.8737 141.687 54C145.333 54.2133 147.46 58.9867 145.5 61.5533Z" fill="#F4A28C"/>
<path d="M137.887 57.5L124.32 62.9667L125.987 72.62L135.767 64.64L137.887 57.5Z" fill="#F4A28C"/>
<path d="M144.347 60.8867C143.042 59.8929 141.856 58.7521 140.813 57.4867C140.719 58.3437 140.377 59.1546 139.828 59.82C139.28 60.4855 138.55 60.9766 137.727 61.2333C136.933 61.4946 136.074 61.4718 135.295 61.1689C134.517 60.8661 133.868 60.302 133.46 59.5733L137.86 54.3733C138.461 53.6038 139.26 53.0116 140.171 52.6594C141.081 52.3073 142.071 52.2084 143.033 52.3733C143.865 52.5166 144.687 52.7125 145.493 52.96C147.493 53.6267 148.887 56.44 151.087 56.5333C151.308 56.5442 151.523 56.6122 151.71 56.7308C151.897 56.8494 152.05 57.0146 152.154 57.2101C152.258 57.4056 152.31 57.6248 152.304 57.8462C152.298 58.0676 152.234 58.2837 152.12 58.4733C151.04 60.2667 148.68 62.5467 145.793 61.6333C145.273 61.4657 144.785 61.2134 144.347 60.8867V60.8867Z" fill="#24285B"/>
<path d="M138.267 61.4733C138.267 61.4733 139.533 59.8733 138.267 59.0133C137 58.1533 135.14 60.46 136.573 62L138.267 61.4733Z" fill="#F4A28C"/>
<path d="M143.467 64.2067L143.307 66.72C143.293 66.8607 143.245 66.9958 143.166 67.1132C143.088 67.2307 142.981 67.3268 142.856 67.3929C142.731 67.4589 142.592 67.493 142.451 67.4919C142.309 67.4908 142.171 67.4547 142.047 67.3867L140.24 66.3867L143.467 64.2067Z" fill="#F4A28C"/>
<path opacity="0.31" d="M134.667 65.5267C134.667 65.5267 135.073 62.4933 136.167 61.34C136.167 61.34 131.227 63.0067 131.113 68.44L134.667 65.5267Z" fill="#CE8172"/>
<path opacity="0.08" d="M45.1067 102.3C45.1067 102.3 44.8934 70.8533 82.6667 64.2067L60.4734 103.48H45.14L45.1067 102.3Z" fill="black"/>
<path d="M127.787 75.96L126.667 69.4467C126.229 66.7904 125.124 64.2887 123.455 62.1759C121.787 60.0631 119.609 58.4084 117.127 57.3667C114.966 56.5028 112.706 55.9094 110.4 55.6C107.44 55.1867 103.293 55.6 98.6533 56.82C78.6666 62.0667 64 79 60.9666 99.4134L59.6333 108.447L92.5066 110.733C92.5066 110.733 90.84 101.4 102.507 101.4C114.173 101.4 128.947 101.52 127.787 75.96Z" fill="#1F3A6C"/>
<path opacity="0.08" d="M95.5733 65.86C95.5733 65.86 79.62 68.6666 62.0866 93.9333L59.6333 108.447L84.58 110.3L95.5733 65.86Z" fill="black"/>
<path d="M113.867 77.48C116.98 67.0933 104.907 58.6933 96.3 65.2933C89.1 70.8067 80.9667 80.7333 80.6467 97.4867C80.0934 127.72 109.053 122.313 148.247 110.733L147 101.927C147 101.927 100.067 110.8 106.44 95.5467C109.107 89.1667 112.213 83.0067 113.867 77.48Z" fill="#355CA5"/>
<path d="M97.3933 119.933C97.3933 119.933 98.36 153.367 59.24 159.62L57.7267 152.533C57.7267 152.533 89.06 144.767 68.82 123.96L97.3933 119.933Z" fill="#24285B"/>
<path opacity="0.08" d="M159.013 164.893C161.362 164.893 163.267 164.189 163.267 163.32C163.267 162.451 161.362 161.747 159.013 161.747C156.664 161.747 154.76 162.451 154.76 163.32C154.76 164.189 156.664 164.893 159.013 164.893Z" fill="black"/>
<path opacity="0.08" d="M175.28 160.82C177.629 160.82 179.533 160.116 179.533 159.247C179.533 158.378 177.629 157.673 175.28 157.673C172.931 157.673 171.027 158.378 171.027 159.247C171.027 160.116 172.931 160.82 175.28 160.82Z" fill="black"/>
<path opacity="0.08" d="M191.66 163.967C194.009 163.967 195.913 163.262 195.913 162.393C195.913 161.524 194.009 160.82 191.66 160.82C189.311 160.82 187.407 161.524 187.407 162.393C187.407 163.262 189.311 163.967 191.66 163.967Z" fill="black"/>
<path opacity="0.08" d="M216.74 165.547C219.089 165.547 220.993 164.842 220.993 163.973C220.993 163.104 219.089 162.4 216.74 162.4C214.391 162.4 212.487 163.104 212.487 163.973C212.487 164.842 214.391 165.547 216.74 165.547Z" fill="black"/>
<path opacity="0.08" d="M142.887 160.467C145.287 160.467 147.233 159.744 147.233 158.853C147.233 157.962 145.287 157.24 142.887 157.24C140.486 157.24 138.54 157.962 138.54 158.853C138.54 159.744 140.486 160.467 142.887 160.467Z" fill="black"/>
<path d="M147.24 103.62C147.24 103.62 158.027 102.48 158.973 106.693C159.92 110.907 157.853 113.14 148.147 110.027L147.24 103.62Z" fill="#F4A28C"/>
<path d="M39.78 103.48C39.78 103.48 41.3334 109.773 47.5534 108.447C53.7734 107.12 49.3334 99.4 39.78 103.48Z" fill="#F4A28C"/>
</svg>
