<svg width="13" height="13" viewBox="0 0 13 13" fill="none" xmlns="http://www.w3.org/2000/svg">
<path d="M1.19201 11.252C1.19201 11.572 1.44804 11.828 1.76801 11.828H11.272C11.592 11.828 11.848 11.572 11.848 11.252V1.74802C11.848 1.42805 11.592 1.17202 11.272 1.17202H7.52801V0.0200195H11.272C12.2321 0.0200195 13 0.78799 13 1.74802V11.252C13 12.2121 12.232 12.98 11.272 12.98H1.76801C0.807958 12.98 0.0400162 12.212 0.0400162 11.252V7.50801H1.19201V11.252Z" fill="#2F80ED"/>
<path d="M5.51189 0.0200481V1.17205H2.00789L6.53589 5.70005L5.71992 6.51602L1.19192 1.98802V5.49202H0.0399179V0.0200195L5.51189 0.0200481Z" fill="#2F80ED"/>
</svg>
