<svg width="24" height="24" viewBox="0 0 24 24" fill="none" xmlns="http://www.w3.org/2000/svg">
<path d="M11.9996 15C13.6564 15 14.9996 13.6569 14.9996 12C14.9996 10.3431 13.6564 9 11.9996 9C10.3427 9 8.99959 10.3431 8.99959 12C8.99959 13.6569 10.3427 15 11.9996 15Z" fill="#262626"/>
<path d="M23.0077 11.1844C21.7674 9.26625 20.1582 7.63688 18.3544 6.47203C16.359 5.18203 14.1558 4.5 11.9837 4.5C9.99053 4.5 8.03068 5.06953 6.1585 6.19266C4.24928 7.33781 2.51959 9.01078 1.01725 11.1647C0.847647 11.4081 0.754242 11.6965 0.7489 11.9931C0.743558 12.2897 0.826522 12.5813 0.987248 12.8306C2.22522 14.768 3.8185 16.3997 5.59412 17.5486C7.59334 18.8438 9.7449 19.5 11.9837 19.5C14.1732 19.5 16.381 18.8236 18.368 17.5444C20.1708 16.3833 21.7768 14.7478 23.0124 12.8137C23.1676 12.5702 23.2496 12.2872 23.2488 11.9984C23.248 11.7096 23.1643 11.4271 23.0077 11.1844ZM11.9996 16.5C11.1096 16.5 10.2395 16.2361 9.49953 15.7416C8.7595 15.2471 8.18273 14.5443 7.84213 13.7221C7.50154 12.8998 7.41242 11.995 7.58606 11.1221C7.75969 10.2492 8.18827 9.44736 8.81761 8.81802C9.44695 8.18868 10.2488 7.7601 11.1217 7.58647C11.9946 7.41283 12.8994 7.50195 13.7217 7.84254C14.5439 8.18314 15.2467 8.75991 15.7412 9.49993C16.2357 10.24 16.4996 11.11 16.4996 12C16.4982 13.1931 16.0237 14.3369 15.1801 15.1805C14.3364 16.0241 13.1926 16.4986 11.9996 16.5Z" fill="#262626"/>
</svg>
