<svg width="24" height="24" viewBox="0 0 24 24" fill="none" xmlns="http://www.w3.org/2000/svg">
<path fill-rule="evenodd" clip-rule="evenodd" d="M1.01665 11.1645C4.06665 6.79251 8.0213 4.5 11.9832 4.5C16.6362 4.5 20.6444 7.53129 23.0091 11.1836L23.0102 11.1853C23.1667 11.4285 23.2499 11.7115 23.2499 12.0007C23.2499 12.2893 23.167 12.5719 23.0111 12.8147C20.6484 16.5141 16.6661 19.5 11.9832 19.5C7.25035 19.5 3.34486 16.5203 0.987946 12.8317C0.827797 12.583 0.744733 12.2925 0.749227 11.9968C0.753732 11.7002 0.84603 11.4117 1.01446 11.1676L1.01665 11.1645ZM2.24906 12.0196L2.25114 12.0228C4.42807 15.4304 7.91719 18 11.9832 18C16.0036 18 19.5679 15.4195 21.7475 12.0065L21.7489 12.0043C21.7496 12.0032 21.7499 12.002 21.7499 12.0007C21.7499 12.0002 21.7499 11.9996 21.7498 11.9991C21.7496 11.9985 21.7493 11.9979 21.749 11.9973C19.5612 8.61915 15.9676 6 11.9832 6C8.639 6 5.0993 7.93555 2.24906 12.0196ZM11.9991 9C10.3422 9 8.9991 10.3431 8.9991 12C8.9991 13.6569 10.3422 15 11.9991 15C13.656 15 14.9991 13.6569 14.9991 12C14.9991 10.3431 13.656 9 11.9991 9ZM7.4991 12C7.4991 9.51472 9.51382 7.5 11.9991 7.5C14.4844 7.5 16.4991 9.51472 16.4991 12C16.4991 14.4853 14.4844 16.5 11.9991 16.5C9.51382 16.5 7.4991 14.4853 7.4991 12Z" fill="#262626"/>
</svg>
