<svg width="151" height="91" viewBox="0 0 151 91" fill="none" xmlns="http://www.w3.org/2000/svg">
<path fill-rule="evenodd" clip-rule="evenodd" d="M0.5 10.332C0.5 4.80918 4.97716 0.332031 10.5 0.332031L140.5 0.332031C146.023 0.332031 150.5 4.80918 150.5 10.332V80.332C150.5 85.8549 146.023 90.332 140.5 90.332H10.5C4.97716 90.332 0.5 85.8549 0.5 80.332L0.5 10.332ZM10.5 34.9124V55.7516C12.7181 56.1266 14.8923 56.7507 16.9805 57.6156C20.6203 59.1233 23.9274 61.3331 26.7132 64.1188C29.499 66.9046 31.7087 70.2118 33.2164 73.8515C34.0813 75.9397 34.7055 78.1139 35.0804 80.332H115.919C116.951 74.2305 119.853 68.5523 124.287 64.1188C128.72 59.6854 134.398 56.7829 140.5 55.7515V34.9126C134.398 33.8812 128.72 30.9787 124.287 26.5452C119.853 22.1118 116.951 16.4336 115.919 10.332L35.0804 10.332C34.7055 12.5502 34.0813 14.7244 33.2164 16.8125C31.7087 20.4523 29.499 23.7595 26.7132 26.5452C23.9274 29.331 20.6203 31.5408 16.9805 33.0484C14.8923 33.9134 12.7181 34.5375 10.5 34.9124ZM24.8649 10.332C24.632 11.2342 24.3357 12.121 23.9776 12.9857C22.9725 15.4122 21.4993 17.617 19.6421 19.4742C17.785 21.3313 15.5802 22.8045 13.1537 23.8096C12.289 24.1678 11.4022 24.464 10.5 24.697V10.332H24.8649ZM126.135 10.332C127.021 13.7622 128.81 16.9265 131.358 19.4742C133.906 22.0219 137.07 23.8112 140.5 24.697V10.332H126.135ZM140.5 65.9671C137.07 66.8528 133.906 68.6422 131.358 71.1899C128.81 73.7376 127.021 76.9019 126.135 80.332H140.5V65.9671ZM24.8649 80.332C24.632 79.4298 24.3357 78.543 23.9776 77.6784C22.9725 75.2519 21.4993 73.0471 19.6421 71.1899C17.785 69.3327 15.5802 67.8595 13.1537 66.8544C12.289 66.4963 11.4022 66.2001 10.5 65.9671V80.332H24.8649ZM75.5 25.332C64.4543 25.332 55.5 34.2863 55.5 45.332C55.5 56.3777 64.4543 65.332 75.5 65.332C86.5457 65.332 95.5 56.3777 95.5 45.332C95.5 34.2863 86.5457 25.332 75.5 25.332ZM45.5 45.332C45.5 28.7635 58.9315 15.332 75.5 15.332C92.0685 15.332 105.5 28.7635 105.5 45.332C105.5 61.9006 92.0685 75.332 75.5 75.332C58.9315 75.332 45.5 61.9006 45.5 45.332Z" fill="#D41142"/>
</svg>
