<svg width="24" height="24" viewBox="0 0 24 24" fill="none" xmlns="http://www.w3.org/2000/svg">
<path d="M3.75 19.5007C3.75 20.2964 4.06607 21.0594 4.62868 21.622C5.19129 22.1847 5.95435 22.5007 6.75 22.5007H11.0625C11.1122 22.5007 11.1599 22.481 11.1951 22.4458C11.2302 22.4106 11.25 22.363 11.25 22.3132V13.6882C11.25 13.6385 11.2302 13.5908 11.1951 13.5556C11.1599 13.5205 11.1122 13.5007 11.0625 13.5007H4.125C4.02554 13.5007 3.93016 13.5402 3.85984 13.6106C3.78951 13.6809 3.75 13.7763 3.75 13.8757V19.5007Z" fill="#262626"/>
<path d="M11.25 11.8132V6.75073H12.75V11.8132C12.75 11.863 12.7698 11.9106 12.8049 11.9458C12.8401 11.981 12.8878 12.0007 12.9375 12.0007H19.5C19.7555 12.0007 20.0091 11.9571 20.25 11.8718C20.6883 11.7162 21.0677 11.4288 21.3363 11.0491C21.6048 10.6693 21.7493 10.2158 21.75 9.75073V9.00073C21.75 8.40399 21.5129 7.83169 21.091 7.40974C20.669 6.98778 20.0967 6.75073 19.5 6.75073H17.5997C17.5834 6.75047 17.5674 6.74594 17.5533 6.73761C17.5393 6.72928 17.5277 6.71742 17.5196 6.70321C17.5116 6.689 17.5074 6.67294 17.5074 6.6566C17.5075 6.64027 17.5118 6.62424 17.52 6.6101C17.954 5.87739 18.0949 5.0077 17.9146 4.17543C17.7343 3.34315 17.246 2.60981 16.5476 2.12246C15.8492 1.63511 14.9925 1.42977 14.1491 1.54762C13.3057 1.66547 12.538 2.0978 12 2.75791C11.462 2.0978 10.6943 1.66547 9.85092 1.54762C9.00752 1.42977 8.15075 1.63511 7.4524 2.12246C6.75405 2.60981 6.26574 3.34315 6.0854 4.17543C5.90506 5.0077 6.04602 5.87739 6.48 6.6101C6.48817 6.62424 6.4925 6.64027 6.49257 6.6566C6.49263 6.67294 6.48843 6.689 6.48038 6.70321C6.47233 6.71742 6.46071 6.72928 6.44666 6.73761C6.43262 6.74594 6.41664 6.75047 6.40031 6.75073H4.5C3.90326 6.75073 3.33097 6.98778 2.90901 7.40974C2.48705 7.83169 2.25 8.40399 2.25 9.00073V9.75073C2.25066 10.2158 2.39517 10.6693 2.66372 11.0491C2.93227 11.4288 3.3117 11.7162 3.75 11.8718C3.99085 11.9571 4.24449 12.0007 4.5 12.0007H11.0625C11.1122 12.0007 11.1599 11.981 11.1951 11.9458C11.2302 11.9106 11.25 11.863 11.25 11.8132ZM12.75 4.87573C12.75 4.50489 12.86 4.14237 13.066 3.83403C13.272 3.52569 13.5649 3.28537 13.9075 3.14345C14.2501 3.00154 14.6271 2.96441 14.9908 3.03675C15.3545 3.1091 15.6886 3.28768 15.9508 3.5499C16.213 3.81213 16.3916 4.14622 16.464 4.50993C16.5363 4.87365 16.4992 5.25065 16.3573 5.59326C16.2154 5.93587 15.975 6.2287 15.6667 6.43473C15.3584 6.64076 14.9958 6.75073 14.625 6.75073H12.75V4.87573ZM9.24094 3.00541C9.49781 2.987 9.75572 3.0217 9.9986 3.10735C10.2415 3.193 10.4641 3.32777 10.6526 3.50325C10.8411 3.67873 10.9914 3.89115 11.0942 4.12729C11.197 4.36342 11.25 4.61819 11.25 4.87573V6.75073H9.375C8.89017 6.74948 8.42466 6.56048 8.07619 6.22339C7.72771 5.88631 7.52336 5.42734 7.50601 4.94281C7.48867 4.45829 7.65968 3.98588 7.98316 3.62474C8.30664 3.2636 8.75744 3.04179 9.24094 3.00588V3.00541Z" fill="#262626"/>
<path d="M12.9375 22.5007H17.25C18.0456 22.5007 18.8087 22.1847 19.3713 21.622C19.9339 21.0594 20.25 20.2964 20.25 19.5007V13.8757C20.25 13.7763 20.2105 13.6809 20.1402 13.6106C20.0698 13.5402 19.9745 13.5007 19.875 13.5007H12.9375C12.8878 13.5007 12.8401 13.5205 12.8049 13.5556C12.7698 13.5908 12.75 13.6385 12.75 13.6882V22.3132C12.75 22.363 12.7698 22.4106 12.8049 22.4458C12.8401 22.481 12.8878 22.5007 12.9375 22.5007Z" fill="#262626"/>
</svg>
