<svg width="24" height="24" viewBox="0 0 24 24" fill="none" xmlns="http://www.w3.org/2000/svg">
<path d="M12.0006 21C11.6995 20.9996 11.4055 20.9086 11.1568 20.7389C7.47293 18.2381 5.87777 16.5234 4.99793 15.4514C3.12293 13.1663 2.22527 10.8202 2.25058 8.27953C2.28011 5.36813 4.61589 3 7.45746 3C9.52371 3 10.9548 4.16391 11.7882 5.13328C11.8146 5.16368 11.8473 5.18805 11.8839 5.20476C11.9205 5.22146 11.9603 5.23011 12.0006 5.23011C12.0408 5.23011 12.0806 5.22146 12.1173 5.20476C12.1539 5.18805 12.1865 5.16368 12.2129 5.13328C13.0464 4.16297 14.4775 3 16.5437 3C19.3853 3 21.7211 5.36812 21.7506 8.28C21.7759 10.8211 20.8773 13.1672 19.0032 15.4519C18.1234 16.5239 16.5282 18.2386 12.8443 20.7394C12.5956 20.9089 12.3016 20.9998 12.0006 21Z" fill="#262626"/>
</svg>
