<svg width="24" height="24" viewBox="0 0 24 24" fill="none" xmlns="http://www.w3.org/2000/svg">
<path d="M12 21C11.7047 21 11.4141 20.9109 11.1562 20.7375C9.39375 19.5422 6.83437 17.6906 4.99687 15.45C3.12187 13.1672 2.22187 10.8188 2.25 8.27813C2.27812 5.36719 4.61719 3 7.45781 3C9.7125 3 11.2078 4.38281 12 5.39062C12.7922 4.38281 14.2875 3 16.5422 3C19.3828 3 21.7172 5.36719 21.75 8.27813C21.7734 10.8188 20.8781 13.1672 19.0031 15.45C17.1656 17.6906 14.6062 19.5422 12.8437 20.7375C12.5859 20.9156 12.2953 21 12 21ZM7.45781 4.5C5.4375 4.5 3.77344 6.20156 3.75 8.29688C3.69844 13.2 7.89375 16.7156 12 19.5C16.1062 16.7109 20.3016 13.2 20.25 8.29688C20.2266 6.20625 18.5672 4.5 16.5422 4.5C14.0109 4.5 12.6797 7.05937 12.6703 7.0875C12.5437 7.34062 12.2859 7.5 12 7.5C11.7141 7.5 11.4562 7.34063 11.3297 7.08281C11.3156 7.05938 9.98437 4.5 7.45781 4.5Z" fill="#262626"/>
</svg>
