<svg fill="none" height="24" viewBox="0 0 24 24" width="24" xmlns="http://www.w3.org/2000/svg">
    <path clip-rule="evenodd"
        d="M12.7123 12.7123C11.2479 14.1768 11.2479 16.5512 12.7123 18.0156C14.1768 19.4801 16.5512 19.4801 18.0156 18.0156C19.4801 16.5512 19.4801 14.1768 18.0156 12.7123C16.5512 11.2479 14.1768 11.2479 12.7123 12.7123ZM11.6517 19.0763C9.60141 17.026 9.60141 13.7019 11.6517 11.6517C13.7019 9.6014 17.026 9.60141 19.0763 11.6517C20.9465 13.5219 21.1107 16.452 19.569 18.5084L22.2583 21.1976C22.5512 21.4905 22.5512 21.9654 22.2583 22.2583C21.9654 22.5512 21.4905 22.5512 21.1976 22.2583L18.5084 19.569C16.452 21.1107 13.5219 20.9465 11.6517 19.0763Z"
        fill="#262626" fill-rule="evenodd" />
    <path clip-rule="evenodd"
        d="M9.66213 19.1402C9.63854 19.1053 9.61531 19.0703 9.59245 19.0351C9.61849 19.068 9.64183 19.1031 9.66213 19.1402Z"
        fill="#262626" fill-rule="evenodd" />
    <path
        d="M3 0.75C1.75736 0.75 0.75 1.75736 0.75 3V18C0.75 19.2426 1.75736 20.25 3 20.25H9.00391C9.41812 20.25 9.75391 19.9142 9.75391 19.5C9.75391 19.3696 9.72064 19.247 9.66213 19.1402C9.63854 19.1053 9.61531 19.0703 9.59245 19.0351C7.8939 16.4192 8.1916 12.8849 10.4855 10.591C13.1216 7.95496 17.3954 7.95496 20.0315 10.591C20.7798 11.3393 21.3094 12.212 21.6314 13.1474C21.7113 13.3794 21.7225 13.6371 21.8383 13.8534C21.9646 14.0894 22.2136 14.25 22.5 14.25C22.9142 14.25 23.25 13.9142 23.25 13.5V3C23.25 1.75736 22.2426 0.75 21 0.75H3Z"
        fill="#262626" />
</svg>
