<svg fill="none" height="24" viewBox="0 0 24 24" width="24" xmlns="http://www.w3.org/2000/svg">
    <path clip-rule="evenodd"
        d="M0.75 3C0.75 1.75736 1.75736 0.75 3 0.75H21C22.2426 0.75 23.25 1.75736 23.25 3V13.5C23.25 13.9142 22.9142 14.25 22.5 14.25C22.0858 14.25 21.75 13.9142 21.75 13.5V3C21.75 2.58579 21.4142 2.25 21 2.25H3C2.58579 2.25 2.25 2.58579 2.25 3V18C2.25 18.4142 2.58579 18.75 3 18.75H9C9.41421 18.75 9.75 19.0858 9.75 19.5C9.75 19.9142 9.41421 20.25 9 20.25H3C1.75736 20.25 0.75 19.2426 0.75 18V3Z"
        fill="#262626" fill-rule="evenodd" />
    <path clip-rule="evenodd"
        d="M12.7123 12.7123C11.2479 14.1768 11.2479 16.5512 12.7123 18.0156C14.1768 19.4801 16.5512 19.4801 18.0156 18.0156C19.4801 16.5512 19.4801 14.1768 18.0156 12.7123C16.5512 11.2479 14.1768 11.2479 12.7123 12.7123ZM11.6517 19.0763C9.60141 17.026 9.60141 13.7019 11.6517 11.6517C13.7019 9.6014 17.026 9.60141 19.0763 11.6517C20.9465 13.5219 21.1107 16.452 19.569 18.5084L22.2583 21.1976C22.5512 21.4905 22.5512 21.9654 22.2583 22.2583C21.9654 22.5512 21.4905 22.5512 21.1976 22.2583L18.5084 19.569C16.452 21.1107 13.5219 20.9465 11.6517 19.0763Z"
        fill="#262626" fill-rule="evenodd" />
</svg>
