<svg width="24" height="18" viewBox="0 0 24 18" fill="none" xmlns="http://www.w3.org/2000/svg">
<path d="M23.3844 17.4375C23.4142 17.4375 23.434 17.4474 23.4638 17.4574C23.4837 17.4673 23.5135 17.4772 23.5234 17.4971C23.5433 17.517 23.5532 17.5368 23.5632 17.5567C23.5731 17.5766 23.583 17.6064 23.583 17.6362C23.583 17.6659 23.5731 17.6858 23.5632 17.7156C23.5532 17.7355 23.5334 17.7653 23.5234 17.7752C23.5036 17.7951 23.4837 17.805 23.4638 17.8149C23.444 17.8249 23.4142 17.8348 23.3844 17.8348C23.3546 17.8348 23.3248 17.8249 23.3049 17.8149C23.2751 17.805 23.2552 17.7951 23.2354 17.7752C23.2155 17.7553 23.2056 17.7355 23.1956 17.7156C23.1857 17.6957 23.1758 17.6659 23.1758 17.6362C23.1758 17.6064 23.1857 17.5865 23.1956 17.5567C23.2056 17.5368 23.2155 17.517 23.2354 17.4971C23.2552 17.4772 23.2751 17.4673 23.3049 17.4574C23.3347 17.4474 23.3546 17.4375 23.3844 17.4375ZM23.3844 17.7752C23.4042 17.7752 23.4241 17.7752 23.444 17.7653C23.4638 17.7553 23.4738 17.7454 23.4936 17.7355C23.5036 17.7255 23.5135 17.7057 23.5234 17.6858C23.5334 17.6659 23.5334 17.6461 23.5334 17.6262C23.5334 17.6064 23.5334 17.5865 23.5234 17.5666C23.5135 17.5468 23.5036 17.5368 23.4936 17.517C23.4837 17.507 23.4638 17.4971 23.444 17.4872C23.4241 17.4772 23.4042 17.4772 23.3844 17.4772C23.3645 17.4772 23.3446 17.4772 23.3248 17.4872C23.3049 17.4971 23.295 17.507 23.2751 17.517C23.2652 17.5269 23.2552 17.5468 23.2453 17.5666C23.2354 17.5865 23.2354 17.6064 23.2354 17.6262C23.2354 17.6461 23.2354 17.6659 23.2453 17.6858C23.2552 17.7057 23.2652 17.7156 23.2751 17.7355C23.285 17.7454 23.3049 17.7553 23.3248 17.7653C23.3446 17.7752 23.3645 17.7752 23.3844 17.7752ZM23.4042 17.5468C23.4241 17.5468 23.444 17.5567 23.4539 17.5666C23.4638 17.5766 23.4738 17.5964 23.4738 17.6064C23.4738 17.6163 23.4738 17.6362 23.4638 17.6461C23.4539 17.656 23.444 17.6659 23.4241 17.6659L23.4738 17.7255H23.4142L23.3645 17.6659H23.3546V17.7255H23.3049V17.5468H23.4042ZM23.3645 17.5964V17.6262H23.4042C23.4142 17.6262 23.4142 17.6262 23.4241 17.6262L23.434 17.6163C23.434 17.6064 23.434 17.6064 23.4241 17.6064C23.4241 17.6064 23.4142 17.6064 23.4042 17.6064H23.3645V17.5964Z" fill="#1D1E1C"/>
<path d="M11.8721 13.9918C13.3971 13.9918 14.6334 11.4348 14.6334 8.28058C14.6334 5.12635 13.3971 2.56934 11.8721 2.56934C10.3471 2.56934 9.11084 5.12635 9.11084 8.28058C9.11084 11.4348 10.3471 13.9918 11.8721 13.9918Z" fill="#E8620B"/>
<path d="M9.11093 8.2806C9.11093 5.9663 10.1936 3.91025 11.8722 2.56935C10.6306 1.58602 9.06127 1 7.35286 1C3.33016 1 0.0722656 4.25789 0.0722656 8.2806C0.0722656 12.3033 3.33016 15.5612 7.35286 15.5612C9.06127 15.5612 10.6306 14.9752 11.8722 13.9918C10.1837 12.6609 9.11093 10.5949 9.11093 8.2806Z" fill="#E00F19"/>
<path d="M23.1753 12.2238V12.0153H23.0859V11.9557H23.3243V12.0153H23.2349V12.2238H23.1753ZM23.6322 12.2238V12.0351L23.5726 12.194H23.5031L23.4435 12.0351V12.2238H23.3839V11.9557H23.4733L23.5428 12.1344L23.6124 11.9557H23.7018V12.2238H23.6322Z" fill="#F49C04"/>
<path d="M16.3816 1C14.6732 1 13.1039 1.58602 11.8623 2.56935C13.5409 3.90032 14.6236 5.9663 14.6236 8.2806C14.6236 10.5949 13.5409 12.6509 11.8623 13.9918C13.1039 14.9752 14.6732 15.5612 16.3816 15.5612C20.4043 15.5612 23.6622 12.3033 23.6622 8.2806C23.6622 4.25789 20.4043 1 16.3816 1Z" fill="#F49C04"/>
</svg>
