<svg width="25" height="24" viewBox="0 0 25 24" fill="none" xmlns="http://www.w3.org/2000/svg">
<path fill-rule="evenodd" clip-rule="evenodd" d="M4.46967 2.46993C4.76256 2.17704 5.23744 2.17704 5.53033 2.46993L21.2803 18.2199C21.5732 18.5128 21.5732 18.9877 21.2803 19.2806C20.9874 19.5735 20.5126 19.5735 20.2197 19.2806L4.46967 3.53059C4.17678 3.2377 4.17678 2.76283 4.46967 2.46993Z" fill="white"/>
<path d="M19.25 11.2503V9.77136C19.25 9.36776 18.9397 9.02136 18.5361 9.0012C18.4347 8.99631 18.3333 9.01207 18.2382 9.04751C18.1431 9.08294 18.0561 9.13733 17.9826 9.20737C17.9091 9.2774 17.8506 9.36163 17.8106 9.45495C17.7706 9.54827 17.75 9.64874 17.75 9.75026V11.2503C17.7502 11.6175 17.7117 11.9837 17.6352 12.3429C17.6285 12.3736 17.6297 12.4055 17.6384 12.4357C17.6472 12.4659 17.6633 12.4935 17.6853 12.5159L18.7081 13.5382C18.7192 13.5493 18.733 13.5575 18.7481 13.5619C18.7631 13.5663 18.7791 13.5669 18.7945 13.5635C18.8098 13.5602 18.8241 13.553 18.8359 13.5427C18.8478 13.5324 18.8569 13.5192 18.8623 13.5045C19.1195 12.7808 19.2506 12.0183 19.25 11.2503Z" fill="white"/>
<path d="M12.5 16.5003C11.109 16.4958 9.77621 15.9413 8.7926 14.9577C7.809 13.9741 7.25445 12.6413 7.25 11.2503V9.77136C7.25 9.36776 6.93969 9.02136 6.53609 9.0012C6.43469 8.99631 6.33334 9.01207 6.2382 9.04751C6.14307 9.08294 6.05611 9.13733 5.98261 9.20737C5.90911 9.2774 5.8506 9.36163 5.81062 9.45495C5.77063 9.54827 5.75001 9.64874 5.75 9.75026V11.2503C5.75 14.719 8.37969 17.584 11.75 17.9585V20.2503H9.52109C9.1175 20.2503 8.77109 20.5606 8.75094 20.9642C8.74605 21.0656 8.76181 21.1669 8.79724 21.2621C8.83268 21.3572 8.88707 21.4442 8.9571 21.5176C9.02714 21.5911 9.11137 21.6497 9.20469 21.6896C9.29801 21.7296 9.39848 21.7503 9.5 21.7503H15.4789C15.8825 21.7503 16.2289 21.4399 16.2491 21.0364C16.2539 20.9349 16.2382 20.8336 16.2028 20.7385C16.1673 20.6433 16.1129 20.5564 16.0429 20.4829C15.9729 20.4094 15.8886 20.3509 15.7953 20.3109C15.702 20.2709 15.6015 20.2503 15.5 20.2503H13.25V17.9585C14.1037 17.8635 14.9312 17.6054 15.6875 17.1982C15.7132 17.1843 15.7352 17.1645 15.7519 17.1405C15.7685 17.1166 15.7794 17.089 15.7835 17.0601C15.7877 17.0312 15.785 17.0017 15.7757 16.974C15.7665 16.9463 15.7509 16.9212 15.7302 16.9006L14.8906 16.061C14.8634 16.0341 14.8285 16.0161 14.7907 16.0095C14.7529 16.003 14.714 16.0082 14.6792 16.0245C13.9959 16.3391 13.2523 16.5014 12.5 16.5003Z" fill="white"/>
<path d="M12.5 3.75026C12.7969 3.74506 13.0918 3.7997 13.3672 3.91093C13.6425 4.02216 13.8926 4.1877 14.1026 4.39767C14.3126 4.60765 14.4781 4.85777 14.5893 5.1331C14.7006 5.40844 14.7552 5.70335 14.75 6.00026V9.50276C14.7501 9.55234 14.7698 9.59987 14.8048 9.63495L16.0902 10.9221C16.1033 10.9352 16.12 10.9441 16.1382 10.9476C16.1564 10.9512 16.1752 10.9493 16.1923 10.9422C16.2094 10.9351 16.224 10.923 16.2343 10.9076C16.2445 10.8922 16.25 10.8741 16.25 10.8556V6.04292C16.25 3.98464 14.6094 2.27839 12.5534 2.25026C11.9167 2.23858 11.2875 2.38995 10.7257 2.68999C10.164 2.99003 9.6883 3.42876 9.34391 3.96448C9.32068 4.00055 9.31052 4.04349 9.31512 4.08614C9.31973 4.1288 9.33882 4.16858 9.36922 4.19886L10.2852 5.11479C10.296 5.1256 10.3093 5.13358 10.324 5.13804C10.3386 5.14251 10.3541 5.14332 10.3692 5.14041C10.3842 5.13749 10.3983 5.13094 10.4102 5.12133C10.4221 5.11172 10.4315 5.09934 10.4375 5.08526C10.6121 4.68472 10.9008 4.3445 11.2676 4.10707C11.6345 3.86965 12.0631 3.74554 12.5 3.75026Z" fill="white"/>
<path d="M10.2158 11.3862L8.90984 10.0784C8.89671 10.0653 8.87999 10.0565 8.86182 10.0529C8.84364 10.0493 8.82481 10.0512 8.80771 10.0583C8.79061 10.0655 8.776 10.0775 8.76573 10.0929C8.75546 10.1083 8.74999 10.1264 8.75 10.1449V11.2034C8.75068 12.2026 9.14571 13.1611 9.84922 13.8706C10.3106 14.3503 10.8933 14.696 11.5355 14.8709C12.1776 15.0458 12.8552 15.0433 13.4961 14.8639C13.5119 14.8594 13.5262 14.8509 13.5377 14.8391C13.5492 14.8274 13.5574 14.8128 13.5614 14.7969C13.5655 14.781 13.5654 14.7644 13.561 14.7485C13.5566 14.7327 13.5481 14.7183 13.5364 14.7068L12.3687 13.5392C12.3381 13.5089 12.2981 13.4899 12.2553 13.4853C11.2405 13.3671 10.4047 12.5271 10.2692 11.4964C10.2642 11.4547 10.2454 11.4159 10.2158 11.3862Z" fill="white"/>
</svg>
