<svg width="25" height="24" viewBox="0 0 25 24" fill="none" xmlns="http://www.w3.org/2000/svg">
<path fill-rule="evenodd" clip-rule="evenodd" d="M6.5 9.00016C6.91421 9.00016 7.25 9.33595 7.25 9.75016V11.2502C7.25 14.1359 9.61421 16.5002 12.5 16.5002C15.3858 16.5002 17.75 14.1359 17.75 11.2502V9.75016C17.75 9.33595 18.0858 9.00016 18.5 9.00016C18.9142 9.00016 19.25 9.33595 19.25 9.75016V11.2502C19.25 14.711 16.6143 17.5828 13.25 17.9585V20.2502H15.5C15.9142 20.2502 16.25 20.5859 16.25 21.0002C16.25 21.4144 15.9142 21.7502 15.5 21.7502H9.5C9.08579 21.7502 8.75 21.4144 8.75 21.0002C8.75 20.5859 9.08579 20.2502 9.5 20.2502H11.75V17.9585C8.38568 17.5828 5.75 14.711 5.75 11.2502V9.75016C5.75 9.33595 6.08579 9.00016 6.5 9.00016Z" fill="white"/>
<path fill-rule="evenodd" clip-rule="evenodd" d="M12.5019 2.25016C14.6027 2.25114 16.25 3.89907 16.25 6.00016V11.2033C16.25 13.2974 14.5624 15.0002 12.5 15.0002C10.4317 15.0002 8.75 13.2539 8.75 11.2033V6.00194C8.74778 5.50897 8.84317 5.02043 9.03068 4.5645C9.21845 4.10794 9.49485 3.69314 9.84392 3.34408C10.193 2.99501 10.6078 2.71861 11.0643 2.53084C11.5203 2.34332 12.0089 2.24793 12.5019 2.25016ZM12.4962 3.75015C12.2008 3.74866 11.9081 3.80575 11.6349 3.9181C11.3617 4.03046 11.1135 4.19586 10.9046 4.40474C10.6957 4.61362 10.5303 4.86183 10.4179 5.13503C10.3056 5.40823 10.2485 5.70099 10.25 5.99638L10.25 6.00016V11.2033C10.25 12.4527 11.2871 13.5002 12.5 13.5002C13.7189 13.5002 14.75 12.4842 14.75 11.2033V6.00016C14.75 4.72687 13.7733 3.75016 12.5 3.75016L12.4962 3.75015Z" fill="white"/>
</svg>
