<svg fill="none" height="24" viewBox="0 0 24 24" width="24" xmlns="http://www.w3.org/2000/svg">
    <path
        d="M11.1563 20.7375C11.4141 20.9109 11.7047 21 12 21C12.2953 21 12.5859 20.9156 12.8438 20.7375C14.6063 19.5422 17.1656 17.6906 19.0031 15.45C20.8781 13.1672 21.7734 10.8188 21.75 8.27813C21.7172 5.36719 19.3828 3 16.5422 3C14.2875 3 12.7922 4.38281 12 5.39062C11.2078 4.38281 9.7125 3 7.45781 3C4.97745 3 2.87949 4.80483 2.36852 7.20056C2.2772 7.6287 2.62938 8 3.06715 8C3.46155 8 3.7826 7.69489 3.88537 7.31411C4.32254 5.69442 5.76514 4.5 7.45781 4.5C9.92753 4.5 11.2551 6.94551 11.3267 7.07744C11.3284 7.08047 11.3297 7.08281 11.3297 7.08281C11.4563 7.34063 11.7141 7.5 12 7.5C12.2859 7.5 12.5437 7.34062 12.6703 7.0875C12.6797 7.05937 14.0109 4.5 16.5422 4.5C18.5672 4.5 20.2266 6.20625 20.25 8.29688C20.3016 13.2 16.1063 16.7109 12 19.5C9.15706 17.5723 6.27142 15.294 4.78207 12.4474C4.6411 12.178 4.36712 12 4.06305 12C3.51516 12 3.14155 12.5499 3.39157 13.0375C3.8099 13.8531 4.34435 14.6555 4.99688 15.45C6.83438 17.6906 9.39375 19.5422 11.1563 20.7375Z"
        fill="#262626" />
    <path clip-rule="evenodd"
        d="M6.70803 8.28033C6.41513 7.98744 6.41513 7.51256 6.70803 7.21967C7.00092 6.92678 7.47579 6.92678 7.76869 7.21967L10.0616 9.51256C10.3545 9.80546 10.3545 10.2803 10.0616 10.5732L7.76869 12.8661C7.47579 13.159 7.00092 13.159 6.70803 12.8661C6.41513 12.5732 6.41513 12.0984 6.70803 11.8055L7.72059 10.7929L0.749999 10.7929C0.335786 10.7929 3.0223e-07 10.4571 2.66018e-07 10.0429C2.29806e-07 9.62868 0.335787 9.29289 0.75 9.29289L7.72059 9.29289L6.70803 8.28033Z"
        fill="#262626" fill-rule="evenodd" />
</svg>
