<svg width="120" height="121" viewBox="0 0 120 121" fill="none" xmlns="http://www.w3.org/2000/svg">
<path d="M60.0018 120.283C58.4406 120.283 57.1636 119.006 57.1636 117.445V72.7111C57.1636 71.1499 58.4407 69.8729 60.0018 69.8729C61.5629 69.8729 62.84 71.15 62.84 72.7111V117.445C62.84 119.02 61.5629 120.283 60.0018 120.283Z" fill="#1F3A6C"/>
<path d="M60.0005 75.5493C51.5561 75.5493 44.6865 68.68 44.6865 60.2353C44.6865 51.7909 51.5558 44.9214 60.0005 44.9214C68.4449 44.9223 75.3145 51.8056 75.3145 60.25C75.3145 68.6808 68.4452 75.5491 60.0005 75.5491V75.5493ZM60.0005 50.6137C54.6923 50.6137 50.3642 54.9279 50.3642 60.25C50.3642 65.5582 54.6784 69.8863 60.0005 69.8863C65.3226 69.8863 69.6368 65.5721 69.6368 60.25C69.6368 54.9419 65.3087 50.6137 60.0005 50.6137Z" fill="#1F3A6C"/>
<path d="M79.6142 82.7012C78.8905 82.7012 78.1669 82.4171 77.6135 81.8637C76.5067 80.7569 76.5067 78.9543 77.6135 77.8473C87.3213 68.1395 87.3213 52.329 77.6135 42.6225C67.9057 32.9148 52.0953 32.9148 42.3888 42.6225C32.681 52.3303 32.681 68.1408 42.3888 77.8473C43.4956 78.9541 43.4956 80.7567 42.3888 81.8637C41.282 82.9705 39.4793 82.9705 38.3723 81.8637C26.4511 69.9424 26.4511 50.5418 38.3723 38.6051C50.2936 26.6838 69.6942 26.6838 81.6309 38.6051C93.5522 50.5264 93.5522 69.927 81.6309 81.8637C81.0775 82.4309 80.3538 82.7012 79.6153 82.7012H79.6142Z" fill="#1F3A6C"/>
<path d="M29.6571 93.4316C28.9334 93.4316 28.2098 93.1475 27.6564 92.5941C18.998 83.9507 14.2441 72.4689 14.2441 60.2509C14.2441 48.0328 18.9991 36.5498 27.6414 27.9203C36.2848 19.277 47.7655 14.5231 59.9846 14.5231C72.2039 14.5231 83.6857 19.278 92.3151 27.9203C100.958 36.5637 105.712 48.0445 105.712 60.2635C105.712 72.4828 100.957 83.9647 92.3151 92.5941C91.2083 93.7009 89.4057 93.7009 88.2987 92.5941C87.1919 91.4873 87.1919 89.6847 88.2987 88.5777C95.8632 81.0271 100.036 70.965 100.036 60.264C100.036 49.5631 95.8629 39.5002 88.2987 31.9352C80.7342 24.3707 70.6861 20.1982 59.9851 20.1982C49.2844 20.1982 39.2213 24.371 31.6436 31.9352C24.0931 39.4997 19.9203 49.5479 19.9203 60.2488C19.9203 70.9498 24.0931 81.0127 31.6573 88.5777C32.7641 89.6844 32.7641 91.4871 31.6573 92.5941C31.1039 93.1475 30.3802 93.4316 29.6566 93.4316H29.6571Z" fill="#1F3A6C"/>
<path d="M100.449 103.521C99.7251 103.521 99.0014 103.237 98.448 102.683C97.3412 101.576 97.3412 99.7738 98.448 98.6668C119.637 77.4775 119.637 42.99 98.448 21.8004C77.2587 0.610837 42.7712 0.61109 21.5816 21.8004C0.392019 42.9898 0.392272 77.4773 21.5816 98.6668C22.6884 99.7736 22.6884 101.576 21.5816 102.683C20.4748 103.79 18.6722 103.79 17.5652 102.683C-5.85259 79.2951 -5.85259 41.2028 17.5503 17.8007C40.9533 -5.60132 79.046 -5.60234 102.448 17.8007C125.85 41.2038 125.851 79.2964 102.448 102.698C101.895 103.252 101.171 103.521 100.447 103.521L100.449 103.521Z" fill="#1F3A6C"/>
</svg>
