<svg width="25" height="24" viewBox="0 0 25 24" fill="none" xmlns="http://www.w3.org/2000/svg">
<path fill-rule="evenodd" clip-rule="evenodd" d="M9.34843 3.77601C9.68388 2.64942 10.6677 1.5 12.1249 1.5C13.5825 1.5 14.5654 2.64947 14.9034 3.77394C14.9051 3.77603 14.9073 3.77868 14.9103 3.78172C14.9172 3.78895 14.925 3.79559 14.9325 3.80075C14.9381 3.80467 14.9415 3.80636 14.9419 3.80656C15.7902 4.15582 16.7886 4.71371 17.5696 5.73514C18.3568 6.76478 18.8688 8.19413 18.8688 10.1883C18.8688 12.1765 19.0786 13.2668 19.3875 14.0153C19.6584 14.6716 20.0145 15.103 20.5213 15.7168C20.5953 15.8065 20.6726 15.9 20.7532 15.9987L20.7534 15.999C21.6875 17.1431 20.8055 18.75 19.3667 18.75H15.8749C15.8749 19.7446 15.4798 20.6984 14.7766 21.4016C14.0733 22.1049 13.1195 22.5 12.1249 22.5C11.1304 22.5 10.1765 22.1049 9.47328 21.4016C8.77002 20.6984 8.37493 19.7446 8.37493 18.75H4.8879C3.45174 18.75 2.55486 17.1513 3.49664 15.9987C3.57735 15.9 3.65464 15.8063 3.72871 15.7166C4.23544 15.1029 4.59165 14.6714 4.86273 14.0151C5.17192 13.2666 5.38219 12.1763 5.38337 10.1883M9.87493 18.75C9.87493 19.3467 10.112 19.919 10.5339 20.341C10.9559 20.7629 11.5282 21 12.1249 21C12.7217 21 13.294 20.7629 13.7159 20.341C14.1379 19.919 14.3749 19.3467 14.3749 18.75H9.87493ZM4.8879 17.25C4.73375 17.25 4.66436 17.1791 4.63648 17.1245C4.62043 17.093 4.61562 17.0625 4.61793 17.0369C4.61997 17.0144 4.62833 16.9844 4.65818 16.9479L4.65822 16.9478C4.73066 16.8592 4.80364 16.7712 4.8767 16.6832C5.37944 16.0772 5.88614 15.4666 6.24912 14.5878C6.66636 13.5776 6.88217 12.2622 6.88337 10.1887V10.1883C6.88337 8.46069 7.32068 7.36809 7.87351 6.64523C8.43253 5.91428 9.16498 5.48863 9.88144 5.19357L9.88161 5.1935C10.2635 5.03643 10.6445 4.68648 10.7821 4.21761L10.7826 4.21574C10.996 3.48152 11.5475 3 12.1249 3C12.7024 3 13.254 3.48116 13.4702 4.2169L13.4708 4.2188C13.6076 4.67986 13.9845 5.03471 14.3707 5.19353C15.0856 5.48786 15.8184 5.91434 16.3779 6.64619C16.9312 7.3699 17.3688 8.4629 17.3688 10.1883C17.3688 12.2617 17.584 13.5773 18.001 14.5876C18.3637 15.4665 18.8705 16.0773 19.3733 16.6833C19.4463 16.7713 19.5192 16.8592 19.5916 16.9478C19.6386 17.0055 19.6424 17.0652 19.6119 17.1254C19.5835 17.1814 19.5152 17.25 19.3667 17.25H4.8879ZM9.34843 3.77601C9.34714 3.77755 9.34552 3.77936 9.34354 3.78141C9.33715 3.78803 9.32961 3.79442 9.32208 3.79961C9.31509 3.80443 9.3109 3.80631 9.3109 3.80631L9.31044 3.8065C8.4618 4.15597 7.463 4.71281 6.68202 5.73399C5.89487 6.76324 5.38344 8.19238 5.38337 10.1878" fill="#262626"/>
</svg>
