<svg width="25" height="25" viewBox="0 0 25 25" fill="none" xmlns="http://www.w3.org/2000/svg">
<path d="M20.7536 16.4989C20.6758 16.4052 20.5994 16.3114 20.5244 16.2209C19.4932 14.9736 18.8693 14.2208 18.8693 10.6897C18.8693 8.86156 18.4319 7.36156 17.5699 6.23656C16.9343 5.40547 16.0751 4.775 14.9426 4.30906C14.928 4.30096 14.915 4.29032 14.9041 4.27766C14.4968 2.91359 13.3821 2 12.1249 2C10.8677 2 9.75349 2.91359 9.34615 4.27625C9.33527 4.28845 9.32244 4.29875 9.30818 4.30672C6.66536 5.39469 5.38099 7.48203 5.38099 10.6883C5.38099 14.2208 4.75802 14.9736 3.72583 16.2195C3.65083 16.31 3.57443 16.4019 3.49661 16.4975C3.29561 16.7399 3.16826 17.0348 3.12964 17.3473C3.09101 17.6598 3.14272 17.9769 3.27865 18.2609C3.56786 18.8703 4.18427 19.2486 4.88786 19.2486H19.3671C20.0674 19.2486 20.6796 18.8708 20.9697 18.2642C21.1063 17.9801 21.1585 17.6628 21.1202 17.3499C21.0819 17.037 20.9547 16.7417 20.7536 16.4989Z" fill="#262626"/>
<path d="M12.1249 23C12.8023 22.9995 13.4668 22.8156 14.0482 22.4679C14.6295 22.1202 15.1059 21.6217 15.4268 21.0252C15.4419 20.9966 15.4494 20.9646 15.4484 20.9322C15.4475 20.8999 15.4383 20.8684 15.4216 20.8407C15.4049 20.813 15.3813 20.7901 15.3531 20.7742C15.325 20.7583 15.2932 20.75 15.2608 20.75H8.9899C8.95752 20.7499 8.92566 20.7582 8.89743 20.774C8.8692 20.7899 8.84555 20.8128 8.8288 20.8405C8.81204 20.8682 8.80274 20.8997 8.80181 20.9321C8.80088 20.9645 8.80835 20.9965 8.82349 21.0252C9.14436 21.6216 9.62067 22.1201 10.2019 22.4678C10.7831 22.8155 11.4476 22.9994 12.1249 23Z" fill="#262626"/>
</svg>
