<svg width="25" height="24" viewBox="0 0 25 24" fill="none" xmlns="http://www.w3.org/2000/svg">
<path fill-rule="evenodd" clip-rule="evenodd" d="M17.4395 1.93918C17.7208 1.65797 18.1022 1.5 18.5 1.5C18.8977 1.5 19.2792 1.65797 19.5605 1.93918L22.5605 4.93918C22.8417 5.22047 22.9997 5.60193 22.9997 5.99968C22.9997 6.39743 22.8417 6.77889 22.5605 7.06018L9.0605 20.5602C8.89628 20.7249 8.696 20.8492 8.4755 20.9232L3.9755 22.4232C3.71112 22.5117 3.4273 22.5248 3.1559 22.461C2.88449 22.3971 2.63625 22.2589 2.43903 22.0619C2.2418 21.8648 2.10341 21.6167 2.03937 21.3453C1.97533 21.074 1.98819 20.7901 2.0765 20.5257L3.5765 16.0257C3.6503 15.8046 3.77458 15.6038 3.9395 15.4392L17.4395 1.93918ZM18.5 2.99968L21.5 5.99968L8 19.4997L3.5 20.9997L5 16.4997L18.5 2.99968Z" fill="black"/>
<path fill-rule="evenodd" clip-rule="evenodd" d="M18.719 9.53075L14.969 5.78075L16.031 4.71875L19.781 8.46875L18.7205 9.53075H18.719ZM5 14.9998V15.7498C5 15.9487 5.07902 16.1394 5.21967 16.2801C5.36032 16.4207 5.55109 16.4998 5.75 16.4998H6.5V17.2498C6.5 17.4487 6.57902 17.6394 6.71967 17.7801C6.86032 17.9207 7.05109 17.9998 7.25 17.9998H8V18.7498C8 18.9487 8.07902 19.1394 8.21967 19.2801C8.36032 19.4207 8.55109 19.4998 8.75 19.4998H9.5V17.2498C9.5 17.0508 9.42098 16.8601 9.28033 16.7194C9.13968 16.5788 8.94891 16.4998 8.75 16.4998H8V15.7498C8 15.5508 7.92098 15.3601 7.78033 15.2194C7.63968 15.0788 7.44891 14.9998 7.25 14.9998H5Z" fill="black"/>
</svg>
