<svg fill="none" height="24" viewBox="0 0 24 24" width="24" xmlns="http://www.w3.org/2000/svg">
    <path clip-rule="evenodd"
        d="M16.2329 2.64587C16.5142 2.36467 16.8957 2.20669 17.2934 2.20669C17.6912 2.20669 18.0726 2.36467 18.3539 2.64587L21.3539 5.64587C21.6351 5.92717 21.7931 6.30863 21.7931 6.70637C21.7931 7.10412 21.6351 7.48558 21.3539 7.76687L9.26814 19.8527C9.10392 20.0174 8.90365 20.1417 8.68314 20.2157L4.18314 21.7157C3.91876 21.8042 3.63494 21.8173 3.36354 21.7534C3.09214 21.6896 2.84389 21.5514 2.64667 21.3543C2.44945 21.1573 2.31105 20.9091 2.24701 20.6378C2.18298 20.3664 2.19583 20.0826 2.28414 19.8182L3.78414 15.3182C3.85794 15.0971 3.98222 14.8963 4.14714 14.7317L16.2329 2.64587ZM17.2934 3.70637L20.2934 6.70637L8.20764 18.7922L3.70764 20.2922L5.20764 15.7922L17.2934 3.70637Z"
        fill="black" fill-rule="evenodd" />
    <path clip-rule="evenodd"
        d="M17.6213 10.1286L13.8713 6.37862L14.9333 5.31662L18.6833 9.06662L17.6228 10.1286L17.6213 10.1286ZM5.31653 14.1834L5.31653 14.9334C5.31653 15.1323 5.39555 15.3231 5.5362 15.4637C5.67685 15.6044 5.86762 15.6834 6.06653 15.6834L6.81653 15.6834L6.81653 16.4334C6.81653 16.6323 6.89555 16.8231 7.0362 16.9637C7.17685 17.1044 7.36762 17.1834 7.56653 17.1834L8.31653 17.1834L8.31653 17.9334C8.31653 18.1323 8.39555 18.3231 8.5362 18.4637C8.67685 18.6044 8.86762 18.6834 9.06653 18.6834L9.81653 18.6834L9.81653 16.4334C9.81653 16.2345 9.73751 16.0437 9.59686 15.9031C9.45621 15.7624 9.26544 15.6834 9.06653 15.6834L8.31653 15.6834L8.31653 14.9334C8.31653 14.7345 8.23751 14.5437 8.09686 14.4031C7.95621 14.2624 7.76544 14.1834 7.56653 14.1834L5.31653 14.1834Z"
        fill="black" fill-rule="evenodd" />
</svg>
