<svg fill="none" height="24" viewBox="0 0 24 24" width="24" xmlns="http://www.w3.org/2000/svg">
    <path
        d="M12 12C9.52029 12 7.33591 9.67031 7.12497 6.80625C7.01716 5.35312 7.46716 4.00781 8.3906 3.01875C9.29997 2.03906 10.5844 1.5 12 1.5C13.4062 1.5 14.6859 2.04375 15.6 3.02812C16.5281 4.02656 16.9781 5.36719 16.8703 6.80625C16.6594 9.67031 14.475 12 12 12ZM12 3C11.0062 3 10.1109 3.37031 9.48747 4.04062C8.85466 4.72031 8.54529 5.66719 8.62029 6.69844C8.77029 8.76094 10.3172 10.5047 11.9953 10.5047C13.6734 10.5047 15.2203 8.76094 15.3703 6.69844C15.4453 5.68125 15.1359 4.73906 14.4937 4.05C13.875 3.37031 12.9844 3 12 3Z"
        fill="#262626" />
    <path
        d="M20.25 22.4999H3.74998C3.29998 22.4999 2.89686 22.3124 2.61561 21.9796C2.31092 21.614 2.18904 21.1171 2.27811 20.6155C2.67186 18.4218 3.90936 16.5749 5.84998 15.2859C7.57498 14.1374 9.75936 13.5046 12 13.5046C14.2406 13.5046 16.425 14.1374 18.15 15.2859C20.0906 16.5796 21.3281 18.4218 21.7219 20.6155C21.8109 21.1171 21.689 21.614 21.3844 21.9796C21.1031 22.3124 20.7 22.4999 20.25 22.4999ZM3.75936 20.9999H20.2406C20.25 20.9765 20.2547 20.939 20.2453 20.878C19.5187 16.8421 15.4594 14.9999 12 14.9999C8.54061 14.9999 4.48123 16.8421 3.75467 20.878C3.74529 20.939 3.74998 20.9765 3.75936 20.9999Z"
        fill="#262626" />
</svg>
