<svg width="24" height="24" viewBox="0 0 24 24" fill="none" xmlns="http://www.w3.org/2000/svg">
<path fill-rule="evenodd" clip-rule="evenodd" d="M5.32136 3.64873C5.82377 3.32174 6.49506 3.26055 7.08764 3.6144L7.08797 3.6146L18.7084 10.5695C18.7085 10.5696 18.7086 10.5696 18.7086 10.5696C19.2547 10.8964 19.4995 11.4724 19.4995 12.0002C19.4995 12.528 19.2547 13.104 18.7086 13.4308C18.7086 13.4308 18.7085 13.4308 18.7084 13.4309L7.08829 20.3856L7.08797 20.3858L7.08764 20.386C6.49506 20.7399 5.82377 20.6787 5.32136 20.3517C4.82529 20.0288 4.5 19.4569 4.5 18.7971V5.20333C4.5 4.54351 4.82529 3.97158 5.32136 3.64873ZM6.13958 4.90591C6.07315 4.94915 6 5.04566 6 5.20333V18.7971C6 18.9548 6.07315 19.0513 6.13958 19.0945C6.17332 19.1165 6.20401 19.1244 6.22775 19.1253C6.24868 19.126 6.2782 19.1223 6.31861 19.0982L17.9384 12.1436C17.9604 12.1305 17.9995 12.0895 17.9995 12.0002C17.9995 11.911 17.9604 11.8699 17.9384 11.8568L6.31861 4.90226C6.31854 4.90223 6.31848 4.90219 6.31842 4.90215C6.27811 4.87812 6.24865 4.87437 6.22775 4.87516C6.20401 4.87607 6.17332 4.88395 6.13958 4.90591Z" fill="#262626"/>
</svg>
