<svg width="25" height="24" viewBox="0 0 25 24" fill="none" xmlns="http://www.w3.org/2000/svg">
<g clip-path="url(#clip0_3659_59869)">
<path d="M7.95479 21.75C7.41573 21.75 6.88135 21.5484 6.47354 21.1406L0.98916 15.6562C0.173535 14.8359 0.173535 13.5047 0.98916 12.6891L12.5064 1.16719C12.7782 0.9 13.1345 0.75 13.5142 0.75H19.2892C19.847 0.754688 20.372 0.975 20.7657 1.36875C21.1595 1.76719 21.3751 2.29219 21.3704 2.85V8.61094C21.3704 8.99062 21.2251 9.34688 20.9579 9.61875L9.44073 21.1359C9.03291 21.5437 8.49385 21.75 7.95479 21.75ZM13.547 2.25L2.04854 13.7438C1.81885 13.9781 1.81885 14.3578 2.04854 14.5922L7.53291 20.0766C7.76729 20.3062 8.14698 20.3062 8.38135 20.0766L19.8751 8.5875V2.85C19.8751 2.51719 19.6126 2.25 19.2845 2.25H13.547Z" fill="#262626"/>
<path d="M16.8751 6.75C16.0454 6.75 15.3751 6.07969 15.3751 5.25C15.3751 4.42031 16.0454 3.75 16.8751 3.75C17.7048 3.75 18.3751 4.42031 18.3751 5.25C18.3751 6.07969 17.7048 6.75 16.8751 6.75Z" fill="#262626"/>
<path d="M11.1563 23.25C10.9642 23.25 10.772 23.175 10.6267 23.0297C10.336 22.7391 10.336 22.2609 10.6267 21.9703L22.8751 9.72187V3.75C22.8751 3.3375 23.2126 3 23.6251 3C24.0376 3 24.3751 3.3375 24.3751 3.75V9.74531C24.3798 10.1203 24.2345 10.4813 23.972 10.7484L11.6907 23.0297C11.5407 23.175 11.3485 23.25 11.1563 23.25Z" fill="#262626"/>
</g>
<defs>
<clipPath id="clip0_3659_59869">
<rect width="24" height="24" fill="white" transform="translate(0.375)"/>
</clipPath>
</defs>
</svg>
