<svg width="25" height="25" viewBox="0 0 25 25" fill="none" xmlns="http://www.w3.org/2000/svg">
<g clip-path="url(#clip0_3659_63561)">
<path d="M21.3744 9.11563V3.35C21.3753 3.07434 21.3217 2.80122 21.2168 2.54632C21.1118 2.29142 20.9575 2.05976 20.7628 1.86464C20.5681 1.66952 20.3367 1.51478 20.082 1.40931C19.8273 1.30383 19.5543 1.24969 19.2787 1.25H13.5163C13.1385 1.25078 12.7762 1.40051 12.508 1.66672L0.988033 13.1834C0.595134 13.5776 0.374512 14.1114 0.374512 14.668C0.374512 15.2245 0.595134 15.7583 0.988033 16.1525L6.47241 21.6369C6.86643 22.0299 7.40021 22.2506 7.95671 22.2506C8.5132 22.2506 9.04698 22.0299 9.441 21.6369L20.9577 10.1239C21.224 9.85582 21.3738 9.49349 21.3744 9.11563ZM16.8744 7.25C16.5778 7.25 16.2878 7.16203 16.0411 6.99721C15.7944 6.83238 15.6022 6.59812 15.4886 6.32403C15.3751 6.04994 15.3454 5.74834 15.4033 5.45737C15.4611 5.16639 15.604 4.89912 15.8138 4.68934C16.0236 4.47956 16.2908 4.3367 16.5818 4.27882C16.8728 4.22095 17.1744 4.25065 17.4485 4.36418C17.7226 4.47771 17.9568 4.66997 18.1216 4.91665C18.2865 5.16332 18.3744 5.45333 18.3744 5.75C18.3744 6.14783 18.2164 6.52936 17.9351 6.81066C17.6538 7.09197 17.2723 7.25 16.8744 7.25Z" fill="#262626"/>
<path d="M23.6244 3.5C23.4255 3.5 23.2348 3.57902 23.0941 3.71967C22.9535 3.86032 22.8744 4.05109 22.8744 4.25V10.2205L10.6255 22.4698C10.553 22.5388 10.4949 22.6216 10.4548 22.7133C10.4148 22.805 10.3935 22.9039 10.3922 23.004C10.3909 23.1041 10.4097 23.2034 10.4474 23.2962C10.4851 23.3889 10.541 23.4731 10.6118 23.5439C10.6826 23.6147 10.7668 23.6706 10.8595 23.7083C10.9523 23.746 11.0516 23.7648 11.1517 23.7635C11.2518 23.7622 11.3506 23.7409 11.4424 23.7008C11.5341 23.6608 11.6169 23.6027 11.6858 23.5302L23.9671 11.2489C24.0977 11.1177 24.201 10.9618 24.2709 10.7903C24.3409 10.6188 24.376 10.4352 24.3744 10.25V4.25C24.3744 4.05109 24.2954 3.86032 24.1548 3.71967C24.0141 3.57902 23.8234 3.5 23.6244 3.5Z" fill="#262626"/>
</g>
<defs>
<clipPath id="clip0_3659_63561">
<rect width="24" height="24" fill="white" transform="translate(0.375 0.5)"/>
</clipPath>
</defs>
</svg>
