<svg fill="none" height="24" viewBox="0 0 25 24" width="25" xmlns="http://www.w3.org/2000/svg">
    <path clip-rule="evenodd"
        d="M21.5671 6.38897C21.5954 6.37246 21.6189 6.34882 21.6352 6.3204C21.6515 6.29199 21.6601 6.25979 21.6601 6.22702C21.6601 6.19425 21.6515 6.16205 21.6352 6.13364C21.6189 6.10522 21.5954 6.08158 21.5671 6.06507L14.4074 1.90538C13.9493 1.63984 13.4292 1.5 12.8997 1.5C12.3702 1.5 11.8501 1.63984 11.3919 1.90538L9.40043 3.06265L18.3172 8.30118L21.5671 6.38897ZM17.3889 10.5892V13.5036C17.3889 13.9178 17.7247 14.2536 18.1389 14.2536C18.5531 14.2536 18.8889 13.9178 18.8889 13.5036V9.7088L22.3687 7.66632C22.3971 7.64989 22.4294 7.64122 22.4622 7.6412C22.4951 7.64117 22.5274 7.64977 22.5559 7.66615C22.5844 7.68253 22.608 7.70611 22.6245 7.73452C22.641 7.76293 22.6498 7.79518 22.6499 7.82804V15.9791C22.6487 16.3716 22.545 16.7569 22.3488 17.0968C22.1527 17.4368 21.8711 17.7195 21.5319 17.9169L13.9312 22.4746C13.9027 22.491 13.8704 22.4997 13.8375 22.4997C13.8046 22.4997 13.7722 22.4911 13.7437 22.4746C13.7152 22.4582 13.6916 22.4346 13.6751 22.4061C13.6586 22.3776 13.6499 22.3453 13.6499 22.3124V12.8905C13.65 12.8577 13.6587 12.8255 13.6752 12.7972C13.6916 12.7688 13.7153 12.7452 13.7437 12.7288L17.3889 10.5892ZM16.8377 9.17169L12.9965 11.4318C12.9676 11.4488 12.9348 11.4577 12.9013 11.4577C12.8678 11.4577 12.835 11.4488 12.8062 11.4318L4.23366 6.38897C4.20535 6.37246 4.18187 6.34882 4.16555 6.3204C4.14923 6.29199 4.14064 6.25979 4.14064 6.22702C4.14064 6.19425 4.14923 6.16205 4.16555 6.13364C4.18187 6.10522 4.20535 6.08158 4.23366 6.06507L7.91172 3.92774L16.8377 9.17169ZM3.43116 7.66444C3.40256 7.64793 3.37012 7.63927 3.3371 7.63932C3.30409 7.63937 3.27167 7.64814 3.24313 7.66474C3.21459 7.68134 3.19094 7.70519 3.17457 7.73386C3.1582 7.76253 3.14969 7.79502 3.14991 7.82804V15.9791C3.15061 16.3719 3.25414 16.7577 3.45019 17.0981C3.64625 17.4385 3.92799 17.7216 4.26741 17.9193L11.8687 22.4769C11.8971 22.4934 11.9295 22.5021 11.9624 22.5021C11.9953 22.5021 12.0276 22.4934 12.0561 22.477C12.0846 22.4606 12.1082 22.4369 12.1247 22.4084C12.1412 22.38 12.1499 22.3477 12.1499 22.3148V12.8577C12.1499 12.8248 12.1412 12.7925 12.1247 12.7641C12.1083 12.7356 12.0846 12.712 12.0562 12.6955L3.43116 7.66444Z"
        fill="#262626" fill-rule="evenodd" />
</svg>
