<svg width="161" height="111" viewBox="0 0 161 111" fill="none" xmlns="http://www.w3.org/2000/svg">
<path d="M80.4957 65.5063C86.0185 65.5063 90.4957 61.0292 90.4957 55.5063C90.4957 49.9835 86.0185 45.5063 80.4957 45.5063C74.9728 45.5063 70.4957 49.9835 70.4957 55.5063C70.4957 61.0292 74.9728 65.5063 80.4957 65.5063Z" fill="#D41142"/>
<path fill-rule="evenodd" clip-rule="evenodd" d="M61.3946 31.8403C63.459 33.6743 63.6458 36.8346 61.8117 38.899C57.7466 43.4747 55.5013 49.3826 55.5013 55.5032C55.5013 61.6238 57.7466 67.5317 61.8117 72.1073C63.6458 74.1717 63.459 77.3321 61.3946 79.1661C59.3302 81.0001 56.1699 80.8134 54.3359 78.749C48.6448 72.3431 45.5013 64.072 45.5013 55.5032C45.5013 46.9344 48.6448 38.6633 54.3359 32.2573C56.1699 30.1929 59.3302 30.0062 61.3946 31.8403Z" fill="#D41142"/>
<path fill-rule="evenodd" clip-rule="evenodd" d="M99.603 31.8403C101.667 30.0062 104.828 30.1929 106.662 32.2573C112.353 38.6633 115.496 46.9344 115.496 55.5032C115.496 64.072 112.353 72.3431 106.662 78.749C104.828 80.8134 101.667 81.0001 99.603 79.1661C97.5386 77.3321 97.3518 74.1717 99.1859 72.1073C103.251 67.5317 105.496 61.6238 105.496 55.5032C105.496 49.3826 103.251 43.4747 99.1859 38.899C97.3518 36.8346 97.5386 33.6743 99.603 31.8403Z" fill="#D41142"/>
<path fill-rule="evenodd" clip-rule="evenodd" d="M45.56 15.9973C47.5773 17.883 47.6841 21.047 45.7984 23.0643C37.5745 31.8627 32.9996 43.4566 32.9996 55.5001C32.9996 67.5435 37.5745 79.1374 45.7984 87.9358C47.6841 89.9531 47.5773 93.1172 45.56 95.0028C43.5426 96.8885 40.3786 96.7817 38.4929 94.7644C28.5376 84.1137 22.9997 70.079 22.9997 55.5001C22.9997 40.9211 28.5376 26.8864 38.4929 16.2358C40.3786 14.2184 43.5426 14.1116 45.56 15.9973Z" fill="#D41142"/>
<path fill-rule="evenodd" clip-rule="evenodd" d="M115.431 15.9973C117.449 14.1116 120.613 14.2184 122.498 16.2358C132.454 26.8864 137.992 40.9211 137.992 55.5001C137.992 70.079 132.454 84.1137 122.498 94.7644C120.613 96.7817 117.449 96.8885 115.431 95.0028C113.414 93.1172 113.307 89.9531 115.193 87.9358C123.417 79.1374 127.992 67.5435 127.992 55.5001C127.992 43.4566 123.417 31.8627 115.193 23.0643C113.307 21.047 113.414 17.883 115.431 15.9973Z" fill="#D41142"/>
<path fill-rule="evenodd" clip-rule="evenodd" d="M133.105 1.76906C135.165 -0.0692868 138.326 0.110862 140.164 2.17143C153.259 16.8487 160.495 35.8306 160.495 55.5001C160.495 75.1695 153.259 94.1514 140.164 108.829C138.326 110.889 135.165 111.069 133.105 109.231C131.044 107.393 130.864 104.232 132.702 102.171C144.162 89.3264 150.495 72.7141 150.495 55.5001C150.495 38.2861 144.162 21.6737 132.702 8.82867C130.864 6.7681 131.044 3.6074 133.105 1.76906Z" fill="#D41142"/>
<path fill-rule="evenodd" clip-rule="evenodd" d="M27.8868 1.76906C29.9474 3.6074 30.1275 6.7681 28.2892 8.82867C16.8294 21.6737 10.4961 38.2861 10.4961 55.5001C10.4961 72.7141 16.8294 89.3264 28.2892 102.171C30.1275 104.232 29.9474 107.393 27.8868 109.231C25.8262 111.069 22.6655 110.889 20.8272 108.829C7.73279 94.1514 0.496094 75.1695 0.496094 55.5001C0.496094 35.8306 7.73279 16.8487 20.8272 2.17143C22.6655 0.110862 25.8262 -0.0692868 27.8868 1.76906Z" fill="#D41142"/>
</svg>
