<svg fill="none" viewBox="0 0 24 24" xmlns="http://www.w3.org/2000/svg">
    <defs>
        <clipPath id="a">
            <path d="M0 0h24v24H0z" fill="#fff" />
        </clipPath>
    </defs>
    <g clip-path="url(#a)" fill="#fff">
        <path clip-rule="evenodd"
            d="M12 22.5a10.5 10.5 0 1 0 0-21 10.5 10.5 0 0 0 0 21Zm0 1.5a12 12 0 1 0 0-24 12 12 0 0 0 0 24Z"
            fill-rule="evenodd" />
        <path
            d="M7.875 9.05h1.98c0-1.172.687-2.077 2.04-2.077 1.027 0 1.97.515 1.97 1.753 0 .952-.562 1.39-1.448 2.056-1.01.733-1.809 1.59-1.752 2.98l.01.695h1.961v-.533c0-1.076.41-1.39 1.515-2.229.914-.694 1.866-1.465 1.866-3.084 0-2.266-1.914-3.361-4.01-3.361-1.989 0-4.178.97-4.13 3.8h-.002Zm2.343 8.273c0 .8.637 1.391 1.515 1.391.913 0 1.542-.591 1.542-1.39 0-.829-.63-1.41-1.543-1.41-.877 0-1.514.582-1.514 1.41Z" />
    </g>
</svg>