<svg width="24" height="24" viewBox="0 0 24 24" fill="none" xmlns="http://www.w3.org/2000/svg">
<g clip-path="url(#clip0_4658_74837)">
<path d="M11.9994 13.5009C12.8278 13.5009 13.4994 12.8294 13.4994 12.0009C13.4994 11.1725 12.8278 10.5009 11.9994 10.5009C11.171 10.5009 10.4994 11.1725 10.4994 12.0009C10.4994 12.8294 11.171 13.5009 11.9994 13.5009Z" fill="#262626"/>
<path fill-rule="evenodd" clip-rule="evenodd" d="M9.13426 8.45104C9.44392 8.72615 9.47193 9.20019 9.19683 9.50985C8.58706 10.1962 8.25027 11.0824 8.25027 12.0005C8.25027 12.9186 8.58706 13.8048 9.19683 14.4911C9.47193 14.8008 9.44392 15.2748 9.13426 15.5499C8.8246 15.825 8.35056 15.797 8.07545 15.4874C7.22178 14.5265 6.75027 13.2858 6.75027 12.0005C6.75027 10.7152 7.22178 9.47449 8.07545 8.5136C8.35056 8.20394 8.8246 8.17593 9.13426 8.45104Z" fill="#262626"/>
<path fill-rule="evenodd" clip-rule="evenodd" d="M14.8655 8.45104C15.1752 8.17593 15.6492 8.20394 15.9243 8.5136C16.778 9.47449 17.2495 10.7152 17.2495 12.0005C17.2495 13.2858 16.778 14.5265 15.9243 15.4874C15.6492 15.797 15.1752 15.825 14.8655 15.5499C14.5559 15.2748 14.5278 14.8008 14.8029 14.4911C15.4127 13.8048 15.7495 12.9186 15.7495 12.0005C15.7495 11.0824 15.4127 10.1962 14.8029 9.50985C14.5278 9.20019 14.5559 8.72615 14.8655 8.45104Z" fill="#262626"/>
<path fill-rule="evenodd" clip-rule="evenodd" d="M6.75906 6.07459C7.06167 6.35744 7.07768 6.83205 6.79483 7.13465C5.56124 8.45441 4.87501 10.1935 4.87501 12C4.87501 13.8065 5.56124 15.5456 6.79483 16.8654C7.07768 17.168 7.06167 17.6426 6.75906 17.9254C6.45646 18.2083 5.98185 18.1923 5.699 17.8897C4.2057 16.2921 3.37501 14.1869 3.37501 12C3.37501 9.81317 4.2057 7.70797 5.699 6.11037C5.98185 5.80776 6.45646 5.79175 6.75906 6.07459Z" fill="#262626"/>
<path fill-rule="evenodd" clip-rule="evenodd" d="M17.2398 6.07459C17.5424 5.79175 18.017 5.80776 18.2998 6.11037C19.7931 7.70797 20.6238 9.81317 20.6238 12C20.6238 14.1869 19.7931 16.2921 18.2998 17.8897C18.017 18.1923 17.5424 18.2083 17.2398 17.9254C16.9372 17.6426 16.9212 17.168 17.204 16.8654C18.4376 15.5456 19.1238 13.8065 19.1238 12C19.1238 10.1935 18.4376 8.45441 17.204 7.13465C16.9212 6.83205 16.9372 6.35744 17.2398 6.07459Z" fill="#262626"/>
<path fill-rule="evenodd" clip-rule="evenodd" d="M19.8908 3.94036C20.1998 3.66461 20.6739 3.69163 20.9497 4.00071C22.9139 6.20231 23.9994 9.0496 23.9994 12C23.9994 14.9504 22.9139 17.7977 20.9497 19.9993C20.6739 20.3084 20.1998 20.3354 19.8908 20.0597C19.5817 19.7839 19.5546 19.3098 19.8304 19.0007C21.5494 17.074 22.4994 14.5821 22.4994 12C22.4994 9.41791 21.5494 6.92606 19.8304 4.9993C19.5546 4.69021 19.5817 4.21611 19.8908 3.94036Z" fill="#262626"/>
<path fill-rule="evenodd" clip-rule="evenodd" d="M4.10809 3.94036C4.41717 4.21611 4.44419 4.69021 4.16844 4.9993C2.44948 6.92606 1.49948 9.41791 1.49948 12C1.49948 14.5821 2.44948 17.074 4.16844 19.0007C4.44419 19.3098 4.41717 19.7839 4.10809 20.0597C3.799 20.3354 3.3249 20.3084 3.04914 19.9993C1.08499 17.7977 -0.000518799 14.9504 -0.000518799 12C-0.000518799 9.0496 1.08499 6.20231 3.04914 4.00071C3.3249 3.69163 3.799 3.66461 4.10809 3.94036Z" fill="#262626"/>
</g>
<defs>
<clipPath id="clip0_4658_74837">
<rect width="24" height="24" fill="white"/>
</clipPath>
</defs>
</svg>
