<svg fill="none" height="24" viewBox="0 0 24 24" width="24" xmlns="http://www.w3.org/2000/svg">
    <path clip-rule="evenodd"
        d="M2.18842 11.4697C1.89553 11.7626 1.89553 12.2374 2.18842 12.5303L5.93842 16.2803C6.23131 16.5732 6.70619 16.5732 6.99908 16.2803L10.7491 12.5303C11.042 12.2374 11.042 11.7626 10.7491 11.4697C10.4562 11.1768 9.98131 11.1768 9.68842 11.4697L7.10599 14.0521C7.06209 13.6147 7.03125 12.9611 7.03125 12C7.03125 10.665 7.42713 9.35994 8.16883 8.2499C8.91053 7.13987 9.96474 6.27471 11.1981 5.76382C12.4315 5.25293 13.7887 5.11925 15.0981 5.3797C16.4075 5.64015 17.6102 6.28303 18.5542 7.22703C19.4982 8.17104 20.1411 9.37377 20.4015 10.6831C20.662 11.9925 20.5283 13.3497 20.0174 14.5831C19.5065 15.8165 18.6414 16.8707 17.5313 17.6124C16.4213 18.3541 15.1163 18.75 13.7812 18.75C13.367 18.75 13.0312 19.0858 13.0312 19.5C13.0312 19.9142 13.367 20.25 13.7812 20.25C15.4129 20.25 17.008 19.7662 18.3647 18.8596C19.7214 17.9531 20.7788 16.6646 21.4033 15.1571C22.0277 13.6497 22.1911 11.9909 21.8727 10.3905C21.5544 8.79017 20.7687 7.32016 19.6149 6.16637C18.4611 5.01259 16.9911 4.22685 15.3907 3.90853C13.7904 3.5902 12.1316 3.75358 10.6241 4.378C9.11662 5.00242 7.82815 6.05984 6.92163 7.41655C6.0151 8.77326 5.53125 10.3683 5.53125 12C5.53125 12.7486 5.5493 13.3379 5.58039 13.801L3.24908 11.4697C2.95619 11.1768 2.48131 11.1768 2.18842 11.4697Z"
        fill="#262626" fill-rule="evenodd" />
</svg>
