<svg width="161" height="160" viewBox="0 0 161 160" fill="none" xmlns="http://www.w3.org/2000/svg">
<path fill-rule="evenodd" clip-rule="evenodd" d="M111.69 26.9317C120.73 28.8317 129.19 31.8817 134.04 36.7317C138.11 40.8117 141.83 47.2317 144.98 54.4517C148.18 61.7817 150.97 70.3617 153.03 79.1117C155.09 87.8617 156.43 96.9117 156.67 105.172C156.91 113.322 156.08 121.192 153.39 127.272C152.163 130.001 150.105 132.274 147.51 133.764C144.915 135.255 141.916 135.887 138.94 135.572C132.58 134.902 127.79 131.632 123.81 127.842C121.217 125.266 118.751 122.566 116.42 119.752C115.16 118.282 113.92 116.842 112.74 115.532C105.46 107.492 96.77 100.262 80.5 100.262C64.23 100.262 55.54 107.492 48.26 115.532C47.07 116.842 45.84 118.282 44.58 119.752C42.15 122.582 39.64 125.512 37.19 127.852C33.21 131.632 28.42 134.902 22.06 135.572C19.084 135.887 16.0844 135.255 13.4894 133.764C10.8944 132.274 8.83668 130.001 7.60996 127.272C4.90996 121.192 4.08996 113.322 4.31996 105.172C4.55996 96.9117 5.91996 87.8717 7.96996 79.1117C10.03 70.3617 12.83 61.7817 16.02 54.4517C19.17 47.2317 22.89 40.8117 26.96 36.7317C31.82 31.8817 40.27 28.8317 49.31 26.9317C58.63 24.9717 69.61 24.0117 80.5 24.0117C91.39 24.0117 102.37 24.9717 111.69 26.9317V26.9317ZM51.37 36.7217C42.6 38.5717 36.68 41.1517 34.04 43.8017C31.28 46.5617 28.17 51.6317 25.19 58.4517C22.0286 65.8676 19.5256 73.5472 17.71 81.4017C15.7919 89.2908 14.6564 97.3498 14.32 105.462C14.1 113.012 14.94 119.142 16.75 123.222C17.1206 124.016 17.7307 124.675 18.4947 125.106C19.2587 125.536 20.1382 125.716 21.01 125.622C24.28 125.282 27.11 123.632 30.3 120.602C32.42 118.582 34.3 116.372 36.45 113.862C37.78 112.302 39.21 110.632 40.85 108.812C49.11 99.7017 60.28 90.2617 80.5 90.2617C100.72 90.2617 111.89 99.6917 120.15 108.812C121.79 110.632 123.22 112.312 124.55 113.862C126.69 116.362 128.58 118.582 130.7 120.602C133.88 123.632 136.71 125.282 139.99 125.632C140.863 125.726 141.743 125.544 142.507 125.111C143.271 124.679 143.881 124.018 144.25 123.222C146.05 119.142 146.9 113.022 146.68 105.462C146.343 97.3498 145.208 89.2908 143.29 81.4017C141.474 73.5473 138.971 65.8677 135.81 58.4517C132.83 51.6317 129.71 46.5517 126.96 43.8017C124.32 41.1517 118.4 38.5717 109.63 36.7217C101.13 34.9317 90.86 34.0217 80.5 34.0217C70.14 34.0217 59.87 34.9317 51.37 36.7217V36.7217Z" fill="#D41142"/>
<path d="M115.5 60.2617C115.5 61.5878 114.973 62.8596 114.036 63.7973C113.098 64.7349 111.826 65.2617 110.5 65.2617C109.174 65.2617 107.902 64.7349 106.964 63.7973C106.027 62.8596 105.5 61.5878 105.5 60.2617C105.5 58.9356 106.027 57.6639 106.964 56.7262C107.902 55.7885 109.174 55.2617 110.5 55.2617C111.826 55.2617 113.098 55.7885 114.036 56.7262C114.973 57.6639 115.5 58.9356 115.5 60.2617ZM105.5 70.2617C105.5 71.5878 104.973 72.8596 104.036 73.7973C103.098 74.7349 101.826 75.2617 100.5 75.2617C99.1739 75.2617 97.9021 74.7349 96.9645 73.7973C96.0268 72.8596 95.5 71.5878 95.5 70.2617C95.5 68.9356 96.0268 67.6639 96.9645 66.7262C97.9021 65.7885 99.1739 65.2617 100.5 65.2617C101.826 65.2617 103.098 65.7885 104.036 66.7262C104.973 67.6639 105.5 68.9356 105.5 70.2617ZM125.5 70.2617C125.5 71.5878 124.973 72.8596 124.036 73.7973C123.098 74.7349 121.826 75.2617 120.5 75.2617C119.174 75.2617 117.902 74.7349 116.964 73.7973C116.027 72.8596 115.5 71.5878 115.5 70.2617C115.5 68.9356 116.027 67.6639 116.964 66.7262C117.902 65.7885 119.174 65.2617 120.5 65.2617C121.826 65.2617 123.098 65.7885 124.036 66.7262C124.973 67.6639 125.5 68.9356 125.5 70.2617ZM115.5 80.2617C115.5 81.5878 114.973 82.8596 114.036 83.7973C113.098 84.7349 111.826 85.2617 110.5 85.2617C109.174 85.2617 107.902 84.7349 106.964 83.7973C106.027 82.8596 105.5 81.5878 105.5 80.2617C105.5 78.9356 106.027 77.6639 106.964 76.7262C107.902 75.7885 109.174 75.2617 110.5 75.2617C111.826 75.2617 113.098 75.7885 114.036 76.7262C114.973 77.6639 115.5 78.9356 115.5 80.2617ZM45.5 55.2617H55.5V85.2617H45.5V55.2617Z" fill="#D41142"/>
<path d="M35.4995 65.2617H65.4995V75.2617H35.4995V65.2617ZM31.0095 32.6017C30.8387 31.9668 30.7948 31.3043 30.8804 30.6524C30.9659 30.0005 31.1792 29.3718 31.508 28.8024C31.8368 28.233 32.2747 27.7341 32.7966 27.3341C33.3186 26.9342 33.9142 26.6411 34.5495 26.4717L53.8695 21.2917C55.1422 20.9745 56.4885 21.1701 57.6183 21.8363C58.7481 22.5025 59.5709 23.5859 59.9094 24.8531C60.2478 26.1203 60.0748 27.4697 59.4276 28.6105C58.7804 29.7513 57.7109 30.5921 56.4495 30.9517L37.1295 36.1317C35.8485 36.4736 34.4842 36.2928 33.3365 35.6289C32.1888 34.9651 31.3518 33.8726 31.0095 32.5917V32.6017ZM130.77 32.6017C130.941 31.9674 130.985 31.3056 130.9 30.6542C130.815 30.0028 130.603 29.3745 130.275 28.8052C129.947 28.2359 129.51 27.7368 128.989 27.3364C128.469 26.936 127.874 26.6422 127.24 26.4717L107.92 21.2917C106.639 20.9482 105.274 21.1277 104.125 21.7907C102.976 22.4536 102.138 23.5457 101.795 24.8267C101.451 26.1077 101.631 27.4727 102.294 28.6213C102.956 29.77 104.049 30.6082 105.33 30.9517L124.65 36.1317C125.931 36.4736 127.295 36.2928 128.443 35.6289C129.59 34.9651 130.427 33.8726 130.77 32.5917V32.6017Z" fill="#D41142"/>
</svg>
