<svg width="18" height="18" viewBox="0 0 18 18" fill="none" xmlns="http://www.w3.org/2000/svg">
<path fill-rule="evenodd" clip-rule="evenodd" d="M6.33607 3.47978C4.07595 5.73975 4.07595 9.4041 6.33607 11.6639C8.59618 13.9239 12.2604 13.9239 14.5202 11.6639C16.7801 9.40379 16.7801 5.7396 14.5202 3.47978C12.2602 1.21966 8.59588 1.21966 6.33607 3.47978V3.47978ZM4.47976 12.2582C2.13257 9.28642 2.33067 4.96134 5.07418 2.21775C8.03102 -0.739249 12.8254 -0.739249 15.7824 2.21775C18.7392 5.17474 18.7392 9.96896 15.7824 12.926C13.0387 15.6695 8.71344 15.8676 5.74192 13.5201L1.52327 17.7387C1.1749 18.0871 0.609748 18.0871 0.261387 17.7387C-0.0871374 17.3902 -0.0871374 16.8252 0.261387 16.4767L4.47976 12.2582Z" fill="#1B396C"/>
</svg>
