<svg width="24" height="24" viewBox="0 0 24 24" fill="none" xmlns="http://www.w3.org/2000/svg">
<path fill-rule="evenodd" clip-rule="evenodd" d="M14.6639 6.47978C16.924 8.73975 16.924 12.4041 14.6639 14.6639C12.4038 16.9239 8.73963 16.9239 6.47982 14.6639C4.21985 12.4038 4.21985 8.7396 6.47982 6.47978C8.73978 4.21966 12.4041 4.21966 14.6639 6.47978V6.47978ZM16.5202 15.2582C18.8674 12.2864 18.6693 7.96134 15.9258 5.21775C12.969 2.26075 8.17462 2.26075 5.21763 5.21775C2.26079 8.17474 2.26079 12.969 5.21763 15.926C7.9613 18.6695 12.2866 18.8676 15.2581 16.5201L19.4767 20.7387C19.8251 21.0871 20.3903 21.0871 20.7386 20.7387C21.0871 20.3902 21.0871 19.8252 20.7386 19.4767L16.5202 15.2582Z" fill="#1B396C"/>
</svg>
