<svg width="24" height="24" viewBox="0 0 24 24" fill="none" xmlns="http://www.w3.org/2000/svg">
<path fill-rule="evenodd" clip-rule="evenodd" d="M11.4697 1.71967C11.7626 1.42678 12.2374 1.42678 12.5303 1.71967L16.2803 5.46967C16.5732 5.76256 16.5732 6.23744 16.2803 6.53033C15.9874 6.82322 15.5126 6.82322 15.2197 6.53033L12.75 4.06066V15.0469C12.75 15.4611 12.4142 15.7969 12 15.7969C11.5858 15.7969 11.25 15.4611 11.25 15.0469V4.06066L8.78033 6.53033C8.48744 6.82322 8.01256 6.82322 7.71967 6.53033C7.42678 6.23744 7.42678 5.76256 7.71967 5.46967L11.4697 1.71967ZM6.375 10.5C6.07663 10.5 5.79048 10.6185 5.5795 10.8295C5.36853 11.0405 5.25 11.3266 5.25 11.625V18.375C5.25 18.6734 5.36853 18.9595 5.5795 19.1705C5.79048 19.3815 6.07663 19.5 6.375 19.5H17.625C17.9234 19.5 18.2095 19.3815 18.4205 19.1705C18.6315 18.9595 18.75 18.6734 18.75 18.375V11.625C18.75 11.3266 18.6315 11.0405 18.4205 10.8295C18.2095 10.6185 17.9234 10.5 17.625 10.5H15.75C15.3358 10.5 15 10.1642 15 9.75C15 9.33579 15.3358 9 15.75 9H17.625C18.3212 9 18.9889 9.27656 19.4812 9.76884C19.9734 10.2611 20.25 10.9288 20.25 11.625V18.375C20.25 19.0712 19.9734 19.7389 19.4812 20.2312C18.9889 20.7234 18.3212 21 17.625 21H6.375C5.67881 21 5.01113 20.7234 4.51884 20.2312C4.02656 19.7389 3.75 19.0712 3.75 18.375V11.625C3.75 10.9288 4.02656 10.2611 4.51884 9.76884C5.01113 9.27656 5.67881 9 6.375 9H8.25C8.66421 9 9 9.33579 9 9.75C9 10.1642 8.66421 10.5 8.25 10.5H6.375Z" fill="#262626"/>
</svg>
