<svg width="25" height="25" viewBox="0 0 25 25" fill="none" xmlns="http://www.w3.org/2000/svg">
<g clip-path="url(#clip0_3659_59857)">
<path fill-rule="evenodd" clip-rule="evenodd" d="M6.625 0.5C4.96815 0.5 3.625 1.84315 3.625 3.5V21.5C3.625 23.1569 4.96815 24.5 6.625 24.5H18.625C20.2819 24.5 21.625 23.1569 21.625 21.5V3.5C21.625 1.84315 20.2819 0.5 18.625 0.5H6.625ZM10.765 16.1769L16.1298 12.936C16.2046 12.8904 16.2664 12.8264 16.3093 12.7501C16.3522 12.6737 16.3747 12.5876 16.3747 12.5001C16.3747 12.4125 16.3522 12.3264 16.3093 12.2501C16.2664 12.1737 16.2046 12.1097 16.1298 12.0641L10.765 8.82318C10.6881 8.77711 10.6003 8.75233 10.5107 8.75137C10.4211 8.75042 10.3328 8.77332 10.2549 8.81774C10.1771 8.86216 10.1124 8.92649 10.0676 9.00414C10.0228 9.08179 9.99948 9.16995 10 9.25959V15.7405C9.99948 15.8302 10.0228 15.9183 10.0676 15.996C10.1124 16.0736 10.1771 16.138 10.2549 16.1824C10.3328 16.2268 10.4211 16.2497 10.5107 16.2487C10.6003 16.2478 10.6881 16.223 10.765 16.1769Z" fill="#262626"/>
<rect x="0.625" y="3.5" width="1.5" height="18" rx="0.75" fill="#262626"/>
<rect x="23.125" y="3.5" width="1.5" height="18" rx="0.75" fill="#262626"/>
</g>
<defs>
<clipPath id="clip0_3659_59857">
<rect width="24" height="24" fill="white" transform="translate(0.625 0.5)"/>
</clipPath>
</defs>
</svg>
