<svg width="25" height="24" viewBox="0 0 25 24" fill="none" xmlns="http://www.w3.org/2000/svg">
<g clip-path="url(#clip0_3659_67535)">
<path fill-rule="evenodd" clip-rule="evenodd" d="M6.625 1.5C5.79657 1.5 5.125 2.17157 5.125 3V21C5.125 21.8284 5.79657 22.5 6.625 22.5H18.625C19.4534 22.5 20.125 21.8284 20.125 21V3C20.125 2.17157 19.4534 1.5 18.625 1.5H6.625ZM3.625 3C3.625 1.34315 4.96815 0 6.625 0H18.625C20.2819 0 21.625 1.34315 21.625 3V21C21.625 22.6569 20.2819 24 18.625 24H6.625C4.96815 24 3.625 22.6569 3.625 21V3Z" fill="#262626"/>
<path d="M16.1299 12.4347L10.765 15.6756C10.6881 15.7217 10.6003 15.7464 10.5107 15.7474C10.4211 15.7484 10.3328 15.7255 10.2549 15.681C10.1771 15.6366 10.1124 15.5723 10.0676 15.4946C10.0228 15.417 9.99949 15.3288 10 15.2392V8.75825C9.99949 8.66861 10.0228 8.58044 10.0676 8.50279C10.1124 8.42515 10.1771 8.36082 10.2549 8.3164C10.3328 8.27198 10.4211 8.24907 10.5107 8.25003C10.6003 8.25099 10.6881 8.27577 10.765 8.32184L16.1299 11.5628C16.2046 11.6083 16.2664 11.6724 16.3093 11.7487C16.3522 11.8251 16.3747 11.9111 16.3747 11.9987C16.3747 12.0863 16.3522 12.1724 16.3093 12.2487C16.2664 12.3251 16.2046 12.3891 16.1299 12.4347Z" fill="#262626"/>
<rect x="0.625" y="3" width="1.5" height="18" rx="0.75" fill="#262626"/>
<rect x="23.125" y="3" width="1.5" height="18" rx="0.75" fill="#262626"/>
</g>
<defs>
<clipPath id="clip0_3659_67535">
<rect width="24" height="24" fill="white" transform="translate(0.625)"/>
</clipPath>
</defs>
</svg>
