<svg width="24" height="24" viewBox="0 0 24 24" fill="none" xmlns="http://www.w3.org/2000/svg">
<path fill-rule="evenodd" clip-rule="evenodd" d="M6.7328 3C5.58923 3 4.51827 3.63014 4.04752 4.65735L2.24409 8.59491C1.6386 9.91616 2.21824 11.3008 3.33722 11.9824V20.3256C3.33722 20.3256 3.33722 20.624 3.33722 20.992C3.33722 21.36 3.63556 21.6584 4.00359 21.6584H19.9965C20.3645 21.6584 20.6629 21.36 20.6629 20.992C20.6629 20.624 20.6629 20.3256 20.6629 20.3256V11.9818C21.7817 11.3001 22.3615 9.9155 21.7559 8.5946L19.9526 4.65735C19.4818 3.63014 18.4109 3 17.2673 3H6.7328ZM9.63442 11.0797C8.65592 11.0797 7.93268 10.2897 7.93268 9.57083C7.93268 9.20281 7.63434 8.90446 7.26631 8.90446C6.89828 8.90446 6.59994 9.20281 6.59994 9.57083C6.59994 10.2915 5.87738 11.0797 4.89861 11.0797H4.82627C3.67661 11.0389 3.07575 9.97902 3.45571 9.15005L5.25915 5.21246C5.49312 4.70209 6.06139 4.33274 6.7328 4.33274H17.2673C17.9387 4.33274 18.507 4.70223 18.741 5.2126L20.5444 9.15019C20.9241 9.97789 20.3239 11.0382 19.1736 11.0797H19.1036C18.1095 11.0797 17.4022 10.3523 17.4022 9.57083C17.4022 9.20281 17.1039 8.90446 16.7359 8.90446C16.3678 8.90446 16.0695 9.20281 16.0695 9.57083C16.0695 10.3522 15.3619 11.0797 14.3677 11.0797C13.3894 11.0797 12.6664 10.2898 12.6664 9.57083C12.6664 9.20281 12.3681 8.90446 12 8.90446C11.632 8.90446 11.3337 9.20281 11.3337 9.57083C11.3337 10.353 10.6277 11.0797 9.63442 11.0797ZM4.66996 12.4058V20.3256H8.92775H19.3301V12.4058C19.2888 12.4087 19.2473 12.4109 19.2055 12.4122C19.202 12.4123 19.1985 12.4124 19.195 12.4124C19.1916 12.4125 19.1882 12.4125 19.1848 12.4125H19.1036C18.1675 12.4125 17.301 12.0059 16.7358 11.3502C16.1704 12.0059 15.3037 12.4125 14.3677 12.4125C13.4335 12.4125 12.5774 11.9853 12.0146 11.3342C11.4504 11.9992 10.5784 12.4125 9.63442 12.4125C8.69229 12.4125 7.82949 11.9781 7.26677 11.3176C6.70413 11.9784 5.84106 12.4125 4.89861 12.4125H4.81531C4.80851 12.4125 4.80172 12.4124 4.79492 12.4122C4.75301 12.4109 4.71135 12.4088 4.66996 12.4058Z" fill="#262626"/>
</svg>
