<svg width="24" height="24" viewBox="0 0 24 24" fill="none" xmlns="http://www.w3.org/2000/svg">
<path fill-rule="evenodd" clip-rule="evenodd" d="M14.178 1.02243C14.3529 0.847681 14.59 0.749512 14.8372 0.749512C15.0844 0.749512 15.3214 0.847681 15.4963 1.02243L17.5626 3.09116C17.5633 3.09177 17.5639 3.09238 17.5645 3.09299C17.7303 3.25822 17.8278 3.47984 17.8375 3.71374C17.8474 3.94851 17.7681 4.17832 17.6156 4.3571L17.6149 4.35789L17.6143 4.35867C17.3782 4.6339 17.2547 4.98809 17.2686 5.35043C17.2824 5.71255 17.4323 6.05612 17.6884 6.31251C17.9452 6.56807 18.2889 6.71738 18.6509 6.73063C19.0133 6.74388 19.3672 6.61988 19.6421 6.38341L19.6433 6.38237L19.6445 6.38133C19.8233 6.22885 20.0531 6.14956 20.2879 6.15938C20.5219 6.16917 20.7436 6.26678 20.9089 6.43272C20.9094 6.43324 20.9099 6.43376 20.9105 6.43428L22.9768 8.50065C23.1516 8.67548 23.2498 8.91255 23.2498 9.15976C23.2498 9.40697 23.1516 9.64405 22.9768 9.81888L19.6796 13.1161C19.6796 13.1161 19.6795 13.1162 19.6795 13.1162C19.4757 13.32 19.2273 13.4736 18.9539 13.5648C18.9011 13.5825 18.8531 13.6123 18.8138 13.6517C18.7744 13.6912 18.7448 13.7394 18.7273 13.7924L18.7271 13.793L18.7268 13.7937C18.6357 14.0673 18.4822 14.316 18.2785 14.5201L9.82159 22.9765C9.64676 23.1512 9.40968 23.2494 9.16247 23.2494C8.91527 23.2494 8.67819 23.1512 8.50336 22.9765L6.43699 20.9101C6.43647 20.9096 6.43595 20.9091 6.43544 20.9085C6.26949 20.7433 6.17188 20.5215 6.16209 20.2875C6.15227 20.0527 6.23155 19.8229 6.38404 19.6441L6.38486 19.6432L6.38569 19.6422C6.62198 19.3671 6.74564 19.0128 6.73189 18.6504C6.71815 18.288 6.56803 17.9441 6.31157 17.6877C6.05512 17.4312 5.71127 17.2811 5.34885 17.2674C4.98643 17.2536 4.63219 17.3773 4.35705 17.6136L4.35609 17.6144L4.35513 17.6152C4.17635 17.7677 3.94654 17.847 3.71176 17.8372C3.47794 17.8274 3.2564 17.73 3.09119 17.5643C3.09052 17.5636 3.08985 17.563 3.08918 17.5623L1.0228 15.4959C0.848047 15.3211 0.749878 15.084 0.749878 14.8368C0.749878 14.5896 0.848047 14.3525 1.0228 14.1777L9.47922 5.72314C9.68307 5.51968 9.93136 5.36632 10.2045 5.27512M18.3931 12.173C18.4211 12.1621 18.4494 12.1519 18.478 12.1423L18.4791 12.1419C18.5317 12.1244 18.5796 12.0948 18.6188 12.0556L18.6189 12.0555L21.5146 9.15976L20.1855 7.83063C19.7074 8.10979 19.1566 8.25013 18.5961 8.22962C17.8561 8.20255 17.1536 7.89715 16.629 7.37448L16.6285 7.37396L16.628 7.37344C16.1044 6.84971 15.7979 6.14763 15.7696 5.40762C15.7482 4.84663 15.888 4.29519 16.1669 3.81632L14.8369 2.48487L11.9413 5.38048C11.9021 5.41967 11.8726 5.46746 11.855 5.52004C11.8456 5.5485 11.8355 5.5767 11.8247 5.6046L12.2723 6.05225C12.5652 6.34514 12.5652 6.82001 12.2723 7.11291C11.9794 7.4058 11.5046 7.4058 11.2117 7.11291L10.7656 6.66681C10.7376 6.67772 10.7093 6.68797 10.6807 6.69753L10.6802 6.6977L10.6797 6.69786C10.6267 6.71553 10.5785 6.74525 10.539 6.7847C10.5389 6.78474 10.5389 6.78478 10.5389 6.78482L2.48505 14.8368L3.81441 16.1662C4.2932 15.8871 4.84464 15.7472 5.40569 15.7685C6.146 15.7965 6.84838 16.1032 7.37223 16.627C7.89609 17.1509 8.20274 17.8533 8.23082 18.5936C8.25209 19.1546 8.11218 19.7061 7.83307 20.1849L9.16249 21.5143L17.2168 13.4604C17.2561 13.421 17.2858 13.3731 17.3035 13.3203C17.313 13.2917 17.3232 13.2633 17.334 13.2352L16.8864 12.7876C16.5935 12.4947 16.5935 12.0198 16.8864 11.7269C17.1793 11.434 17.6541 11.434 17.947 11.7269L18.3931 12.173ZM10.2045 5.27512C10.2574 5.25741 10.3055 5.22761 10.3449 5.1881C10.3842 5.14859 10.4139 5.10045 10.4314 5.04748L10.4316 5.04684L10.4318 5.0462C10.523 4.77246 10.6767 4.52374 10.8807 4.31975C10.8808 4.31972 10.8808 4.3197 10.8808 4.31968L14.178 1.02243M12.7588 7.6003C13.0515 7.30727 13.5264 7.30706 13.8194 7.59982L14.3355 8.11544C14.6286 8.4082 14.6288 8.88308 14.336 9.1761C14.0433 9.46913 13.5684 9.46935 13.2754 9.17658L12.7593 8.66096C12.4662 8.3682 12.466 7.89332 12.7588 7.6003ZM14.8232 9.66325C15.1162 9.37049 15.5911 9.37071 15.8838 9.66374L16.3995 10.1798C16.6922 10.4729 16.692 10.9477 16.399 11.2405C16.1059 11.5333 15.6311 11.533 15.3383 11.24L14.8227 10.7239C14.5299 10.4309 14.5301 9.95601 14.8232 9.66325Z" fill="#262626"/>
</svg>
