<svg width="25" height="24" viewBox="0 0 25 24" fill="none" xmlns="http://www.w3.org/2000/svg">
<path fill-rule="evenodd" clip-rule="evenodd" d="M21.6406 6.11155C21.869 6.01002 22.1191 5.96716 22.3683 5.98687C22.6174 6.00658 22.8577 6.08823 23.0673 6.2244C23.2769 6.36058 23.4491 6.54696 23.5683 6.76662C23.6875 6.98628 23.75 7.23225 23.75 7.48219V16.5178C23.75 16.7678 23.6875 17.0137 23.5683 17.2334C23.4491 17.453 23.2769 17.6394 23.0673 17.7756C22.8577 17.9118 22.6174 17.9934 22.3683 18.0131C22.1191 18.0328 21.869 17.99 21.6406 17.8884C21.596 17.8686 21.5535 17.8445 21.5136 17.8164L17.6366 15.0874C17.44 14.9489 17.2795 14.7653 17.1687 14.5519C17.0579 14.3385 17.0001 14.1016 17 13.8611V10.1389C17.0001 9.89845 17.0579 9.66153 17.1687 9.44812C17.2795 9.23471 17.4399 9.05106 17.6366 8.91265L21.5136 6.18358C21.5535 6.1555 21.596 6.13137 21.6406 6.11155ZM22.25 7.49958V16.5004L18.5 13.8608V10.1392L22.25 7.49958Z" fill="white"/>
<path fill-rule="evenodd" clip-rule="evenodd" d="M3.42274 6.10188C3.69189 6.41673 3.65485 6.89016 3.34 7.15931C3.1552 7.31728 3.00678 7.51339 2.90493 7.73415C2.80314 7.95481 2.75028 8.19489 2.75 8.43789V15.5613C2.75154 16.0087 2.92994 16.4373 3.24631 16.7537C3.56269 17.0701 3.99134 17.2485 4.43874 17.25H13.0629L13.0633 17.25C13.3092 17.2503 13.5522 17.1961 13.7748 17.0915C14.1496 16.9154 14.5964 17.0764 14.7725 17.4513C14.9487 17.8262 14.7876 18.2729 14.4127 18.4491C13.9901 18.6477 13.5287 18.7505 13.0617 18.75H4.43642L4.43535 18.75C3.59129 18.7476 2.78249 18.4112 2.18565 17.8144C1.5888 17.2175 1.25243 16.4087 1.25 15.5647L1.25 15.5636L1.25 8.43677C1.25045 7.97718 1.35036 7.52313 1.54288 7.10581C1.73541 6.68848 2.01597 6.31777 2.36532 6.01913C2.68017 5.74998 3.15359 5.78703 3.42274 6.10188Z" fill="white"/>
<path fill-rule="evenodd" clip-rule="evenodd" d="M9.5 6C9.5 5.58579 9.83579 5.25 10.25 5.25H13.0862L13.0873 5.25C13.9253 5.25259 14.7283 5.58664 15.3208 6.17919C15.9134 6.77175 16.2474 7.57468 16.25 8.41268L16.25 8.41384V11.625C16.25 12.0392 15.9142 12.375 15.5 12.375C15.0858 12.375 14.75 12.0392 14.75 11.625V8.41627C14.7484 7.97487 14.5723 7.55199 14.2601 7.23985C13.948 6.92771 13.5251 6.75164 13.0837 6.75H10.25C9.83579 6.75 9.5 6.41421 9.5 6Z" fill="white"/>
<path fill-rule="evenodd" clip-rule="evenodd" d="M3.71967 3.21967C4.01256 2.92678 4.48744 2.92678 4.78033 3.21967L20.5303 18.9697C20.8232 19.2626 20.8232 19.7374 20.5303 20.0303C20.2374 20.3232 19.7626 20.3232 19.4697 20.0303L3.71967 4.28033C3.42678 3.98744 3.42678 3.51256 3.71967 3.21967Z" fill="white"/>
</svg>
