<svg width="25" height="24" viewBox="0 0 25 24" fill="none" xmlns="http://www.w3.org/2000/svg">
<path fill-rule="evenodd" clip-rule="evenodd" d="M21.6406 6.11155C21.869 6.01002 22.1191 5.96716 22.3683 5.98687C22.6174 6.00658 22.8577 6.08823 23.0673 6.2244C23.2769 6.36058 23.4491 6.54696 23.5683 6.76662C23.6875 6.98628 23.75 7.23225 23.75 7.48219V16.5178C23.75 16.7678 23.6875 17.0137 23.5683 17.2334C23.4491 17.453 23.2769 17.6394 23.0673 17.7756C22.8577 17.9118 22.6174 17.9934 22.3683 18.0131C22.1191 18.0328 21.869 17.99 21.6406 17.8884C21.596 17.8686 21.5535 17.8445 21.5136 17.8164L17.6366 15.0874C17.44 14.9489 17.2795 14.7653 17.1687 14.5519C17.0579 14.3385 17.0001 14.1016 17 13.8611V10.1389C17.0001 9.89845 17.0579 9.66153 17.1687 9.44812C17.2795 9.23471 17.4399 9.05106 17.6366 8.91265L21.5136 6.18358C21.5535 6.1555 21.596 6.13137 21.6406 6.11155ZM22.25 7.49958V16.5004L18.5 13.8608V10.1392L22.25 7.49958Z" fill="white"/>
<path fill-rule="evenodd" clip-rule="evenodd" d="M4.43642 5.25H13.0862L13.0873 5.25C13.9253 5.25259 14.7283 5.58664 15.3208 6.17919C15.9134 6.77175 16.2474 7.57468 16.25 8.41268L16.25 8.41384V15.5636L16.25 15.5647C16.2476 16.4087 15.9112 17.2175 15.3144 17.8144C14.7175 18.4112 13.9087 18.7476 13.0647 18.75L13.0636 18.75H4.43642L4.43535 18.75C3.59129 18.7476 2.78249 18.4112 2.18565 17.8144C1.5888 17.2175 1.25243 16.4087 1.25 15.5647L1.25 15.5636V8.43642L1.25 8.43535C1.25243 7.59129 1.5888 6.78249 2.18565 6.18565C2.78249 5.5888 3.59129 5.25243 4.43535 5.25L4.43642 5.25ZM4.43868 6.75C3.9913 6.75154 3.56267 6.92994 3.24631 7.24631C2.92994 7.56267 2.75154 7.9913 2.75 8.43868V15.5613C2.75154 16.0087 2.92994 16.4373 3.24631 16.7537C3.56269 17.0701 3.99134 17.2485 4.43874 17.25H13.0613C13.5087 17.2485 13.9373 17.0701 14.2537 16.7537C14.5701 16.4373 14.7485 16.0087 14.75 15.5613V8.41608C14.7483 7.97475 14.5722 7.55195 14.2601 7.23985C13.948 6.92771 13.5251 6.75164 13.0837 6.75H4.43868Z" fill="white"/>
</svg>
