<svg width="16" height="16" viewBox="0 0 16 16" fill="none" xmlns="http://www.w3.org/2000/svg">
<path d="M13 1.5H3C2.60218 1.5 2.22064 1.65804 1.93934 1.93934C1.65804 2.22064 1.5 2.60218 1.5 3V13C1.5 13.3978 1.65804 13.7794 1.93934 14.0607C2.22064 14.342 2.60217 14.5 3 14.5H13C13.3978 14.5 13.7794 14.342 14.0607 14.0607C14.342 13.7794 14.5 13.3978 14.5 13V3C14.5 2.60217 14.342 2.22064 14.0607 1.93934C13.7794 1.65804 13.3978 1.5 13 1.5Z" stroke="#262626" stroke-linecap="round" stroke-linejoin="round"/>
<path d="M6.83337 9.33333V7.31267L8.58337 8.32267L10.3334 9.33333L8.58337 10.3437L6.83337 11.354V9.33333Z" stroke="#262626" stroke-linecap="round" stroke-linejoin="round"/>
<path d="M2 5H14" stroke="#262626" stroke-linecap="round" stroke-linejoin="round"/>
<path d="M11 1.5L9 5" stroke="#262626" stroke-linecap="round" stroke-linejoin="round"/>
<path d="M7 1.5L5 5" stroke="#262626" stroke-linecap="round" stroke-linejoin="round"/>
</svg>
