<svg fill="none" height="24" viewBox="0 0 24 24" width="24" xmlns="http://www.w3.org/2000/svg">
    <path clip-rule="evenodd"
        d="M18.4874 5.51206C18.5573 5.58173 18.6127 5.66449 18.6505 5.75561C18.6883 5.84672 18.7078 5.94441 18.7078 6.04306C18.7078 6.14171 18.6883 6.23939 18.6505 6.33051C18.6127 6.42163 18.5573 6.50439 18.4874 6.57406L6.57321 18.4883C6.43238 18.6291 6.24137 18.7082 6.04221 18.7082C5.84304 18.7082 5.65204 18.6291 5.51121 18.4883C5.37038 18.3474 5.29126 18.1564 5.29126 17.9573C5.29126 17.7581 5.37038 17.5671 5.51121 17.4263L17.4254 5.51206C17.4951 5.44221 17.5779 5.3868 17.669 5.34899C17.7601 5.31118 17.8578 5.29172 17.9564 5.29172C18.0551 5.29172 18.1528 5.31118 18.2439 5.34899C18.335 5.3868 18.4178 5.44221 18.4874 5.51206Z"
        fill="black" fill-rule="evenodd" />
    <path clip-rule="evenodd"
        d="M5.51185 5.51201C5.442 5.58168 5.38659 5.66444 5.34878 5.75556C5.31097 5.84668 5.29151 5.94436 5.29151 6.04301C5.29151 6.14166 5.31097 6.23935 5.34878 6.33046C5.38659 6.42158 5.442 6.50434 5.51185 6.57401L17.4261 18.4882C17.5669 18.6291 17.7579 18.7082 17.9571 18.7082C18.1562 18.7082 18.3472 18.6291 18.4881 18.4882C18.6289 18.3474 18.708 18.1564 18.708 17.9572C18.708 17.7581 18.6289 17.5671 18.4881 17.4262L6.57385 5.51201C6.50418 5.44217 6.42142 5.38675 6.3303 5.34894C6.23918 5.31113 6.1415 5.29167 6.04285 5.29167C5.9442 5.29167 5.84652 5.31113 5.7554 5.34894C5.66428 5.38675 5.58152 5.44217 5.51185 5.51201Z"
        fill="black" fill-rule="evenodd" />
</svg>
