<svg fill="none" height="196" viewBox="0 0 230 196" width="230" xmlns="http://www.w3.org/2000/svg">
    <defs>
        <clipPath id="clip0_7152_6372">
            <rect fill="white" height="196" transform="translate(0.0493164)" width="229.901" />
        </clipPath>
    </defs>
    <g clip-path="url(#clip0_7152_6372)">
        <path
            d="M228.897 135.134C222.617 103.47 185.83 78.1632 178.654 45.1669C165.614 3.18653 122.63 -3.45064 94.6987 14.7814C50.4411 43.6703 97.6548 50.8393 10.8801 119.189C-10.5465 136.065 -3.71901 210.564 63.6879 193.467C99.9633 184.266 110.991 182.975 127.308 181.46C168.435 177.641 239.437 188.287 228.897 135.134Z"
            fill="#D41142" opacity="0.1" />
        <path d="M179.765 143.072L116.199 176.645L52.7283 143.072V92.375H179.765V143.072Z"
            fill="white" />
        <path
            d="M116.199 177.159C116.115 177.159 116.032 177.139 115.958 177.099L52.4893 143.526C52.4068 143.483 52.3377 143.418 52.2893 143.338C52.241 143.258 52.2153 143.167 52.215 143.073V92.3743C52.215 92.2377 52.2692 92.1068 52.3658 92.0102C52.4623 91.9136 52.5933 91.8594 52.7299 91.8594H179.765C179.902 91.8594 180.033 91.9136 180.129 92.0102C180.226 92.1068 180.28 92.2377 180.28 92.3743V143.072C180.28 143.165 180.254 143.256 180.206 143.336C180.157 143.416 180.088 143.481 180.006 143.525L116.439 177.098C116.365 177.138 116.283 177.159 116.199 177.159ZM53.2432 142.762L116.199 176.062L179.25 142.762V92.8892H53.2432V142.762Z"
            fill="#262626" />
        <path d="M179.765 81.4933L116.199 47.9206L144.763 34.1523L208.329 67.7254L179.765 81.4933Z"
            fill="white" />
        <path
            d="M179.765 82.0082C179.681 82.0082 179.599 81.9878 179.524 81.9489L115.958 48.3758C115.874 48.3312 115.804 48.2642 115.755 48.1821C115.707 48.1 115.682 48.0061 115.684 47.9109C115.686 47.8156 115.714 47.7227 115.765 47.6425C115.817 47.5622 115.889 47.4978 115.975 47.4563L144.539 33.6881C144.612 33.6529 144.692 33.6353 144.772 33.6368C144.853 33.6383 144.932 33.6588 145.004 33.6967L208.57 67.2698C208.654 67.3143 208.724 67.3813 208.773 67.4634C208.821 67.5454 208.846 67.6393 208.844 67.7345C208.842 67.8298 208.814 67.9227 208.763 68.0029C208.711 68.0831 208.639 68.1474 208.553 68.1888L179.989 81.9571C179.919 81.9908 179.842 82.0082 179.765 82.0082ZM117.341 47.9408L179.776 80.9157L207.187 67.7036L144.752 34.7295L117.341 47.9408Z"
            fill="#262626" />
        <path d="M52.7281 81.4933L116.295 47.9206L87.7302 34.1523L24.1638 67.7254L52.7281 81.4933Z"
            fill="white" />
        <path
            d="M52.7282 82.0082C52.6507 82.0082 52.5743 81.9907 52.5045 81.9571L23.9418 68.1888C23.856 68.1474 23.7834 68.0831 23.732 68.0029C23.6806 67.9227 23.6525 67.8298 23.6507 67.7345C23.649 67.6393 23.6737 67.5454 23.7221 67.4634C23.7705 67.3813 23.8407 67.3143 23.9249 67.2698L87.4913 33.6967C87.5626 33.6588 87.6418 33.6383 87.7224 33.6368C87.8031 33.6353 87.883 33.6529 87.9556 33.6881L116.52 47.4563C116.606 47.4978 116.678 47.5622 116.73 47.6425C116.781 47.7227 116.809 47.8156 116.811 47.9109C116.813 48.0061 116.788 48.1 116.74 48.1821C116.691 48.2642 116.621 48.3312 116.537 48.3758L52.9704 81.9489C52.8957 81.9881 52.8125 82.0085 52.7282 82.0082ZM25.3062 67.7044L52.7175 80.9165L115.152 47.9416L87.741 34.7295L25.3062 67.7044Z"
            fill="#262626" />
        <path d="M52.7282 81.498L116.295 115.071L83.6109 132.958L20.0446 99.3857L52.7282 81.498Z"
            fill="white" />
        <path
            d="M83.6109 133.472C83.527 133.473 83.4444 133.452 83.3703 133.413L19.8039 99.8396C19.7219 99.7961 19.6531 99.7312 19.6049 99.6518C19.5568 99.5723 19.531 99.4814 19.5303 99.3885C19.5296 99.2956 19.5541 99.2042 19.6011 99.1241C19.6481 99.044 19.7159 98.9781 19.7974 98.9334L52.481 81.0457C52.5557 81.0048 52.6394 80.983 52.7245 80.9824C52.8096 80.9819 52.8936 81.0025 52.9688 81.0424L116.535 114.615C116.617 114.659 116.686 114.724 116.734 114.803C116.782 114.883 116.808 114.974 116.809 115.067C116.81 115.16 116.785 115.251 116.738 115.331C116.691 115.411 116.623 115.477 116.542 115.522L83.8581 133.409C83.7823 133.451 83.6973 133.472 83.6109 133.472ZM21.132 99.3766L83.6064 132.373L115.207 115.078L52.7327 82.0817L21.132 99.3766Z"
            fill="#262626" />
        <path d="M179.765 81.498L116.199 115.071L148.882 132.958L212.449 99.3857L179.765 81.498Z"
            fill="white" />
        <path
            d="M148.883 133.472C148.797 133.472 148.712 133.451 148.636 133.409L115.952 115.522C115.871 115.477 115.803 115.411 115.756 115.331C115.709 115.251 115.685 115.16 115.685 115.067C115.686 114.974 115.712 114.883 115.76 114.803C115.808 114.724 115.877 114.659 115.959 114.615L179.525 81.0424C179.6 81.0025 179.684 80.9819 179.77 80.9824C179.855 80.983 179.938 81.0048 180.013 81.0457L212.697 98.9334C212.778 98.9781 212.846 99.044 212.893 99.1241C212.94 99.2042 212.964 99.2956 212.964 99.3885C212.963 99.4814 212.937 99.5723 212.889 99.6518C212.841 99.7312 212.772 99.7961 212.69 99.8396L149.124 133.413C149.05 133.452 148.967 133.473 148.883 133.472ZM117.287 115.078L148.888 132.373L211.363 99.3766L179.762 82.0817L117.287 115.078Z"
            fill="#262626" />
        <path d="M116.295 47.9219L52.7283 81.4945L116.199 115.068L179.765 81.4945L116.295 47.9219Z"
            fill="#262626" />
        <path d="M116.714 115.066H115.684V176.643H116.714V115.066Z" fill="#262626" />
        <path
            d="M80.5835 78.4483C80.4983 78.4483 80.4151 78.4217 80.3458 78.3721C80.2567 78.3089 80.1963 78.2129 80.1779 78.1052C80.1595 77.9975 80.1846 77.887 80.2478 77.7978C80.324 77.6903 87.769 66.9271 79.4577 57.1147C77.9867 55.369 76.1516 53.9661 74.0812 53.0043C72.0109 52.0425 69.7552 51.5451 67.4723 51.547H67.3602C68.1495 54.2888 68.0086 56.7267 66.8911 58.5969C66.4149 59.442 65.7121 60.1374 64.862 60.6046C64.012 61.0719 63.0483 61.2925 62.0796 61.2416C61.2777 61.1759 60.5124 60.8778 59.8774 60.3838C59.2424 59.8897 58.7652 59.2212 58.5044 58.4601C57.5903 56.0758 58.5456 53.764 61.0633 52.274C62.6583 51.3945 64.4307 50.8847 66.2493 50.7824C65.6576 49.2139 64.8883 47.7183 63.9564 46.3248C60.9554 41.7416 55.4861 38.5688 48.9503 37.6201C43.4113 36.8164 38.1031 37.7631 35.4251 40.0312C35.3416 40.1018 35.2336 40.1363 35.1247 40.1272C35.0158 40.1182 34.915 40.0662 34.8444 39.9828C34.7738 39.8994 34.7393 39.7913 34.7484 39.6825C34.7575 39.5736 34.8094 39.4727 34.8928 39.4022C37.7426 36.9886 43.3067 35.9682 49.0685 36.8069C55.8379 37.7898 61.5152 41.0948 64.646 45.8754C65.661 47.3915 66.4866 49.0262 67.1044 50.7429C69.5671 50.6837 72.0117 51.1778 74.258 52.1887C76.5044 53.1997 78.4954 54.7017 80.0842 56.5842C88.8145 66.8905 80.9975 78.1636 80.9176 78.2765C80.8795 78.3296 80.8294 78.3728 80.7713 78.4027C80.7132 78.4325 80.6488 78.4482 80.5835 78.4483ZM66.5166 51.577C64.7534 51.6522 63.0314 52.1335 61.4848 52.9834C59.3114 54.2695 58.5064 56.1586 59.2755 58.1656C59.4839 58.7806 59.867 59.3214 60.378 59.7221C60.8889 60.1227 61.5056 60.3657 62.1525 60.4214C62.967 60.4579 63.7757 60.2671 64.4879 59.8703C65.2002 59.4735 65.7881 58.8864 66.1858 58.1747C67.2115 56.4569 67.3055 54.1735 66.5154 51.577H66.5166Z"
            fill="#292A2E" />
        <path
            d="M28.3154 46.6748C27.6154 46.8851 26.8609 46.8138 26.2126 46.4762C25.5644 46.1385 25.0735 45.5611 24.8446 44.8669C24.6157 44.1728 24.6668 43.4167 24.987 42.7596C25.3073 42.1026 25.8713 41.5965 26.5591 41.3491C27.2469 41.1017 28.0041 41.1326 28.6695 41.4352C29.3349 41.7378 29.8558 42.2882 30.1215 42.9691C30.3871 43.6501 30.3765 44.4078 30.0918 45.081C29.8071 45.7542 29.2708 46.2897 28.5972 46.5734C28.5052 46.6123 28.4111 46.6462 28.3154 46.6748ZM26.9457 42.0973C26.879 42.1174 26.8134 42.141 26.7492 42.1682C26.2752 42.368 25.898 42.745 25.6979 43.2189C25.4978 43.6927 25.4905 44.226 25.6778 44.7051C25.865 45.1842 26.2319 45.5713 26.7003 45.7839C27.1687 45.9965 27.7016 46.0178 28.1854 45.8433C28.6693 45.6688 29.066 45.3123 29.2909 44.8497C29.5158 44.3871 29.5513 43.855 29.3896 43.3666C29.228 42.8783 28.8821 42.4724 28.4257 42.2353C27.9692 41.9982 27.4382 41.9487 26.9457 42.0973Z"
            fill="#292A2E" />
        <path
            d="M28.3104 40.2198C27.6482 40.4175 26.9363 40.3634 26.3116 40.068C25.6868 39.7726 25.1933 39.2566 24.9259 38.6194C24.7116 38.1085 24.6535 37.5455 24.7591 37.0016C24.8647 36.4577 25.1293 35.9573 25.5193 35.5638C25.9093 35.1703 26.4072 34.9012 26.9501 34.7907C27.493 34.6802 28.0565 34.7331 28.5693 34.9428C29.0822 35.1526 29.5213 35.5097 29.8311 35.969C30.141 36.4283 30.3077 36.9692 30.3101 37.5232C30.3126 38.0772 30.1507 38.6196 29.8449 39.0816C29.5391 39.5436 29.1031 39.9046 28.5922 40.1188C28.5001 40.1574 28.406 40.191 28.3104 40.2198ZM26.9424 35.6419C26.8748 35.6621 26.8084 35.6859 26.7434 35.7131C26.2601 35.9161 25.8773 36.3027 25.6789 36.7879C25.4805 37.273 25.4829 37.8171 25.6855 38.3005C25.8333 38.6529 26.08 38.9549 26.3958 39.17C26.7117 39.3852 27.083 39.5042 27.4651 39.5127C27.8471 39.5212 28.2234 39.4188 28.5484 39.2179C28.8735 39.017 29.1334 38.7263 29.2967 38.3808C29.46 38.0353 29.5197 37.6499 29.4685 37.2713C29.4174 36.8926 29.2576 36.5368 29.0086 36.247C28.7595 35.9572 28.4318 35.7458 28.0651 35.6383C27.6984 35.5309 27.3085 35.532 26.9424 35.6415V35.6419Z"
            fill="#292A2E" />
        <path
            d="M27.5109 43.1333C29.5339 43.1333 31.1738 42.0379 31.1738 40.6867C31.1738 39.3356 29.5339 38.2402 27.5109 38.2402C25.4879 38.2402 23.8479 39.3356 23.8479 40.6867C23.8479 42.0379 25.4879 43.1333 27.5109 43.1333Z"
            fill="white" />
        <path
            d="M29.1323 43.3121C28.6071 43.4673 28.0622 43.5456 27.5146 43.5444C25.2292 43.5444 23.4364 42.2921 23.4364 40.6893C23.4364 39.0864 25.2238 37.8296 27.5084 37.8271C28.5045 37.808 29.4845 38.08 30.3281 38.6098C30.7071 38.8072 31.0247 39.1047 31.2464 39.4699C31.4682 39.8351 31.5856 40.2541 31.586 40.6813C31.5864 41.1086 31.4697 41.5278 31.2486 41.8934C31.0275 42.259 30.7104 42.5571 30.3319 42.7551C29.9618 42.9991 29.5575 43.1868 29.1323 43.3121ZM26.1408 38.8471C25.0401 39.1766 24.2599 39.888 24.2603 40.6872C24.2603 41.79 25.7503 42.7205 27.5146 42.7189C28.348 42.7364 29.1685 42.5108 29.8758 42.0697C30.1411 41.9475 30.3658 41.7518 30.5232 41.5058C30.6806 41.2597 30.7641 40.9737 30.7638 40.6817C30.7636 40.3896 30.6795 40.1038 30.5217 39.858C30.3639 39.6123 30.1389 39.417 29.8734 39.2953C29.1655 38.855 28.3447 38.6308 27.5113 38.6502C27.0473 38.649 26.5857 38.7153 26.1408 38.8471Z"
            fill="#292A2E" />
        <path d="M28.4093 43.0576L28.3228 38.2997L27.1397 38.252L27.0569 43.1132L28.4093 43.0576Z"
            fill="#292A2E" />
        <path
            d="M22.6512 41.7212C22.8601 41.7212 23.0294 41.5519 23.0294 41.343C23.0294 41.1342 22.8601 40.9648 22.6512 40.9648C22.4424 40.9648 22.2731 41.1342 22.2731 41.343C22.2731 41.5519 22.4424 41.7212 22.6512 41.7212Z"
            fill="#292A2E" />
        <path
            d="M22.9466 39.6977C23.1555 39.6977 23.3248 39.5284 23.3248 39.3196C23.3248 39.1107 23.1555 38.9414 22.9466 38.9414C22.7378 38.9414 22.5685 39.1107 22.5685 39.3196C22.5685 39.5284 22.7378 39.6977 22.9466 39.6977Z"
            fill="#292A2E" />
        <path
            d="M145.309 54.6911C145.221 54.6911 145.135 54.6628 145.065 54.6104C144.994 54.558 144.942 54.4842 144.916 54.3999C143.549 49.2975 143.185 43.9787 143.842 38.7375C144.907 31.0755 149.133 21.0196 163.216 16.6164C165.197 15.9793 167.23 15.5133 169.291 15.2236C169.955 11.0791 172.479 6.5832 178.125 3.48129C191.538 -3.88913 200.599 2.72373 200.689 2.79129C200.776 2.85684 200.834 2.95443 200.849 3.06259C200.865 3.17074 200.837 3.28061 200.771 3.36801C200.705 3.45541 200.608 3.51319 200.5 3.52864C200.392 3.54409 200.282 3.51595 200.194 3.4504C200.109 3.38613 191.45 -2.90048 178.522 4.20383C173.246 7.10265 170.832 11.2632 170.145 15.1256C176.357 14.5139 179.331 16.5859 180.666 18.1509C181.492 19.092 182.023 20.2553 182.193 21.496C182.362 22.7366 182.163 23.9997 181.619 25.1279C181.19 26.0398 180.494 26.8 179.624 27.3081C178.753 27.8162 177.749 28.0484 176.744 27.974C173.275 27.7705 170.404 24.8523 169.431 20.5393C169.11 19.0793 169.025 17.5773 169.178 16.0903C167.24 16.3689 165.328 16.8086 163.462 17.4048C152.486 20.8367 146.161 28.0535 144.658 38.8533C144.014 43.9755 144.369 49.1739 145.703 54.161C145.722 54.2226 145.726 54.2877 145.715 54.3512C145.705 54.4147 145.679 54.4748 145.641 54.5266C145.602 54.5784 145.552 54.6205 145.495 54.6495C145.437 54.6785 145.374 54.6936 145.309 54.6936V54.6911ZM170.018 15.9874C169.847 17.446 169.92 18.9231 170.235 20.3576C171.125 24.3032 173.699 26.9697 176.792 27.1513C177.635 27.2117 178.477 27.0159 179.207 26.5895C179.937 26.1632 180.521 25.5262 180.882 24.7621C181.353 23.7783 181.524 22.6777 181.374 21.5973C181.224 20.517 180.76 19.5046 180.038 18.6864C178.112 16.4261 174.597 15.5132 170.018 15.9874Z"
            fill="#292A2E" />
        <path
            d="M210.284 6.95445C209.729 6.95329 209.186 6.79526 208.717 6.4986C208.249 6.20194 207.873 5.77874 207.634 5.27786C207.396 4.77697 207.304 4.21881 207.369 3.66779C207.434 3.11678 207.653 2.59537 208.002 2.16374C208.35 1.73212 208.814 1.40787 209.339 1.22843C209.864 1.04899 210.429 1.02166 210.969 1.14961C211.509 1.27755 212.001 1.55555 212.39 1.95152C212.779 2.34749 213.048 2.84529 213.165 3.38747C213.258 3.81725 213.253 4.26225 213.151 4.68987C213.049 5.11749 212.853 5.51691 212.577 5.85888C212.3 6.20085 211.951 6.47672 211.555 6.66628C211.158 6.85584 210.724 6.9543 210.284 6.95445ZM210.29 1.89419C209.852 1.89418 209.425 2.03006 209.067 2.28312C208.71 2.53617 208.439 2.89393 208.293 3.3071C208.148 3.72026 208.133 4.16849 208.253 4.59C208.373 5.01151 208.62 5.38555 208.961 5.66057C209.302 5.9356 209.72 6.09806 210.157 6.12557C210.595 6.15308 211.03 6.04429 211.403 5.81418C211.776 5.58408 212.068 5.24399 212.239 4.84079C212.411 4.43759 212.453 3.99114 212.36 3.56295C212.26 3.08921 211.999 2.66457 211.622 2.3606C211.245 2.05662 210.775 1.8919 210.29 1.89419Z"
            fill="#292A2E" />
        <path
            d="M209.044 13.678C208.289 13.6779 207.563 13.3884 207.015 12.869C206.467 12.3497 206.139 11.64 206.098 10.8861C206.058 10.1321 206.308 9.39136 206.797 8.81623C207.286 8.2411 207.977 7.87539 208.728 7.79438C209.478 7.71338 210.231 7.92324 210.832 8.38077C211.433 8.8383 211.835 9.50867 211.956 10.2539C212.077 10.9991 211.908 11.7624 211.484 12.3868C211.059 13.0111 210.411 13.4489 209.674 13.61C209.467 13.6552 209.256 13.678 209.044 13.678ZM209.054 8.6173C208.902 8.61736 208.75 8.6338 208.601 8.66632C208.075 8.78189 207.613 9.09474 207.31 9.5405C207.008 9.98627 206.888 10.531 206.975 11.0627C207.061 11.5944 207.349 12.0726 207.778 12.3989C208.206 12.7251 208.744 12.8747 209.279 12.8168C209.815 12.7588 210.308 12.4978 210.657 12.0874C211.006 11.677 211.185 11.1484 211.156 10.6104C211.127 10.0724 210.893 9.56598 210.502 9.19524C210.111 8.82449 209.593 8.61766 209.054 8.6173Z"
            fill="#292A2E" />
        <path
            d="M213.468 8.15693C213.728 6.74988 212.23 5.29411 210.124 4.90537C208.017 4.51664 206.099 5.34216 205.839 6.7492C205.579 8.15624 207.077 9.61201 209.183 10.0007C211.29 10.3895 213.208 9.56397 213.468 8.15693Z"
            fill="white" />
        <path
            d="M210.221 10.5102C209.848 10.5096 209.475 10.4751 209.109 10.4072C208.073 10.2353 207.109 9.76488 206.337 9.05356C205.998 8.76504 205.738 8.39593 205.581 7.98034C205.423 7.56475 205.372 7.11609 205.434 6.67584C205.534 6.24265 205.741 5.84158 206.037 5.50967C206.332 5.17776 206.707 4.92571 207.126 4.7768C208.106 4.40671 209.168 4.31156 210.198 4.50164C211.228 4.69172 212.187 5.1598 212.97 5.85526C213.308 6.14378 213.568 6.51289 213.726 6.92848C213.884 7.34407 213.934 7.79273 213.873 8.23298C213.773 8.66617 213.566 9.06724 213.27 9.39915C212.974 9.73106 212.6 9.98311 212.181 10.132C211.56 10.3891 210.893 10.5177 210.221 10.5102ZM209.083 5.2217C208.524 5.21458 207.969 5.32066 207.451 5.53354C207.159 5.63152 206.895 5.80096 206.684 6.02653C206.473 6.2521 206.322 6.52667 206.244 6.82538C206.211 7.13221 206.254 7.44264 206.37 7.72856C206.486 8.01447 206.672 8.26685 206.911 8.46284C207.577 9.04441 208.388 9.436 209.257 9.59654C210.127 9.75708 211.024 9.68065 211.854 9.37528C212.147 9.2773 212.411 9.10786 212.621 8.88229C212.832 8.65672 212.983 8.38215 213.061 8.08344C213.095 7.77659 213.052 7.46609 212.936 7.18014C212.819 6.89418 212.633 6.64183 212.395 6.44598C211.739 5.84775 210.923 5.45365 210.047 5.31191C209.729 5.25283 209.407 5.22263 209.085 5.2217H209.083Z"
            fill="#292A2E" />
        <path d="M209.178 4.8125L208.349 9.78296L209.572 10.0614L210.596 5.01559L209.178 4.8125Z"
            fill="#292A2E" />
        <path
            d="M214.144 10.1582C214.365 10.1582 214.544 9.97896 214.544 9.75783C214.544 9.53669 214.365 9.35742 214.144 9.35742C213.923 9.35742 213.743 9.53669 213.743 9.75783C213.743 9.97896 213.923 10.1582 214.144 10.1582Z"
            fill="#292A2E" />
        <path
            d="M214.842 8.1094C215.063 8.1094 215.242 7.93014 215.242 7.709C215.242 7.48786 215.063 7.30859 214.842 7.30859C214.62 7.30859 214.441 7.48786 214.441 7.709C214.441 7.93014 214.62 8.1094 214.842 8.1094Z"
            fill="#292A2E" />
    </g>
</svg>
