<svg width="283" height="221" viewBox="0 0 283 221" fill="none" xmlns="http://www.w3.org/2000/svg">
<g clip-path="url(#clip0_5522_56201)">
<path d="M228.58 0H192.439V47.0419H228.58V0Z" fill="#F4F4F4"/>
<path d="M228.581 47.0421H229.753V0.000247955H228.581V47.0421Z" fill="#F4F4F4"/>
<path opacity="0.05" d="M228.581 47.0421H229.753V0.000247955H228.581V47.0421Z" fill="#292A2E"/>
<path opacity="0.05" d="M221.997 8.56995H199.023V38.4733H221.997V8.56995Z" fill="#292A2E"/>
<path opacity="0.03" d="M221.997 8.56995H220.799V38.4733H221.997V8.56995Z" fill="#292A2E"/>
<path d="M258.138 58.6094H228.581V88.4381H258.138V58.6094Z" fill="#F4F4F4"/>
<path opacity="0.05" d="M252.754 64.0442H233.965V83.0057H252.754V64.0442Z" fill="#292A2E"/>
<path d="M258.138 88.4393H259.31V58.6106H258.138V88.4393Z" fill="#F4F4F4"/>
<path opacity="0.05" d="M258.138 88.4393H259.31V58.6106H258.138V88.4393Z" fill="#292A2E"/>
<path opacity="0.03" d="M252.754 64.0442H251.556V83.0057H252.754V64.0442Z" fill="#292A2E"/>
<path d="M160.749 4.89648H54.4092V111.237H160.749V4.89648Z" fill="#F4F4F4"/>
<path d="M161.968 4.89648H160.749V111.237H161.968V4.89648Z" fill="#F4F4F4"/>
<path opacity="0.05" d="M161.968 4.89648H160.749V111.237H161.968V4.89648Z" fill="#292A2E"/>
<path opacity="0.05" d="M134.988 78.1732V50.3512H112.198V66.5153H76.8951V95.1356H61.8911V111.236H76.8951H79.7857H155.634V78.1732H134.988Z" fill="#292A2E"/>
<path opacity="0.34" d="M131.719 53.3715H115.123V56.3922H131.719V53.3715Z" fill="#FFFFFA"/>
<path opacity="0.34" d="M131.719 59.6323H115.123V62.653H131.719V59.6323Z" fill="#FFFFFA"/>
<path opacity="0.34" d="M131.719 65.8928H115.123V68.9135H131.719V65.8928Z" fill="#FFFFFA"/>
<path d="M160.749 57.4698H139.352V4.89648H137.582V57.4698H79.7858V4.89648H78.016V57.4698H54.4092V59.2396H78.016V111.237H79.7858V59.2396H137.582V111.237H139.352V59.2396H160.749V57.4698Z" fill="white"/>
<path d="M164.985 111.108H50.1729V114.644H164.985V111.108Z" fill="#F4F4F4"/>
<path opacity="0.1" d="M164.985 111.108H50.1729V114.644H164.985V111.108Z" fill="#292A2E"/>
<path opacity="0.1" d="M166.643 111.108H164.986V114.644H166.643V111.108Z" fill="#292A2E"/>
<path opacity="0.1" d="M166.643 111.108H164.986V114.644H166.643V111.108Z" fill="#292A2E"/>
<path opacity="0.05" d="M216.184 215.564H210.109V219.62H216.184V215.564Z" fill="#292A2E"/>
<path opacity="0.05" d="M254.318 215.564H248.244V219.62H254.318V215.564Z" fill="#292A2E"/>
<path d="M259.887 153.754H204.541V215.564H259.887V153.754Z" fill="#F4F4F4"/>
<path opacity="0.03" d="M259.887 153.754H204.541V215.564H259.887V153.754Z" fill="#292A2E"/>
<path d="M245.188 153.754H189.842V215.564H245.188V153.754Z" fill="#F4F4F4"/>
<path opacity="0.05" d="M201.485 215.564H195.41V219.62H201.485V215.564Z" fill="#292A2E"/>
<path opacity="0.05" d="M239.619 215.564H233.544V219.62H239.619V215.564Z" fill="#292A2E"/>
<path opacity="0.7" d="M242.21 157.575H192.819V173.252H242.21V157.575Z" fill="white"/>
<path opacity="0.7" d="M242.21 177.089H192.819V192.765H242.21V177.089Z" fill="white"/>
<path opacity="0.7" d="M242.21 196.602H192.819V212.279H242.21V196.602Z" fill="white"/>
<path opacity="0.05" d="M217.515 167.607C218.726 167.607 219.708 166.625 219.708 165.414C219.708 164.202 218.726 163.22 217.515 163.22C216.303 163.22 215.321 164.202 215.321 165.414C215.321 166.625 216.303 167.607 217.515 167.607Z" fill="#292A2E"/>
<path opacity="0.05" d="M217.515 187.121C218.726 187.121 219.708 186.139 219.708 184.927C219.708 183.716 218.726 182.734 217.515 182.734C216.303 182.734 215.321 183.716 215.321 184.927C215.321 186.139 216.303 187.121 217.515 187.121Z" fill="#292A2E"/>
<path opacity="0.05" d="M217.515 206.634C218.726 206.634 219.708 205.652 219.708 204.441C219.708 203.229 218.726 202.247 217.515 202.247C216.303 202.247 215.321 203.229 215.321 204.441C215.321 205.652 216.303 206.634 217.515 206.634Z" fill="#292A2E"/>
<path d="M204.328 23.3217H132.166C126.196 23.3217 121.357 28.161 121.357 34.1307V203.766C121.357 209.736 126.196 214.575 132.166 214.575H204.328C210.297 214.575 215.137 209.736 215.137 203.766V34.1307C215.137 28.161 210.297 23.3217 204.328 23.3217Z" fill="#292A2E"/>
<path d="M204.294 26.6958H132.2C128.101 26.6958 124.778 30.0188 124.778 34.118V203.525C124.778 207.624 128.101 210.947 132.2 210.947H204.294C208.393 210.947 211.716 207.624 211.716 203.525V34.118C211.716 30.0188 208.393 26.6958 204.294 26.6958Z" fill="white"/>
<path d="M150.441 25.3005H186.053V28.9853C186.053 29.5087 185.95 30.027 185.75 30.5106C185.55 30.9942 185.256 31.4337 184.886 31.8039C184.516 32.174 184.077 32.4677 183.593 32.668C183.11 32.8683 182.591 32.9715 182.068 32.9715H154.426C153.369 32.9715 152.356 32.5516 151.609 31.8044C150.861 31.0571 150.441 30.0436 150.441 28.9868V25.3005Z" fill="#292A2E"/>
<path d="M23.263 214.265L22.6377 218.228C22.57 218.657 22.3524 219.048 22.0234 219.332C21.6945 219.616 21.2755 219.774 20.841 219.778L4.91294 219.933C4.68418 219.935 4.46152 219.859 4.28152 219.718C4.10151 219.577 3.97488 219.379 3.9224 219.156C3.86992 218.933 3.89472 218.699 3.99273 218.493C4.09074 218.286 4.25613 218.119 4.46174 218.019L14.0242 213.36L23.263 214.265Z" fill="#E98862"/>
<path d="M257.82 182.26C257.744 182.26 257.67 182.229 257.616 182.175C257.208 181.768 256.544 174.291 254.755 152.031C254.023 142.922 253.331 134.319 252.827 129.091C252.791 128.717 252.646 128.674 252.598 128.659C251.908 128.454 249.807 130.108 248.634 131.558C248.586 131.618 248.516 131.656 248.439 131.664C248.363 131.672 248.287 131.65 248.227 131.601C248.167 131.553 248.129 131.483 248.121 131.407C248.113 131.331 248.136 131.254 248.184 131.195C248.96 130.235 251.486 127.724 252.765 128.105C253.022 128.183 253.343 128.407 253.403 129.035C253.908 134.268 254.599 142.874 255.332 151.985C256.419 165.512 257.651 180.837 258.055 181.802C258.086 181.845 258.105 181.896 258.109 181.949C258.113 182.002 258.102 182.055 258.078 182.103C258.054 182.15 258.017 182.19 257.971 182.217C257.926 182.245 257.874 182.26 257.82 182.26Z" fill="#262626"/>
<path d="M252.083 138.685C256.883 134.837 258.474 128.849 255.636 125.31C252.799 121.771 246.609 122.02 241.809 125.867C237.01 129.714 235.419 135.702 238.256 139.242C241.093 142.781 247.284 142.532 252.083 138.685Z" fill="#3C904F"/>
<path opacity="0.2" d="M252.083 138.685C256.883 134.837 258.474 128.849 255.636 125.31C252.799 121.771 246.609 122.02 241.809 125.867C237.01 129.714 235.419 135.702 238.256 139.242C241.093 142.781 247.284 142.532 252.083 138.685Z" fill="white"/>
<path d="M239.602 140.142C239.574 140.142 239.547 140.134 239.524 140.119C239.501 140.105 239.482 140.084 239.471 140.059C239.459 140.034 239.455 140.006 239.458 139.979C239.462 139.952 239.473 139.926 239.491 139.905L253.168 123.411C253.181 123.396 253.195 123.384 253.212 123.375C253.229 123.366 253.247 123.361 253.266 123.359C253.285 123.357 253.304 123.359 253.323 123.365C253.341 123.37 253.358 123.38 253.372 123.392C253.387 123.404 253.399 123.419 253.408 123.436C253.417 123.452 253.422 123.471 253.424 123.49C253.426 123.509 253.424 123.528 253.418 123.546C253.412 123.564 253.403 123.581 253.391 123.596L239.713 140.09C239.699 140.106 239.682 140.119 239.663 140.128C239.644 140.137 239.623 140.142 239.602 140.142Z" fill="white"/>
<path d="M260.804 178.724C260.771 178.724 260.739 178.719 260.709 178.708C260.636 178.683 260.577 178.63 260.544 178.561C260.51 178.492 260.506 178.413 260.531 178.34L265.668 163.564C265.82 163.13 266.078 162.741 266.418 162.432C266.759 162.123 267.172 161.905 267.619 161.797C268.065 161.689 268.532 161.695 268.976 161.815C269.42 161.934 269.827 162.163 270.16 162.48L272.876 165.075C272.904 165.101 272.927 165.133 272.944 165.168C272.96 165.203 272.969 165.24 272.97 165.279C272.971 165.317 272.965 165.356 272.951 165.392C272.937 165.428 272.917 165.461 272.89 165.489C272.863 165.516 272.831 165.539 272.796 165.554C272.761 165.569 272.723 165.577 272.684 165.578C272.646 165.578 272.607 165.571 272.572 165.557C272.536 165.542 272.504 165.52 272.476 165.493L269.76 162.898C269.498 162.648 269.176 162.467 268.826 162.373C268.475 162.279 268.107 162.274 267.754 162.359C267.401 162.444 267.075 162.617 266.806 162.86C266.537 163.104 266.334 163.411 266.215 163.754L261.077 178.53C261.057 178.587 261.02 178.636 260.971 178.671C260.922 178.706 260.864 178.724 260.804 178.724Z" fill="#262626"/>
<path d="M280.465 173.256C284.022 170.441 283.811 164.249 279.993 159.426C276.176 154.603 270.198 152.975 266.641 155.791C263.084 158.606 263.295 164.798 267.113 169.621C270.931 174.444 276.909 176.072 280.465 173.256Z" fill="#3C904F"/>
<path d="M255.486 181.318C255.421 181.318 255.358 181.296 255.307 181.256C255.256 181.216 255.22 181.159 255.205 181.096L246.583 145.046C246.524 144.8 246.399 144.575 246.22 144.396C246.042 144.217 245.818 144.091 245.572 144.031C245.327 143.972 245.069 143.981 244.829 144.058C244.588 144.134 244.373 144.276 244.208 144.467L241.55 147.536C241.525 147.565 241.495 147.589 241.461 147.606C241.427 147.623 241.39 147.633 241.352 147.636C241.314 147.638 241.276 147.634 241.24 147.622C241.204 147.61 241.171 147.591 241.142 147.566C241.113 147.541 241.09 147.511 241.073 147.477C241.056 147.443 241.045 147.406 241.043 147.368C241.04 147.33 241.045 147.292 241.057 147.256C241.069 147.22 241.088 147.187 241.113 147.158L243.77 144.087C244.005 143.815 244.311 143.614 244.653 143.504C244.995 143.395 245.361 143.383 245.71 143.468C246.058 143.553 246.377 143.733 246.631 143.987C246.884 144.242 247.062 144.561 247.146 144.91L255.768 180.961C255.786 181.036 255.773 181.114 255.733 181.18C255.693 181.245 255.628 181.292 255.554 181.31C255.532 181.315 255.509 181.318 255.486 181.318Z" fill="#262626"/>
<path d="M252.306 155.546C253.354 149.485 250.58 143.945 246.111 143.172C241.641 142.399 237.168 146.686 236.119 152.747C235.071 158.808 237.845 164.348 242.315 165.121C246.785 165.894 251.258 161.607 252.306 155.546Z" fill="#3C904F"/>
<path d="M257.82 182.261C257.809 182.261 257.797 182.26 257.785 182.259C257.709 182.249 257.639 182.21 257.592 182.15C257.545 182.089 257.524 182.013 257.533 181.936L263.039 137.234C263.099 136.747 263.298 136.287 263.613 135.911C263.927 135.535 264.344 135.257 264.813 135.112C265.282 134.967 265.782 134.96 266.255 135.093C266.727 135.225 267.151 135.492 267.476 135.859L273.769 142.987C273.82 143.044 273.846 143.12 273.841 143.196C273.836 143.273 273.801 143.344 273.744 143.395C273.715 143.42 273.682 143.44 273.646 143.452C273.61 143.464 273.572 143.469 273.534 143.467C273.458 143.462 273.386 143.427 273.335 143.37L267.042 136.242C266.791 135.958 266.463 135.752 266.098 135.65C265.733 135.547 265.346 135.553 264.984 135.665C264.622 135.777 264.3 135.991 264.057 136.282C263.813 136.573 263.659 136.928 263.613 137.304L258.107 182.007C258.099 182.077 258.065 182.141 258.012 182.188C257.959 182.235 257.891 182.261 257.82 182.261Z" fill="#262626"/>
<path d="M280.223 146.947C282.419 142.978 279.836 137.346 274.453 134.369C269.071 131.392 262.928 132.196 260.732 136.166C258.536 140.135 261.12 145.766 266.502 148.744C271.884 151.721 278.028 150.917 280.223 146.947Z" fill="#3C904F"/>
<path opacity="0.2" d="M280.465 173.256C284.022 170.441 283.811 164.249 279.993 159.426C276.176 154.603 270.198 152.975 266.641 155.791C263.084 158.606 263.295 164.798 267.113 169.621C270.931 174.444 276.909 176.072 280.465 173.256Z" fill="white"/>
<path opacity="0.5" d="M252.306 155.546C253.354 149.485 250.58 143.945 246.111 143.172C241.641 142.399 237.168 146.686 236.119 152.747C235.071 158.808 237.845 164.348 242.315 165.121C246.785 165.894 251.258 161.607 252.306 155.546Z" fill="white"/>
<path opacity="0.5" d="M280.223 146.947C282.419 142.978 279.836 137.346 274.453 134.369C269.071 131.392 262.928 132.196 260.732 136.166C258.536 140.135 261.12 145.766 266.502 148.744C271.884 151.721 278.028 150.917 280.223 146.947Z" fill="white"/>
<path d="M264.863 220.191H250.778L248.444 175.128H267.196L264.863 220.191Z" fill="#292A2E"/>
<path opacity="0.3" d="M264.863 220.191H250.778L248.444 175.128H267.196L264.863 220.191Z" fill="white"/>
<path d="M280.465 173.399C280.443 173.399 280.422 173.394 280.402 173.384C280.382 173.375 280.365 173.361 280.351 173.344L266.526 155.878C266.515 155.863 266.506 155.846 266.501 155.828C266.495 155.81 266.494 155.791 266.496 155.772C266.498 155.753 266.504 155.735 266.513 155.718C266.523 155.702 266.535 155.687 266.55 155.675C266.565 155.663 266.582 155.655 266.6 155.649C266.618 155.644 266.638 155.643 266.656 155.645C266.675 155.647 266.694 155.653 266.71 155.662C266.727 155.671 266.741 155.684 266.753 155.699L280.578 173.164C280.595 173.186 280.606 173.211 280.609 173.238C280.611 173.265 280.607 173.293 280.595 173.317C280.583 173.341 280.565 173.362 280.542 173.377C280.519 173.391 280.492 173.399 280.465 173.399Z" fill="white"/>
<path d="M279.304 148.347C279.274 148.347 279.244 148.336 279.219 148.318L261.528 135.401C261.513 135.389 261.5 135.375 261.49 135.359C261.48 135.343 261.473 135.325 261.47 135.306C261.468 135.287 261.468 135.268 261.473 135.25C261.477 135.231 261.485 135.214 261.497 135.198C261.508 135.183 261.522 135.17 261.538 135.16C261.554 135.15 261.572 135.144 261.591 135.141C261.61 135.138 261.629 135.139 261.648 135.143C261.666 135.148 261.683 135.156 261.699 135.167L279.39 148.086C279.414 148.105 279.432 148.13 279.441 148.159C279.45 148.187 279.45 148.218 279.44 148.247C279.431 148.276 279.413 148.301 279.388 148.319C279.364 148.337 279.335 148.346 279.304 148.347Z" fill="white"/>
<path d="M241.596 164.934C241.584 164.934 241.571 164.932 241.559 164.929C241.522 164.919 241.49 164.895 241.471 164.862C241.452 164.829 241.447 164.789 241.457 164.752L247.088 143.652C247.098 143.615 247.123 143.584 247.156 143.565C247.189 143.546 247.228 143.54 247.265 143.549C247.302 143.559 247.333 143.583 247.353 143.617C247.372 143.65 247.377 143.689 247.367 143.726L241.737 164.826C241.729 164.857 241.711 164.885 241.685 164.904C241.66 164.924 241.628 164.934 241.596 164.934Z" fill="white"/>
<path d="M41.895 194.068C41.895 194.068 41.7874 217.443 58.703 219.607L74.6282 205.032L84.5016 185.339L47.5454 189.416L41.895 194.068Z" fill="#262626"/>
<path d="M41.4399 192.794L41.3893 192.807C41.3893 192.807 41.2247 191.815 41.4399 192.794Z" fill="#333333"/>
<path d="M106.653 124.93C106.651 124.92 106.642 124.913 106.637 124.904L106.839 124.607C106.98 124.409 107.048 124.168 107.032 123.926C107.015 123.683 106.916 123.454 106.75 123.276C106.644 123.167 106.514 123.083 106.371 123.03C106.228 122.977 106.076 122.956 105.924 122.969C105.772 122.982 105.625 123.029 105.493 123.105C105.361 123.182 105.248 123.287 105.162 123.413L104.693 124.098C104.69 124.095 104.69 124.09 104.686 124.087C104.682 124.085 104.675 124.087 104.67 124.083C104.756 123.867 104.766 123.627 104.698 123.404C104.63 123.181 104.488 122.988 104.296 122.856C103.821 122.483 103.166 122.832 102.863 123.275L100.067 127.209L100.327 125.843C100.383 125.578 100.336 125.302 100.196 125.07C100.056 124.838 99.8329 124.668 99.5724 124.594C99.4366 124.561 99.2955 124.555 99.1575 124.578C99.0196 124.601 98.8877 124.652 98.7701 124.727C98.6524 124.803 98.5514 124.902 98.4732 125.018C98.395 125.134 98.3412 125.264 98.3152 125.402L96.9003 132.859C96.7344 133.734 96.916 134.639 97.4067 135.382C97.8974 136.125 98.6585 136.647 99.5282 136.838C100.537 137.059 101.589 136.974 102.549 136.594C103.509 136.214 104.334 135.555 104.917 134.703C104.917 134.703 107.028 124.585 106.653 124.93Z" fill="#E98862"/>
<path d="M104.217 113.644L105.067 113.727C105.155 113.731 105.241 113.752 105.32 113.79C105.399 113.828 105.47 113.882 105.527 113.948C105.585 114.014 105.629 114.091 105.656 114.174C105.684 114.257 105.694 114.345 105.686 114.433L103.521 131.943C103.489 132.125 103.389 132.287 103.241 132.398C103.094 132.509 102.91 132.56 102.727 132.541L101.753 132.469L104.217 113.644Z" fill="#292A2E"/>
<path d="M101.908 132.488L100.105 132.352C100.024 132.35 99.9447 132.332 99.8714 132.298C99.7982 132.264 99.7325 132.216 99.6786 132.156C99.6247 132.096 99.5837 132.026 99.558 131.949C99.5324 131.873 99.5226 131.792 99.5295 131.712L101.694 114.05C101.723 113.885 101.813 113.737 101.947 113.637C102.081 113.536 102.248 113.49 102.414 113.508L104.218 113.644C104.298 113.646 104.378 113.664 104.451 113.698C104.524 113.731 104.59 113.78 104.644 113.84C104.697 113.9 104.739 113.97 104.764 114.046C104.79 114.123 104.8 114.204 104.793 114.284L102.628 131.945C102.599 132.11 102.509 132.258 102.375 132.359C102.242 132.459 102.075 132.506 101.908 132.488Z" fill="#292A2E"/>
<path d="M101.724 132.123L100.127 131.992C100.071 131.991 100.017 131.979 99.9663 131.955C99.9159 131.932 99.8708 131.899 99.8338 131.858C99.7968 131.817 99.7686 131.769 99.751 131.716C99.7334 131.664 99.7267 131.608 99.7315 131.553L101.878 114.209C101.898 114.096 101.96 113.995 102.052 113.926C102.144 113.856 102.258 113.825 102.372 113.837L103.949 113.97C104.004 113.971 104.059 113.983 104.109 114.007C104.159 114.03 104.204 114.063 104.241 114.104C104.278 114.145 104.306 114.193 104.324 114.246C104.342 114.298 104.348 114.354 104.343 114.409L102.218 131.752C102.198 131.865 102.136 131.966 102.044 132.035C101.953 132.104 101.838 132.136 101.724 132.123Z" fill="white"/>
<path d="M103.549 114.553L102.85 114.5C102.82 114.499 102.791 114.492 102.764 114.48C102.736 114.468 102.712 114.45 102.692 114.428C102.673 114.406 102.657 114.38 102.648 114.352C102.639 114.323 102.635 114.294 102.638 114.264L102.703 113.726L103.88 113.815L103.814 114.353C103.804 114.414 103.77 114.468 103.721 114.505C103.672 114.542 103.61 114.559 103.549 114.553Z" fill="#292A2E"/>
<path d="M100.57 126.808C100.682 126.627 100.847 126.485 101.042 126.402C101.238 126.318 101.455 126.298 101.663 126.343C101.663 126.324 101.668 126.306 101.679 126.29C101.69 126.278 101.703 126.27 101.719 126.265C101.734 126.26 101.75 126.26 101.766 126.263L101.1 125.695C100.9 125.532 100.766 125.302 100.723 125.047C100.679 124.793 100.729 124.532 100.864 124.311C101.003 124.098 101.217 123.944 101.464 123.88C101.711 123.815 101.972 123.845 102.199 123.962C102.199 123.952 102.205 123.943 102.207 123.934L101.934 123.7C101.746 123.545 101.618 123.331 101.57 123.092C101.523 122.854 101.559 122.607 101.673 122.392C101.747 122.259 101.85 122.144 101.974 122.055C102.098 121.966 102.24 121.906 102.391 121.879C102.541 121.852 102.695 121.859 102.842 121.898C102.989 121.938 103.126 122.01 103.242 122.109L103.874 122.648C103.876 122.644 103.874 122.639 103.877 122.635C103.881 122.632 103.888 122.631 103.892 122.628C103.752 122.441 103.68 122.212 103.687 121.979C103.695 121.746 103.781 121.522 103.932 121.345C104.293 120.861 105.017 121.026 105.425 121.375L106.627 122.573C106.812 122.758 106.949 122.986 107.025 123.236C107.101 123.486 107.114 123.752 107.062 124.008C106.62 126.23 105.327 132.005 104.023 130.892L100.813 128.155C100.626 127.99 100.501 127.768 100.457 127.524C100.413 127.279 100.453 127.027 100.57 126.808Z" fill="#E98862"/>
<path d="M94.2421 132.245L89.5245 157.772L77.4657 139.187L68.2529 150.01L87.4672 176.256L87.6301 176.408C88.6194 177.308 89.8214 177.941 91.123 178.247C92.4246 178.554 93.7828 178.524 95.0697 178.161C96.3566 177.798 97.5298 177.113 98.4788 176.171C99.4277 175.228 100.121 174.06 100.494 172.776L108.408 134.517L94.2421 132.245Z" fill="#D41142"/>
<path d="M88.8706 160.283C88.8576 160.283 88.8447 160.281 88.8322 160.278C88.7952 160.268 88.7639 160.243 88.745 160.21C88.726 160.177 88.7211 160.137 88.7312 160.1L89.3854 157.734C89.3956 157.697 89.4201 157.665 89.4535 157.647C89.4868 157.628 89.5263 157.623 89.5633 157.633C89.6003 157.643 89.6317 157.668 89.6506 157.701C89.6696 157.734 89.6745 157.774 89.6643 157.811L89.01 160.177C89.0016 160.207 88.9834 160.234 88.9582 160.254C88.933 160.273 88.9023 160.283 88.8706 160.283Z" fill="#0C0C0C"/>
<path d="M38.0304 116.316C38.0304 116.316 37.2715 123.11 35.6278 125.513C30.8954 132.434 29.2584 140.384 33.4913 144.765C37.7241 149.146 65.9149 150.466 68.4813 140.94C70.6418 132.919 66.822 131.875 66.1822 125.151C65.893 122.108 65.0073 115.715 65.0073 115.715" fill="#0A0A0A"/>
<path d="M63.4916 136.142C63.4427 136.145 64.7138 145.041 54.3485 146.367C47.1727 147.286 43.1166 140.304 42.9546 140.337C43.6832 140.019 44.8843 139.474 45.2195 139.271C46.4878 138.504 47.4593 137.541 47.3752 135.306C47.3266 134.018 45.6687 127.718 45.5198 126.435L56.8639 126.634C57.2578 129.326 57.4614 135.714 61.4048 136.044C62.0593 136.098 62.7598 136.127 63.4916 136.142Z" fill="#E98862"/>
<path opacity="0.52" d="M58.5327 134.005C58.2506 133.492 58.0255 132.95 57.8614 132.388C57.4749 131.108 57.2295 129.79 57.1297 128.457C54.8639 128.612 52.6003 128.127 50.596 127.059C50.5468 127.844 50.1043 131.322 50.557 131.966C51.4105 133.184 54.5833 134.814 58.5327 134.005Z" fill="#0C0C0C"/>
<path d="M55.6551 133.062C51.2747 133.289 45.7094 131.292 44.8003 125.432L43.9801 120.144C43.0707 114.283 45.4117 109.055 50.9296 108.198C56.4475 107.343 61.3089 111.453 62.2182 117.314L62.5815 119.655C62.9303 121.904 63.4703 132.657 55.6551 133.062Z" fill="#E98862"/>
<path opacity="0.52" d="M57.6572 125.046H57.6679C57.8914 125.01 58.1128 124.962 58.3311 124.901C58.657 124.808 59.0851 124.65 59.0397 124.357C58.9879 124.024 57.5143 120.563 57.3463 120.169C57.339 120.152 57.3284 120.137 57.3152 120.124C57.302 120.111 57.2863 120.1 57.2691 120.093C57.2519 120.086 57.2334 120.083 57.2149 120.083C57.1963 120.083 57.1779 120.087 57.1609 120.094C57.1438 120.102 57.1283 120.112 57.1153 120.125C57.1022 120.139 57.092 120.154 57.085 120.171C57.078 120.189 57.0746 120.207 57.0747 120.226C57.0749 120.244 57.0787 120.263 57.0859 120.28C57.7147 121.755 58.725 124.176 58.76 124.401C58.7201 124.503 58.1784 124.682 57.6236 124.768C57.5875 124.774 57.5548 124.793 57.5326 124.822C57.5104 124.851 57.5003 124.888 57.5045 124.924C57.5087 124.96 57.5269 124.994 57.5552 125.017C57.5834 125.04 57.6196 125.051 57.656 125.048L57.6572 125.046Z" fill="#0C0C0C"/>
<path opacity="0.52" d="M56.7616 127.533C57.66 127.446 58.5255 127.15 59.2883 126.667C59.3056 126.659 59.3208 126.646 59.3331 126.631C59.3455 126.617 59.3546 126.599 59.3599 126.581C59.3653 126.562 59.3668 126.543 59.3643 126.523C59.3617 126.504 59.3553 126.486 59.3454 126.469C59.3354 126.453 59.3221 126.438 59.3064 126.427C59.2907 126.416 59.2728 126.408 59.2539 126.404C59.2349 126.4 59.2154 126.4 59.1964 126.404C59.1775 126.408 59.1595 126.415 59.1437 126.426C57.4951 127.425 55.885 127.542 54.4889 126.765C54.4608 126.748 54.4319 126.733 54.4021 126.72C54.3674 126.706 54.3286 126.706 54.2943 126.721C54.2599 126.736 54.2329 126.764 54.219 126.798C54.2052 126.833 54.2057 126.872 54.2204 126.906C54.2352 126.941 54.263 126.968 54.2977 126.981C54.3087 126.986 54.3266 126.997 54.3521 127.01C55.0855 127.42 55.9244 127.602 56.7616 127.533Z" fill="#0C0C0C"/>
<path d="M39.5324 121.831L44.4782 121.092C48.2509 119.709 49.5903 113.302 49.5903 113.302C49.5903 113.302 53.9664 117.859 65.0077 115.715C65.0077 115.715 63.3168 100.36 46.9804 104.267C41.7126 105.527 37.7919 110.664 38.0255 117.71C38.189 122.647 39.5324 121.831 39.5324 121.831Z" fill="#0A0A0A"/>
<path d="M45.4201 127.165C43.7425 127.425 42.1055 125.842 41.8452 124.165C41.5849 122.488 42.8011 121.353 44.4772 121.093L45.5155 122.082L46.861 126.941L45.4201 127.165Z" fill="#E98862"/>
<path d="M58.4427 117.414C58.9393 117.116 59.5068 116.958 60.0858 116.955C60.3708 116.951 60.6546 116.991 60.9278 117.072C61.1985 117.151 61.4582 117.264 61.7006 117.408C61.7328 117.428 61.7563 117.458 61.7665 117.495C61.7766 117.531 61.7725 117.569 61.7551 117.603C61.7376 117.636 61.7081 117.661 61.6726 117.674C61.6371 117.686 61.5983 117.684 61.5641 117.668L61.5539 117.664C61.3293 117.544 61.0906 117.453 60.8433 117.392C60.5989 117.331 60.3468 117.308 60.0954 117.323C59.5967 117.348 59.1137 117.504 58.6952 117.777L58.6816 117.786C58.633 117.818 58.5734 117.831 58.5158 117.819C58.4583 117.808 58.4075 117.775 58.3747 117.726C58.3419 117.677 58.3298 117.618 58.341 117.56C58.3521 117.503 58.3857 117.452 58.4343 117.419L58.4427 117.414Z" fill="#0C0C0C"/>
<path d="M54.0246 118.301C53.5439 118.166 53.036 118.161 52.5527 118.286C52.308 118.347 52.074 118.444 51.8585 118.575C51.6406 118.707 51.44 118.865 51.2616 119.046L51.2535 119.054C51.2398 119.068 51.2236 119.079 51.2057 119.086C51.1879 119.093 51.1687 119.097 51.1494 119.097C51.1301 119.097 51.1109 119.094 51.093 119.086C51.0752 119.079 51.0589 119.068 51.0452 119.054C51.0315 119.041 51.0207 119.024 51.0132 119.007C51.0058 118.989 51.002 118.97 51.002 118.95C51.0019 118.931 51.0057 118.912 51.0131 118.894C51.0205 118.876 51.0313 118.86 51.0449 118.846C51.2331 118.636 51.4469 118.451 51.6812 118.295C51.9178 118.136 52.177 118.013 52.45 117.931C53.0033 117.761 53.5923 117.742 54.155 117.879C54.2119 117.893 54.2608 117.929 54.291 117.979C54.3212 118.03 54.3302 118.09 54.316 118.147C54.3018 118.203 54.2656 118.252 54.2153 118.283C54.1651 118.313 54.1049 118.322 54.048 118.308L54.039 118.305L54.0246 118.301Z" fill="#0C0C0C"/>
<path opacity="0.52" d="M56.9081 128.861C57.0708 128.848 57.2321 128.821 57.3902 128.781C57.4254 128.771 57.4553 128.748 57.4736 128.716C57.4919 128.684 57.4971 128.647 57.4882 128.611C57.4792 128.576 57.4568 128.545 57.4257 128.526C57.3945 128.506 57.3571 128.5 57.3214 128.508C56.3698 128.748 55.8463 128.371 55.8237 128.355C55.809 128.344 55.7921 128.335 55.7742 128.331C55.7563 128.326 55.7377 128.325 55.7194 128.328C55.7011 128.33 55.6834 128.336 55.6675 128.346C55.6515 128.355 55.6376 128.368 55.6265 128.382C55.604 128.412 55.5943 128.45 55.5995 128.487C55.6047 128.524 55.6244 128.557 55.6543 128.58C56.0271 128.816 56.4701 128.915 56.9081 128.861Z" fill="#0C0C0C"/>
<path d="M44.4905 121.03L44.4463 120.892C50.7515 118.862 49.4282 112.7 49.4141 112.639L49.5552 112.606C49.5694 112.67 50.9207 118.959 44.4905 121.03Z" fill="#0C0C0C"/>
<path opacity="0.1" d="M53.2232 125.329C53.9449 125.275 54.498 124.803 54.4588 124.273C54.4195 123.744 53.8027 123.358 53.081 123.412C52.3594 123.465 51.8063 123.938 51.8455 124.467C51.8848 124.996 52.5016 125.382 53.2232 125.329Z" fill="#0C0C0C"/>
<path opacity="0.1" d="M60.9013 123.562C60.9421 124.091 61.5588 124.476 62.2804 124.423C62.4051 124.414 62.5285 124.392 62.6486 124.357C62.7099 123.732 62.7391 123.129 62.7455 122.57C62.5487 122.511 62.3427 122.49 62.1381 122.506C61.4156 122.559 60.8626 123.031 60.9013 123.562Z" fill="#0C0C0C"/>
<path d="M60.8992 120.081C61.2791 120.081 61.587 119.773 61.587 119.394C61.587 119.014 61.2791 118.706 60.8992 118.706C60.5194 118.706 60.2114 119.014 60.2114 119.394C60.2114 119.773 60.5194 120.081 60.8992 120.081Z" fill="#0C0C0C"/>
<path d="M54.0911 120.768C54.471 120.768 54.7789 120.46 54.7789 120.08C54.7789 119.7 54.471 119.392 54.0911 119.392C53.7112 119.392 53.4033 119.7 53.4033 120.08C53.4033 120.46 53.7112 120.768 54.0911 120.768Z" fill="#0C0C0C"/>
<path d="M80.1394 152.888C80.592 156.732 83.8571 180.62 84.5015 185.336L41.895 194.067C40.7944 189.92 35.9533 171.791 33.359 163.772C30.8829 156.119 28.543 152.226 29.1429 148.512C29.8428 144.177 35.5675 142.441 39.2766 141.142C41.5415 140.35 44.9987 139.407 44.9987 139.407C44.9987 139.407 46.5252 145.347 53.6674 144.232C63.3901 142.713 61.3557 136.055 61.4034 136.045C62.9632 135.727 70.7455 135.197 73.1904 136.042C79.8524 138.342 79.1814 144.743 80.1394 152.888Z" fill="#D41142"/>
<path d="M80.5822 155.472L80.2959 155.514L82.4547 170.355L82.741 170.314L80.5822 155.472Z" fill="#0C0C0C"/>
<path d="M25.5031 216.772L11.5713 212.894C18.0167 189.735 28.4805 151.642 29.1194 148.024C29.0662 148.366 29.0433 148.712 29.0508 149.059L43.5108 148.854C43.531 150.279 43.5432 151.139 34.3937 184.56C30.0012 200.606 25.5477 216.612 25.5031 216.772Z" fill="#D41142"/>
<path d="M39.71 162.775L36.7896 175.93L37.0719 175.992L39.9924 162.838L39.71 162.775Z" fill="#0C0C0C"/>
<path d="M70.7509 189.235C70.7509 189.235 108.742 169.608 119.265 165.978C121.991 165.038 126.972 164.172 131.241 166.669C143.978 174.116 177.611 204.438 177.611 204.438L169.441 216.647L125.01 184.827C125.01 184.827 103.721 200.015 84.5017 206.695L65.1025 204.403L70.7509 189.235Z" fill="#262626"/>
<path d="M182.605 207.97C182.605 207.97 189.41 206.864 189.974 200.54C190.538 194.216 195.544 195.739 195.544 195.739L194.831 219.947L182.734 219.591L182.605 207.97Z" fill="#D41142"/>
<path d="M58.7029 219.606C58.7029 219.606 56.6711 219.47 61.2846 219.622C78.4937 220.189 186.549 219.906 186.549 219.906L186.604 203.696L58.7394 194.623L58.7029 219.606Z" fill="#262626"/>
<path d="M104.667 197.972C104.661 197.972 104.655 197.972 104.649 197.972L92.0458 196.383C92.0078 196.378 91.9732 196.359 91.9497 196.328C91.9262 196.298 91.9158 196.26 91.9206 196.222C91.9226 196.203 91.9285 196.184 91.9378 196.168C91.9471 196.151 91.9597 196.136 91.9747 196.125C91.9898 196.113 92.007 196.105 92.0255 196.1C92.0439 196.095 92.0631 196.094 92.082 196.096L104.685 197.685C104.723 197.687 104.759 197.705 104.785 197.734C104.81 197.762 104.823 197.8 104.821 197.838C104.818 197.877 104.801 197.913 104.772 197.938C104.743 197.964 104.706 197.976 104.667 197.974V197.972Z" fill="white"/>
<path d="M176.506 203.012H176.496L146.213 200.867C146.175 200.864 146.14 200.846 146.114 200.817C146.089 200.788 146.077 200.751 146.079 200.712C146.082 200.674 146.1 200.638 146.129 200.613C146.158 200.588 146.195 200.575 146.234 200.578L176.516 202.724C176.535 202.724 176.554 202.729 176.571 202.737C176.588 202.744 176.604 202.756 176.617 202.77C176.63 202.783 176.64 202.8 176.646 202.818C176.653 202.835 176.656 202.854 176.655 202.873C176.655 202.892 176.65 202.911 176.642 202.928C176.635 202.946 176.623 202.961 176.609 202.974C176.596 202.987 176.579 202.997 176.561 203.004C176.544 203.01 176.525 203.013 176.506 203.013L176.506 203.012Z" fill="white"/>
<path d="M275.711 220.189H0.2132C0.184565 220.19 0.156012 220.185 0.129247 220.175C0.102482 220.165 0.0780536 220.149 0.0574227 220.13C0.0367918 220.11 0.0203816 220.086 0.00917303 220.059C-0.00203556 220.033 -0.0078125 220.005 -0.0078125 219.976C-0.0078125 219.947 -0.00203556 219.919 0.00917303 219.893C0.0203816 219.866 0.0367918 219.842 0.0574227 219.823C0.0780536 219.803 0.102482 219.787 0.129247 219.777C0.156012 219.767 0.184565 219.762 0.2132 219.763H275.711C275.74 219.762 275.768 219.767 275.795 219.777C275.822 219.787 275.846 219.803 275.867 219.823C275.887 219.842 275.904 219.866 275.915 219.893C275.926 219.919 275.932 219.947 275.932 219.976C275.932 220.005 275.926 220.033 275.915 220.059C275.904 220.086 275.887 220.11 275.867 220.13C275.846 220.149 275.822 220.165 275.795 220.175C275.768 220.185 275.74 220.19 275.711 220.189Z" fill="#292A2E"/>
<path d="M194 134.09V110.189C194.001 110.109 193.983 110.031 193.948 109.959C193.913 109.888 193.861 109.826 193.797 109.779C193.733 109.732 193.658 109.701 193.58 109.688C193.501 109.675 193.421 109.682 193.345 109.706C192.198 110.067 191.007 110.268 189.805 110.304C189.658 110.304 189.518 110.31 189.38 110.31C187.069 110.315 184.794 109.728 182.774 108.605C182.621 108.52 182.449 108.475 182.274 108.475C182.099 108.475 181.927 108.52 181.774 108.605C179.754 109.728 177.48 110.315 175.169 110.31C172.871 110.313 170.611 109.719 168.611 108.586C168.457 108.499 168.283 108.453 168.106 108.453C167.929 108.453 167.754 108.499 167.6 108.586C165.57 109.724 163.282 110.318 160.955 110.311C158.641 110.313 156.368 109.709 154.359 108.561C154.203 108.473 154.028 108.426 153.849 108.426C153.67 108.426 153.494 108.473 153.339 108.561C151.33 109.709 149.056 110.313 146.743 110.311C146.606 110.311 146.469 110.311 146.321 110.305H146.314C145.07 110.268 143.838 110.053 142.654 109.669C142.579 109.645 142.499 109.638 142.422 109.651C142.344 109.663 142.27 109.694 142.206 109.74C142.143 109.786 142.091 109.847 142.055 109.917C142.019 109.987 142 110.065 142 110.144L142 133.91C141.988 134.18 142.031 134.449 142.125 134.702C142.22 134.955 142.365 135.187 142.552 135.382C142.739 135.577 142.963 135.733 143.212 135.839C143.46 135.945 143.727 136 143.998 136H191.94C193.02 136 193.953 135.17 194 134.09Z" fill="#D41142"/>
<path d="M197.571 97.285L192.206 84.9738C190.801 81.9525 187.593 80 184.031 80H151.963C148.401 80 145.193 81.9525 143.788 84.9738L138.423 97.285C137.298 99.7113 138.785 102.204 138.785 102.204L138.82 102.26C138.881 102.358 138.99 102.51 139.056 102.608C139.063 102.615 139.068 102.624 139.074 102.632L139.699 103.389C139.722 103.417 139.747 103.444 139.774 103.47L140.399 104.074L140.451 104.119C140.818 104.433 141.211 104.717 141.625 104.966V104.972C142.986 105.797 144.535 106.256 146.125 106.306C146.228 106.306 146.33 106.306 146.434 106.306C148.839 106.311 151.157 105.404 152.92 103.767L152.961 103.729C153.146 103.555 153.389 103.459 153.642 103.459C153.895 103.459 154.138 103.555 154.323 103.729L154.364 103.767C156.146 105.401 158.475 106.307 160.893 106.307C163.31 106.307 165.639 105.401 167.421 103.767C167.606 103.596 167.849 103.501 168.101 103.501C168.353 103.501 168.595 103.596 168.78 103.767C170.557 105.396 172.878 106.301 175.288 106.306C177.698 106.312 180.022 105.417 181.806 103.796C181.988 103.628 182.228 103.534 182.476 103.534C182.724 103.534 182.963 103.628 183.145 103.796C184.931 105.426 187.266 106.323 189.684 106.306H189.995C191.545 106.248 193.053 105.787 194.37 104.969C194.489 104.897 194.603 104.823 194.718 104.748C195.606 104.149 196.379 103.394 197 102.521L197.218 102.193C197.239 102.159 197.259 102.124 197.278 102.087C197.485 101.665 198.598 99.4925 197.571 97.285Z" fill="#D41142"/>
</g>
<defs>
<clipPath id="clip0_5522_56201">
<rect width="283" height="220.19" fill="white"/>
</clipPath>
</defs>
</svg>
